<ttFont>
    <TTGlyph name="A" xMin="2" yMin="-112" xMax="640" yMax="708">
      <contour>
        <pt x="640" y="-65" on="1"/>
        <pt x="613" y="-83" on="0"/>
        <pt x="542" y="-105" on="0"/>
        <pt x="491" y="-112" on="1"/>
        <pt x="481" y="-31" on="0"/>
        <pt x="456" y="110" on="0"/>
        <pt x="441" y="173" on="1"/>
        <pt x="376" y="173" on="0"/>
        <pt x="259" y="166" on="0"/>
        <pt x="207" y="159" on="1"/>
        <pt x="186" y="105" on="0"/>
        <pt x="146" y="13" on="0"/>
        <pt x="125" y="-27" on="1"/>
        <pt x="87" y="-20" on="0"/>
        <pt x="22" y="14" on="0"/>
        <pt x="2" y="38" on="1"/>
        <pt x="85" y="189" on="0"/>
        <pt x="199" y="486" on="0"/>
        <pt x="256" y="708" on="1"/>
        <pt x="295" y="707" on="0"/>
        <pt x="357" y="700" on="0"/>
        <pt x="393" y="692" on="1"/>
        <pt x="483" y="535" on="0"/>
        <pt x="604" y="166" on="0"/>
      </contour>
      <contour>
        <pt x="322" y="534" on="1"/>
        <pt x="304" y="462" on="0"/>
        <pt x="265" y="326" on="0"/>
        <pt x="244" y="264" on="1"/>
        <pt x="290" y="270" on="0"/>
        <pt x="374" y="277" on="0"/>
        <pt x="414" y="278" on="1"/>
        <pt x="394" y="348" on="0"/>
        <pt x="348" y="476" on="0"/>
      </contour>
    </TTGlyph>
    <TTGlyph name="AE" xMin="3" yMin="-43" xMax="840" yMax="733">
      <contour>
        <pt x="840" y="-12" on="1"/>
        <pt x="784" y="-23" on="0"/>
        <pt x="530" y="-42" on="0"/>
        <pt x="431" y="-43" on="1"/>
        <pt x="425" y="4" on="0"/>
        <pt x="412" y="108" on="0"/>
        <pt x="407" y="164" on="1"/>
        <pt x="353" y="163" on="0"/>
        <pt x="258" y="156" on="0"/>
        <pt x="215" y="150" on="1"/>
        <pt x="197" y="111" on="0"/>
        <pt x="156" y="27" on="0"/>
        <pt x="126" y="-29" on="1"/>
        <pt x="88" y="-22" on="0"/>
        <pt x="23" y="13" on="0"/>
        <pt x="3" y="37" on="1"/>
        <pt x="90" y="188" on="0"/>
        <pt x="209" y="486" on="0"/>
        <pt x="268" y="705" on="1"/>
        <pt x="294" y="705" on="0"/>
        <pt x="355" y="697" on="0"/>
        <pt x="396" y="687" on="1"/>
        <pt x="534" y="713" on="0"/>
        <pt x="719" y="732" on="0"/>
        <pt x="815" y="733" on="1"/>
        <pt x="816" y="705" on="0"/>
        <pt x="809" y="644" on="0"/>
        <pt x="802" y="609" on="1"/>
        <pt x="731" y="609" on="0"/>
        <pt x="598" y="603" on="0"/>
        <pt x="535" y="596" on="1"/>
        <pt x="533" y="550" on="0"/>
        <pt x="532" y="454" on="0"/>
        <pt x="533" y="405" on="1"/>
        <pt x="596" y="420" on="0"/>
        <pt x="704" y="436" on="0"/>
        <pt x="759" y="438" on="1"/>
        <pt x="766" y="410" on="0"/>
        <pt x="772" y="353" on="0"/>
        <pt x="771" y="319" on="1"/>
        <pt x="705" y="317" on="0"/>
        <pt x="592" y="307" on="0"/>
        <pt x="537" y="299" on="1"/>
        <pt x="539" y="243" on="0"/>
        <pt x="548" y="128" on="0"/>
        <pt x="555" y="73" on="1"/>
        <pt x="605" y="74" on="0"/>
        <pt x="771" y="93" on="0"/>
        <pt x="826" y="105" on="1"/>
        <pt x="832" y="88" on="0"/>
        <pt x="840" y="18" on="0"/>
      </contour>
      <contour>
        <pt x="376" y="578" on="1"/>
        <pt x="353" y="499" on="0"/>
        <pt x="295" y="338" on="0"/>
        <pt x="261" y="256" on="1"/>
        <pt x="295" y="261" on="0"/>
        <pt x="363" y="267" on="0"/>
        <pt x="397" y="268" on="1"/>
        <pt x="389" y="367" on="0"/>
        <pt x="379" y="517" on="0"/>
      </contour>
    </TTGlyph>
    <TTGlyph name="Aacute" xMin="2" yMin="-112" xMax="640" yMax="930">
      <component glyphName="A" x="0" y="0" flags="0x204"/>
      <component glyphName="acute" x="233" y="178" flags="0x4"/>
    </TTGlyph>
    <TTGlyph name="Abreve" xMin="2" yMin="-112" xMax="640" yMax="906">
      <component glyphName="A" x="0" y="0" flags="0x204"/>
      <component glyphName="breve" x="196" y="166" flags="0x4"/>
    </TTGlyph>
    <TTGlyph name="Acircumflex" xMin="2" yMin="-112" xMax="640" yMax="912">
      <component glyphName="A" x="0" y="0" flags="0x204"/>
      <component glyphName="circumflex" x="203" y="167" flags="0x4"/>
    </TTGlyph>
    <TTGlyph name="Adieresis" xMin="2" yMin="-112" xMax="640" yMax="899">
      <component glyphName="A" x="0" y="0" flags="0x204"/>
      <component glyphName="dieresis" x="204" y="147" flags="0x4"/>
    </TTGlyph>
    <TTGlyph name="Agrave" xMin="2" yMin="-112" xMax="640" yMax="931">
      <component glyphName="A" x="0" y="0" flags="0x204"/>
      <component glyphName="grave" x="165" y="178" flags="0x4"/>
    </TTGlyph>
    <TTGlyph name="Amacron" xMin="2" yMin="-112" xMax="640" yMax="870">
      <component glyphName="A" x="0" y="0" flags="0x204"/>
      <component glyphName="macron" x="196" y="158" flags="0x4"/>
    </TTGlyph>
    <TTGlyph name="Aogonek" xMin="2" yMin="-294" xMax="644" yMax="708">
      <contour>
        <pt x="644" y="-235" on="1"/>
        <pt x="622" y="-265" on="0"/>
        <pt x="565" y="-294" on="0"/>
        <pt x="529" y="-294" on="1"/>
        <pt x="486" y="-294" on="0"/>
        <pt x="434" y="-252" on="0"/>
        <pt x="434" y="-217" on="1"/>
        <pt x="434" y="-187" on="0"/>
        <pt x="462" y="-135" on="0"/>
        <pt x="491" y="-111" on="1"/>
        <pt x="481" y="-31" on="0"/>
        <pt x="456" y="110" on="0"/>
        <pt x="441" y="173" on="1"/>
        <pt x="376" y="173" on="0"/>
        <pt x="259" y="166" on="0"/>
        <pt x="207" y="159" on="1"/>
        <pt x="186" y="105" on="0"/>
        <pt x="146" y="13" on="0"/>
        <pt x="125" y="-27" on="1"/>
        <pt x="87" y="-20" on="0"/>
        <pt x="22" y="14" on="0"/>
        <pt x="2" y="38" on="1"/>
        <pt x="85" y="189" on="0"/>
        <pt x="199" y="486" on="0"/>
        <pt x="256" y="708" on="1"/>
        <pt x="295" y="707" on="0"/>
        <pt x="357" y="700" on="0"/>
        <pt x="393" y="692" on="1"/>
        <pt x="483" y="535" on="0"/>
        <pt x="604" y="166" on="0"/>
        <pt x="640" y="-65" on="1"/>
        <pt x="625" y="-74" on="0"/>
        <pt x="593" y="-89" on="0"/>
        <pt x="577" y="-94" on="1"/>
        <pt x="551" y="-116" on="0"/>
        <pt x="524" y="-166" on="0"/>
        <pt x="524" y="-191" on="1"/>
        <pt x="524" y="-208" on="0"/>
        <pt x="539" y="-226" on="0"/>
        <pt x="554" y="-226" on="1"/>
        <pt x="570" y="-226" on="0"/>
        <pt x="598" y="-206" on="0"/>
        <pt x="611" y="-185" on="1"/>
        <pt x="620" y="-193" on="0"/>
        <pt x="637" y="-218" on="0"/>
      </contour>
      <contour>
        <pt x="322" y="534" on="1"/>
        <pt x="304" y="462" on="0"/>
        <pt x="265" y="326" on="0"/>
        <pt x="244" y="264" on="1"/>
        <pt x="290" y="270" on="0"/>
        <pt x="374" y="277" on="0"/>
        <pt x="414" y="278" on="1"/>
        <pt x="394" y="348" on="0"/>
        <pt x="348" y="476" on="0"/>
      </contour>
    </TTGlyph>
    <TTGlyph name="Aring" xMin="2" yMin="-112" xMax="640" yMax="937">
      <component glyphName="A" x="0" y="0" flags="0x204"/>
      <component glyphName="ring" x="205" y="169" flags="0x4"/>
    </TTGlyph>
    <TTGlyph name="Atilde" xMin="2" yMin="-112" xMax="640" yMax="865">
      <component glyphName="A" x="0" y="0" flags="0x204"/>
      <component glyphName="tilde" x="195" y="126" flags="0x4"/>
    </TTGlyph>
    <TTGlyph name="B" xMin="76" yMin="-20" xMax="586" yMax="741">
      <contour>
        <pt x="586" y="263" on="1"/>
        <pt x="586" y="144" on="0"/>
        <pt x="403" y="-20" on="0"/>
        <pt x="270" y="-20" on="1"/>
        <pt x="227" y="-20" on="0"/>
        <pt x="137" y="6" on="0"/>
        <pt x="97" y="30" on="1"/>
        <pt x="86" y="173" on="0"/>
        <pt x="76" y="412" on="0"/>
        <pt x="76" y="538" on="1"/>
        <pt x="76" y="598" on="0"/>
        <pt x="76" y="662" on="0"/>
        <pt x="77" y="691" on="1"/>
        <pt x="127" y="715" on="0"/>
        <pt x="238" y="741" on="0"/>
        <pt x="293" y="741" on="1"/>
        <pt x="410" y="741" on="0"/>
        <pt x="536" y="656" on="0"/>
        <pt x="536" y="577" on="1"/>
        <pt x="536" y="527" on="0"/>
        <pt x="488" y="447" on="0"/>
        <pt x="441" y="419" on="1"/>
        <pt x="510" y="403" on="0"/>
        <pt x="586" y="321" on="0"/>
      </contour>
      <contour>
        <pt x="388" y="557" on="1"/>
        <pt x="388" y="603" on="0"/>
        <pt x="330" y="652" on="0"/>
        <pt x="275" y="652" on="1"/>
        <pt x="267" y="652" on="0"/>
        <pt x="246" y="649" on="0"/>
        <pt x="234" y="647" on="1"/>
        <pt x="230" y="599" on="0"/>
        <pt x="224" y="490" on="0"/>
        <pt x="222" y="417" on="1"/>
        <pt x="306" y="428" on="0"/>
        <pt x="388" y="497" on="0"/>
      </contour>
      <contour>
        <pt x="223" y="89" on="1"/>
        <pt x="238" y="81" on="0"/>
        <pt x="269" y="73" on="0"/>
        <pt x="284" y="73" on="1"/>
        <pt x="345" y="73" on="0"/>
        <pt x="434" y="170" on="0"/>
        <pt x="434" y="232" on="1"/>
        <pt x="434" y="283" on="0"/>
        <pt x="375" y="335" on="0"/>
        <pt x="316" y="335" on="1"/>
        <pt x="295" y="335" on="0"/>
        <pt x="245" y="325" on="0"/>
        <pt x="220" y="317" on="1"/>
        <pt x="220" y="297" on="0"/>
        <pt x="220" y="256" on="0"/>
        <pt x="220" y="236" on="1"/>
        <pt x="220" y="196" on="0"/>
        <pt x="221" y="124" on="0"/>
      </contour>
    </TTGlyph>
    <TTGlyph name="C" xMin="39" yMin="-35" xMax="556" yMax="693">
      <contour>
        <pt x="431" y="229" on="1"/>
        <pt x="463" y="232" on="0"/>
        <pt x="529" y="220" on="0"/>
        <pt x="548" y="208" on="1"/>
        <pt x="540" y="91" on="0"/>
        <pt x="406" y="-35" on="0"/>
        <pt x="288" y="-35" on="1"/>
        <pt x="170" y="-35" on="0"/>
        <pt x="39" y="124" on="0"/>
        <pt x="39" y="269" on="1"/>
        <pt x="39" y="451" on="0"/>
        <pt x="220" y="693" on="0"/>
        <pt x="360" y="693" on="1"/>
        <pt x="451" y="693" on="0"/>
        <pt x="551" y="579" on="0"/>
        <pt x="556" y="471" on="1"/>
        <pt x="518" y="453" on="0"/>
        <pt x="458" y="441" on="0"/>
        <pt x="414" y="442" on="1"/>
        <pt x="416" y="521" on="0"/>
        <pt x="377" y="598" on="0"/>
        <pt x="335" y="598" on="1"/>
        <pt x="280" y="598" on="0"/>
        <pt x="203" y="430" on="0"/>
        <pt x="203" y="305" on="1"/>
        <pt x="203" y="188" on="0"/>
        <pt x="266" y="63" on="0"/>
        <pt x="325" y="63" on="1"/>
        <pt x="381" y="63" on="0"/>
        <pt x="437" y="152" on="0"/>
      </contour>
    </TTGlyph>
    <TTGlyph name="Cacute" xMin="39" yMin="-35" xMax="556" yMax="932">
      <component glyphName="C" x="0" y="0" flags="0x204"/>
      <component glyphName="acute" x="256" y="180" flags="0x4"/>
    </TTGlyph>
    <TTGlyph name="Ccaron" xMin="39" yMin="-35" xMax="556" yMax="916">
      <component glyphName="C" x="0" y="0" flags="0x204"/>
      <component glyphName="caron" x="230" y="171" flags="0x4"/>
    </TTGlyph>
    <TTGlyph name="Ccedilla" xMin="39" yMin="-251" xMax="556" yMax="693">
      <component glyphName="C" x="0" y="0" flags="0x204"/>
      <component glyphName="cedilla" x="180" y="-23" flags="0x4"/>
    </TTGlyph>
    <TTGlyph name="D" xMin="53" yMin="-10" xMax="581" yMax="717">
      <contour>
        <pt x="581" y="442" on="1"/>
        <pt x="581" y="297" on="0"/>
        <pt x="368" y="39" on="0"/>
        <pt x="206" y="-10" on="1"/>
        <pt x="181" y="-10" on="0"/>
        <pt x="104" y="-4" on="0"/>
        <pt x="78" y="0" on="1"/>
        <pt x="65" y="147" on="0"/>
        <pt x="53" y="394" on="0"/>
        <pt x="53" y="508" on="1"/>
        <pt x="53" y="547" on="0"/>
        <pt x="55" y="628" on="0"/>
        <pt x="56" y="665" on="1"/>
        <pt x="112" y="692" on="0"/>
        <pt x="217" y="717" on="0"/>
        <pt x="276" y="717" on="1"/>
        <pt x="425" y="717" on="0"/>
        <pt x="581" y="576" on="0"/>
      </contour>
      <contour>
        <pt x="215" y="617" on="1"/>
        <pt x="207" y="518" on="0"/>
        <pt x="200" y="329" on="0"/>
        <pt x="200" y="206" on="1"/>
        <pt x="200" y="185" on="0"/>
        <pt x="201" y="139" on="0"/>
        <pt x="202" y="100" on="1"/>
        <pt x="311" y="147" on="0"/>
        <pt x="426" y="323" on="0"/>
        <pt x="426" y="442" on="1"/>
        <pt x="426" y="527" on="0"/>
        <pt x="339" y="623" on="0"/>
        <pt x="260" y="623" on="1"/>
        <pt x="249" y="623" on="0"/>
        <pt x="226" y="620" on="0"/>
      </contour>
    </TTGlyph>
    <TTGlyph name="Dcaron" xMin="53" yMin="-10" xMax="581" yMax="925">
      <component glyphName="D" x="0" y="0" flags="0x204"/>
      <component glyphName="caron" x="146" y="180" flags="0x4"/>
    </TTGlyph>
    <TTGlyph name="Dcroat" xMin="-24" yMin="-10" xMax="581" yMax="717">
      <component glyphName="Eth" x="0" y="0" flags="0x204"/>
    </TTGlyph>
    <TTGlyph name="E" xMin="61" yMin="-42" xMax="539" yMax="735">
      <contour>
        <pt x="538" y="-11" on="1"/>
        <pt x="482" y="-22" on="0"/>
        <pt x="228" y="-41" on="0"/>
        <pt x="129" y="-42" on="1"/>
        <pt x="102" y="135" on="0"/>
        <pt x="63" y="547" on="0"/>
        <pt x="61" y="685" on="1"/>
        <pt x="204" y="712" on="0"/>
        <pt x="409" y="734" on="0"/>
        <pt x="514" y="735" on="1"/>
        <pt x="514" y="706" on="0"/>
        <pt x="507" y="644" on="0"/>
        <pt x="500" y="611" on="1"/>
        <pt x="428" y="610" on="0"/>
        <pt x="296" y="604" on="0"/>
        <pt x="234" y="598" on="1"/>
        <pt x="232" y="556" on="0"/>
        <pt x="230" y="460" on="0"/>
        <pt x="231" y="407" on="1"/>
        <pt x="290" y="421" on="0"/>
        <pt x="400" y="437" on="0"/>
        <pt x="458" y="439" on="1"/>
        <pt x="464" y="414" on="0"/>
        <pt x="470" y="358" on="0"/>
        <pt x="470" y="320" on="1"/>
        <pt x="397" y="317" on="0"/>
        <pt x="287" y="309" on="0"/>
        <pt x="235" y="301" on="1"/>
        <pt x="239" y="222" on="0"/>
        <pt x="248" y="118" on="0"/>
        <pt x="254" y="74" on="1"/>
        <pt x="307" y="76" on="0"/>
        <pt x="472" y="95" on="0"/>
        <pt x="525" y="106" on="1"/>
        <pt x="531" y="88" on="0"/>
        <pt x="539" y="16" on="0"/>
      </contour>
    </TTGlyph>
    <TTGlyph name="Eacute" xMin="61" yMin="-42" xMax="539" yMax="935">
      <component glyphName="E" x="0" y="0" flags="0x204"/>
      <component glyphName="acute" x="157" y="183" flags="0x4"/>
    </TTGlyph>
    <TTGlyph name="Ecaron" xMin="61" yMin="-42" xMax="539" yMax="932">
      <component glyphName="E" x="0" y="0" flags="0x204"/>
      <component glyphName="caron" x="155" y="187" flags="0x4"/>
    </TTGlyph>
    <TTGlyph name="Ecircumflex" xMin="61" yMin="-42" xMax="539" yMax="926">
      <component glyphName="E" x="0" y="0" flags="0x204"/>
      <component glyphName="circumflex" x="155" y="181" flags="0x4"/>
    </TTGlyph>
    <TTGlyph name="Edieresis" xMin="61" yMin="-42" xMax="539" yMax="920">
      <component glyphName="E" x="0" y="0" flags="0x204"/>
      <component glyphName="dieresis" x="162" y="168" flags="0x4"/>
    </TTGlyph>
    <TTGlyph name="Edotaccent" xMin="61" yMin="-42" xMax="539" yMax="922">
      <component glyphName="E" x="0" y="0" flags="0x204"/>
      <component glyphName="dotaccent" x="158" y="170" flags="0x4"/>
    </TTGlyph>
    <TTGlyph name="Egrave" xMin="61" yMin="-42" xMax="539" yMax="934">
      <component glyphName="E" x="0" y="0" flags="0x204"/>
      <component glyphName="grave" x="131" y="181" flags="0x4"/>
    </TTGlyph>
    <TTGlyph name="Emacron" xMin="61" yMin="-42" xMax="539" yMax="879">
      <component glyphName="E" x="0" y="0" flags="0x204"/>
      <component glyphName="macron" x="153" y="167" flags="0x4"/>
    </TTGlyph>
    <TTGlyph name="Eogonek" xMin="61" yMin="-220" xMax="593" yMax="735">
      <contour>
        <pt x="593" y="-161" on="1"/>
        <pt x="572" y="-190" on="0"/>
        <pt x="513" y="-220" on="0"/>
        <pt x="477" y="-220" on="1"/>
        <pt x="433" y="-220" on="0"/>
        <pt x="383" y="-177" on="0"/>
        <pt x="383" y="-140" on="1"/>
        <pt x="383" y="-107" on="0"/>
        <pt x="420" y="-50" on="0"/>
        <pt x="460" y="-22" on="1"/>
        <pt x="384" y="-30" on="0"/>
        <pt x="200" y="-41" on="0"/>
        <pt x="129" y="-42" on="1"/>
        <pt x="102" y="135" on="0"/>
        <pt x="63" y="547" on="0"/>
        <pt x="61" y="685" on="1"/>
        <pt x="204" y="712" on="0"/>
        <pt x="409" y="734" on="0"/>
        <pt x="514" y="735" on="1"/>
        <pt x="514" y="706" on="0"/>
        <pt x="507" y="644" on="0"/>
        <pt x="500" y="611" on="1"/>
        <pt x="428" y="610" on="0"/>
        <pt x="296" y="604" on="0"/>
        <pt x="234" y="598" on="1"/>
        <pt x="232" y="556" on="0"/>
        <pt x="230" y="460" on="0"/>
        <pt x="231" y="407" on="1"/>
        <pt x="290" y="421" on="0"/>
        <pt x="400" y="437" on="0"/>
        <pt x="458" y="439" on="1"/>
        <pt x="464" y="414" on="0"/>
        <pt x="470" y="358" on="0"/>
        <pt x="470" y="320" on="1"/>
        <pt x="397" y="317" on="0"/>
        <pt x="287" y="309" on="0"/>
        <pt x="235" y="301" on="1"/>
        <pt x="239" y="222" on="0"/>
        <pt x="248" y="118" on="0"/>
        <pt x="254" y="74" on="1"/>
        <pt x="303" y="76" on="0"/>
        <pt x="470" y="95" on="0"/>
        <pt x="525" y="106" on="1"/>
        <pt x="531" y="88" on="0"/>
        <pt x="539" y="16" on="0"/>
        <pt x="538" y="-11" on="1"/>
        <pt x="507" y="-35" on="0"/>
        <pt x="474" y="-90" on="0"/>
        <pt x="474" y="-117" on="1"/>
        <pt x="474" y="-134" on="0"/>
        <pt x="490" y="-152" on="0"/>
        <pt x="504" y="-152" on="1"/>
        <pt x="520" y="-152" on="0"/>
        <pt x="548" y="-132" on="0"/>
        <pt x="561" y="-111" on="1"/>
        <pt x="570" y="-118" on="0"/>
        <pt x="587" y="-144" on="0"/>
      </contour>
    </TTGlyph>
    <TTGlyph name="Eth" xMin="-24" yMin="-10" xMax="581" yMax="717">
      <contour>
        <pt x="201" y="332" on="1"/>
        <pt x="200" y="310" on="0"/>
        <pt x="200" y="259" on="0"/>
        <pt x="200" y="206" on="1"/>
        <pt x="200" y="185" on="0"/>
        <pt x="201" y="139" on="0"/>
        <pt x="202" y="100" on="1"/>
        <pt x="311" y="147" on="0"/>
        <pt x="426" y="323" on="0"/>
        <pt x="426" y="442" on="1"/>
        <pt x="426" y="527" on="0"/>
        <pt x="339" y="623" on="0"/>
        <pt x="260" y="623" on="1"/>
        <pt x="249" y="623" on="0"/>
        <pt x="226" y="620" on="0"/>
        <pt x="215" y="617" on="1"/>
        <pt x="210" y="561" on="0"/>
        <pt x="204" y="460" on="0"/>
        <pt x="203" y="412" on="1"/>
        <pt x="230" y="414" on="0"/>
        <pt x="284" y="418" on="0"/>
        <pt x="310" y="421" on="1"/>
        <pt x="311" y="393" on="0"/>
        <pt x="311" y="359" on="0"/>
        <pt x="309" y="344" on="1"/>
        <pt x="282" y="340" on="0"/>
        <pt x="228" y="334" on="0"/>
      </contour>
      <contour>
        <pt x="581" y="442" on="1"/>
        <pt x="581" y="297" on="0"/>
        <pt x="368" y="39" on="0"/>
        <pt x="206" y="-10" on="1"/>
        <pt x="181" y="-10" on="0"/>
        <pt x="104" y="-4" on="0"/>
        <pt x="78" y="0" on="1"/>
        <pt x="71" y="86" on="0"/>
        <pt x="60" y="251" on="0"/>
        <pt x="57" y="329" on="1"/>
        <pt x="41" y="330" on="0"/>
        <pt x="7" y="332" on="0"/>
        <pt x="-22" y="334" on="1"/>
        <pt x="-24" y="355" on="0"/>
        <pt x="-23" y="401" on="0"/>
        <pt x="-20" y="413" on="1"/>
        <pt x="-16" y="413" on="0"/>
        <pt x="-5" y="412" on="0"/>
        <pt x="5" y="412" on="1"/>
        <pt x="26" y="411" on="0"/>
        <pt x="46" y="410" on="0"/>
        <pt x="54" y="410" on="1"/>
        <pt x="53" y="427" on="0"/>
        <pt x="53" y="468" on="0"/>
        <pt x="53" y="508" on="1"/>
        <pt x="53" y="547" on="0"/>
        <pt x="55" y="628" on="0"/>
        <pt x="56" y="665" on="1"/>
        <pt x="113" y="692" on="0"/>
        <pt x="217" y="717" on="0"/>
        <pt x="271" y="717" on="1"/>
        <pt x="423" y="717" on="0"/>
        <pt x="581" y="576" on="0"/>
      </contour>
    </TTGlyph>
    <TTGlyph name="Euro" xMin="7" yMin="-40" xMax="555" yMax="668">
      <contour>
        <pt x="552" y="148" on="1"/>
        <pt x="512" y="49" on="0"/>
        <pt x="403" y="-40" on="0"/>
        <pt x="322" y="-40" on="1"/>
        <pt x="237" y="-40" on="0"/>
        <pt x="125" y="64" on="0"/>
        <pt x="107" y="160" on="1"/>
        <pt x="92" y="160" on="0"/>
        <pt x="57" y="162" on="0"/>
        <pt x="20" y="166" on="1"/>
        <pt x="16" y="187" on="0"/>
        <pt x="14" y="244" on="0"/>
        <pt x="17" y="261" on="1"/>
        <pt x="38" y="260" on="0"/>
        <pt x="79" y="257" on="0"/>
        <pt x="98" y="255" on="1"/>
        <pt x="98" y="261" on="1"/>
        <pt x="98" y="269" on="0"/>
        <pt x="99" y="288" on="0"/>
        <pt x="100" y="307" on="1"/>
        <pt x="78" y="308" on="0"/>
        <pt x="35" y="311" on="0"/>
        <pt x="14" y="313" on="1"/>
        <pt x="10" y="335" on="0"/>
        <pt x="7" y="391" on="0"/>
        <pt x="10" y="408" on="1"/>
        <pt x="28" y="407" on="0"/>
        <pt x="68" y="404" on="0"/>
        <pt x="114" y="401" on="1"/>
        <pt x="143" y="525" on="0"/>
        <pt x="289" y="668" on="0"/>
        <pt x="387" y="668" on="1"/>
        <pt x="466" y="668" on="0"/>
        <pt x="553" y="556" on="0"/>
        <pt x="555" y="449" on="1"/>
        <pt x="516" y="432" on="0"/>
        <pt x="459" y="422" on="0"/>
        <pt x="417" y="422" on="1"/>
        <pt x="420" y="499" on="0"/>
        <pt x="393" y="574" on="0"/>
        <pt x="360" y="574" on="1"/>
        <pt x="330" y="574" on="0"/>
        <pt x="281" y="482" on="0"/>
        <pt x="269" y="404" on="1"/>
        <pt x="291" y="405" on="0"/>
        <pt x="342" y="410" on="0"/>
        <pt x="379" y="415" on="1"/>
        <pt x="382" y="395" on="0"/>
        <pt x="380" y="344" on="0"/>
        <pt x="375" y="330" on="1"/>
        <pt x="344" y="325" on="0"/>
        <pt x="287" y="317" on="0"/>
        <pt x="261" y="315" on="1"/>
        <pt x="260" y="309" on="0"/>
        <pt x="260" y="294" on="0"/>
        <pt x="260" y="278" on="1"/>
        <pt x="260" y="273" on="0"/>
        <pt x="260" y="262" on="0"/>
        <pt x="260" y="257" on="1"/>
        <pt x="287" y="259" on="0"/>
        <pt x="346" y="266" on="0"/>
        <pt x="382" y="272" on="1"/>
        <pt x="385" y="254" on="0"/>
        <pt x="383" y="201" on="0"/>
        <pt x="378" y="187" on="1"/>
        <pt x="334" y="179" on="0"/>
        <pt x="288" y="172" on="0"/>
        <pt x="269" y="170" on="1"/>
        <pt x="281" y="114" on="0"/>
        <pt x="324" y="57" on="0"/>
        <pt x="355" y="57" on="1"/>
        <pt x="393" y="57" on="0"/>
        <pt x="443" y="136" on="0"/>
        <pt x="453" y="212" on="1"/>
        <pt x="482" y="208" on="0"/>
        <pt x="534" y="174" on="0"/>
      </contour>
    </TTGlyph>
    <TTGlyph name="F" xMin="56" yMin="-83" xMax="512" yMax="774">
      <contour>
        <pt x="255" y="300" on="1"/>
        <pt x="256" y="191" on="0"/>
        <pt x="252" y="14" on="0"/>
        <pt x="248" y="-68" on="1"/>
        <pt x="213" y="-76" on="0"/>
        <pt x="147" y="-83" on="0"/>
        <pt x="109" y="-82" on="1"/>
        <pt x="111" y="117" on="0"/>
        <pt x="82" y="561" on="0"/>
        <pt x="56" y="717" on="1"/>
        <pt x="141" y="722" on="0"/>
        <pt x="302" y="741" on="0"/>
        <pt x="502" y="774" on="1"/>
        <pt x="507" y="760" on="0"/>
        <pt x="511" y="728" on="0"/>
        <pt x="511" y="710" on="1"/>
        <pt x="512" y="695" on="0"/>
        <pt x="508" y="663" on="0"/>
        <pt x="504" y="645" on="1"/>
        <pt x="417" y="633" on="0"/>
        <pt x="297" y="620" on="0"/>
        <pt x="242" y="616" on="1"/>
        <pt x="246" y="565" on="0"/>
        <pt x="252" y="462" on="0"/>
        <pt x="253" y="412" on="1"/>
        <pt x="306" y="423" on="0"/>
        <pt x="400" y="434" on="0"/>
        <pt x="444" y="435" on="1"/>
        <pt x="450" y="409" on="0"/>
        <pt x="456" y="352" on="0"/>
        <pt x="456" y="314" on="1"/>
        <pt x="408" y="313" on="0"/>
        <pt x="306" y="306" on="0"/>
      </contour>
    </TTGlyph>
    <TTGlyph name="G" xMin="39" yMin="-32" xMax="599" yMax="724">
      <contour>
        <pt x="553" y="350" on="1"/>
        <pt x="551" y="255" on="0"/>
        <pt x="574" y="73" on="0"/>
        <pt x="599" y="-17" on="1"/>
        <pt x="579" y="-22" on="0"/>
        <pt x="526" y="-29" on="0"/>
        <pt x="487" y="-32" on="1"/>
        <pt x="475" y="-5" on="0"/>
        <pt x="454" y="53" on="0"/>
        <pt x="444" y="85" on="1"/>
        <pt x="406" y="31" on="0"/>
        <pt x="311" y="-21" on="0"/>
        <pt x="252" y="-21" on="1"/>
        <pt x="154" y="-21" on="0"/>
        <pt x="39" y="139" on="0"/>
        <pt x="39" y="276" on="1"/>
        <pt x="39" y="468" on="0"/>
        <pt x="210" y="724" on="0"/>
        <pt x="342" y="724" on="1"/>
        <pt x="433" y="724" on="0"/>
        <pt x="541" y="604" on="0"/>
        <pt x="547" y="499" on="1"/>
        <pt x="513" y="488" on="0"/>
        <pt x="440" y="478" on="0"/>
        <pt x="395" y="478" on="1"/>
        <pt x="388" y="556" on="0"/>
        <pt x="347" y="629" on="0"/>
        <pt x="312" y="629" on="1"/>
        <pt x="261" y="629" on="0"/>
        <pt x="197" y="459" on="0"/>
        <pt x="197" y="323" on="1"/>
        <pt x="197" y="210" on="0"/>
        <pt x="248" y="97" on="0"/>
        <pt x="300" y="97" on="1"/>
        <pt x="338" y="97" on="0"/>
        <pt x="398" y="153" on="0"/>
        <pt x="416" y="205" on="1"/>
        <pt x="411" y="231" on="0"/>
        <pt x="404" y="291" on="0"/>
        <pt x="401" y="333" on="1"/>
        <pt x="432" y="342" on="0"/>
        <pt x="506" y="350" on="0"/>
      </contour>
    </TTGlyph>
    <TTGlyph name="Gbreve" xMin="39" yMin="-32" xMax="599" yMax="908">
      <component glyphName="G" x="0" y="0" flags="0x204"/>
      <component glyphName="breve" x="195" y="168" flags="0x4"/>
    </TTGlyph>
    <TTGlyph name="H" xMin="55" yMin="-58" xMax="593" yMax="742">
      <contour>
        <pt x="574" y="719" on="1"/>
        <pt x="582" y="554" on="0"/>
        <pt x="593" y="110" on="0"/>
        <pt x="593" y="-58" on="1"/>
        <pt x="555" y="-58" on="0"/>
        <pt x="466" y="-49" on="0"/>
        <pt x="444" y="-43" on="1"/>
        <pt x="444" y="37" on="0"/>
        <pt x="442" y="223" on="0"/>
        <pt x="440" y="309" on="1"/>
        <pt x="379" y="308" on="0"/>
        <pt x="267" y="301" on="0"/>
        <pt x="216" y="295" on="1"/>
        <pt x="215" y="223" on="0"/>
        <pt x="216" y="78" on="0"/>
        <pt x="218" y="19" on="1"/>
        <pt x="197" y="13" on="0"/>
        <pt x="118" y="4" on="0"/>
        <pt x="86" y="5" on="1"/>
        <pt x="70" y="220" on="0"/>
        <pt x="55" y="563" on="0"/>
        <pt x="55" y="690" on="1"/>
        <pt x="73" y="701" on="0"/>
        <pt x="126" y="714" on="0"/>
        <pt x="154" y="714" on="1"/>
        <pt x="174" y="714" on="0"/>
        <pt x="210" y="709" on="0"/>
        <pt x="228" y="704" on="1"/>
        <pt x="224" y="653" on="0"/>
        <pt x="218" y="496" on="0"/>
        <pt x="217" y="407" on="1"/>
        <pt x="270" y="417" on="0"/>
        <pt x="379" y="427" on="0"/>
        <pt x="438" y="429" on="1"/>
        <pt x="434" y="564" on="0"/>
        <pt x="427" y="692" on="0"/>
        <pt x="423" y="732" on="1"/>
        <pt x="448" y="738" on="0"/>
        <pt x="477" y="742" on="0"/>
        <pt x="492" y="742" on="1"/>
        <pt x="514" y="742" on="0"/>
        <pt x="557" y="730" on="0"/>
      </contour>
    </TTGlyph>
    <TTGlyph name="I" xMin="56" yMin="-30" xMax="225" yMax="685">
      <contour>
        <pt x="225" y="510" on="1"/>
        <pt x="225" y="379" on="0"/>
        <pt x="217" y="109" on="0"/>
        <pt x="209" y="-15" on="1"/>
        <pt x="189" y="-21" on="0"/>
        <pt x="116" y="-30" on="0"/>
        <pt x="84" y="-30" on="1"/>
        <pt x="85" y="173" on="0"/>
        <pt x="71" y="519" on="0"/>
        <pt x="56" y="660" on="1"/>
        <pt x="75" y="672" on="0"/>
        <pt x="124" y="685" on="0"/>
        <pt x="151" y="685" on="1"/>
        <pt x="171" y="685" on="0"/>
        <pt x="203" y="681" on="0"/>
        <pt x="221" y="677" on="1"/>
        <pt x="223" y="642" on="0"/>
        <pt x="225" y="561" on="0"/>
      </contour>
    </TTGlyph>
    <TTGlyph name="Iacute" xMin="56" yMin="-30" xMax="240" yMax="927">
      <component glyphName="I" x="0" y="0" flags="0x204"/>
      <component glyphName="acute" x="34" y="175" flags="0x4"/>
    </TTGlyph>
    <TTGlyph name="Icircumflex" xMin="-7" yMin="-30" xMax="274" yMax="912">
      <component glyphName="I" x="0" y="0" flags="0x204"/>
      <component glyphName="circumflex" x="9" y="167" flags="0x4"/>
    </TTGlyph>
    <TTGlyph name="Idieresis" xMin="-45" yMin="-30" xMax="332" yMax="913">
      <component glyphName="I" x="0" y="0" flags="0x204"/>
      <component glyphName="dieresis" x="12" y="161" flags="0x4"/>
    </TTGlyph>
    <TTGlyph name="Idotaccent" xMin="56" yMin="-30" xMax="232" yMax="915">
      <component glyphName="I" x="0" y="0" flags="0x204"/>
      <component glyphName="dotaccent" x="9" y="163" flags="0x4"/>
    </TTGlyph>
    <TTGlyph name="Igrave" xMin="30" yMin="-30" xMax="225" yMax="922">
      <component glyphName="I" x="0" y="0" flags="0x204"/>
      <component glyphName="grave" x="-20" y="169" flags="0x4"/>
    </TTGlyph>
    <TTGlyph name="Imacron" xMin="26" yMin="-30" xMax="255" yMax="875">
      <component glyphName="I" x="0" y="0" flags="0x204"/>
      <component glyphName="macron" x="11" y="163" flags="0x4"/>
    </TTGlyph>
    <TTGlyph name="Iogonek" xMin="35" yMin="-228" xMax="245" yMax="685">
      <contour>
        <pt x="245" y="-169" on="1"/>
        <pt x="224" y="-199" on="0"/>
        <pt x="167" y="-228" on="0"/>
        <pt x="131" y="-228" on="1"/>
        <pt x="88" y="-228" on="0"/>
        <pt x="35" y="-186" on="0"/>
        <pt x="35" y="-151" on="1"/>
        <pt x="35" y="-117" on="0"/>
        <pt x="72" y="-58" on="0"/>
        <pt x="112" y="-29" on="1"/>
        <pt x="107" y="-30" on="0"/>
        <pt x="95" y="-30" on="0"/>
        <pt x="84" y="-30" on="1"/>
        <pt x="85" y="173" on="0"/>
        <pt x="71" y="519" on="0"/>
        <pt x="56" y="660" on="1"/>
        <pt x="75" y="672" on="0"/>
        <pt x="124" y="685" on="0"/>
        <pt x="151" y="685" on="1"/>
        <pt x="171" y="685" on="0"/>
        <pt x="203" y="681" on="0"/>
        <pt x="221" y="677" on="1"/>
        <pt x="223" y="642" on="0"/>
        <pt x="225" y="561" on="0"/>
        <pt x="225" y="510" on="1"/>
        <pt x="225" y="379" on="0"/>
        <pt x="217" y="109" on="0"/>
        <pt x="209" y="-15" on="1"/>
        <pt x="205" y="-16" on="0"/>
        <pt x="191" y="-19" on="0"/>
        <pt x="189" y="-20" on="1"/>
        <pt x="158" y="-44" on="0"/>
        <pt x="125" y="-98" on="0"/>
        <pt x="125" y="-125" on="1"/>
        <pt x="125" y="-141" on="0"/>
        <pt x="141" y="-160" on="0"/>
        <pt x="155" y="-160" on="1"/>
        <pt x="172" y="-160" on="0"/>
        <pt x="200" y="-140" on="0"/>
        <pt x="212" y="-119" on="1"/>
        <pt x="221" y="-126" on="0"/>
        <pt x="237" y="-149" on="0"/>
      </contour>
    </TTGlyph>
    <TTGlyph name="J" xMin="19" yMin="-88" xMax="441" yMax="725">
      <contour>
        <pt x="411" y="113" on="1"/>
        <pt x="390" y="15" on="0"/>
        <pt x="290" y="-88" on="0"/>
        <pt x="217" y="-88" on="1"/>
        <pt x="141" y="-88" on="0"/>
        <pt x="31" y="39" on="0"/>
        <pt x="19" y="139" on="1"/>
        <pt x="43" y="158" on="0"/>
        <pt x="100" y="182" on="0"/>
        <pt x="135" y="187" on="1"/>
        <pt x="149" y="86" on="0"/>
        <pt x="183" y="12" on="0"/>
        <pt x="214" y="12" on="1"/>
        <pt x="251" y="12" on="0"/>
        <pt x="286" y="114" on="0"/>
        <pt x="286" y="222" on="1"/>
        <pt x="286" y="326" on="0"/>
        <pt x="270" y="579" on="0"/>
        <pt x="255" y="698" on="1"/>
        <pt x="273" y="709" on="0"/>
        <pt x="327" y="723" on="0"/>
        <pt x="356" y="724" on="1"/>
        <pt x="376" y="725" on="0"/>
        <pt x="412" y="721" on="0"/>
        <pt x="430" y="717" on="1"/>
        <pt x="435" y="662" on="0"/>
        <pt x="441" y="539" on="0"/>
        <pt x="441" y="478" on="1"/>
        <pt x="441" y="352" on="0"/>
        <pt x="427" y="189" on="0"/>
      </contour>
    </TTGlyph>
    <TTGlyph name="K" xMin="59" yMin="-106" xMax="622" yMax="704">
      <contour>
        <pt x="622" y="-4" on="1"/>
        <pt x="598" y="-39" on="0"/>
        <pt x="536" y="-88" on="0"/>
        <pt x="494" y="-106" on="1"/>
        <pt x="438" y="2" on="0"/>
        <pt x="325" y="157" on="0"/>
        <pt x="246" y="236" on="1"/>
        <pt x="235" y="228" on="0"/>
        <pt x="219" y="216" on="0"/>
        <pt x="211" y="211" on="1"/>
        <pt x="213" y="140" on="0"/>
        <pt x="223" y="10" on="0"/>
        <pt x="232" y="-58" on="1"/>
        <pt x="212" y="-64" on="0"/>
        <pt x="133" y="-73" on="0"/>
        <pt x="100" y="-73" on="1"/>
        <pt x="79" y="57" on="0"/>
        <pt x="59" y="304" on="0"/>
        <pt x="59" y="441" on="1"/>
        <pt x="59" y="497" on="0"/>
        <pt x="64" y="616" on="0"/>
        <pt x="68" y="680" on="1"/>
        <pt x="90" y="691" on="0"/>
        <pt x="142" y="704" on="0"/>
        <pt x="169" y="704" on="1"/>
        <pt x="189" y="704" on="0"/>
        <pt x="226" y="699" on="0"/>
        <pt x="243" y="694" on="1"/>
        <pt x="228" y="609" on="0"/>
        <pt x="212" y="429" on="0"/>
        <pt x="210" y="335" on="1"/>
        <pt x="283" y="407" on="0"/>
        <pt x="386" y="565" on="0"/>
        <pt x="446" y="699" on="1"/>
        <pt x="479" y="688" on="0"/>
        <pt x="538" y="645" on="0"/>
        <pt x="566" y="612" on="1"/>
        <pt x="516" y="519" on="0"/>
        <pt x="412" y="380" on="0"/>
        <pt x="349" y="321" on="1"/>
        <pt x="431" y="251" on="0"/>
        <pt x="552" y="105" on="0"/>
      </contour>
    </TTGlyph>
    <TTGlyph name="L" xMin="64" yMin="-102" xMax="510" yMax="675">
      <contour>
        <pt x="493" y="44" on="1"/>
        <pt x="499" y="21" on="0"/>
        <pt x="510" y="-49" on="0"/>
        <pt x="510" y="-72" on="1"/>
        <pt x="410" y="-73" on="0"/>
        <pt x="236" y="-86" on="0"/>
        <pt x="120" y="-102" on="1"/>
        <pt x="95" y="69" on="0"/>
        <pt x="64" y="497" on="0"/>
        <pt x="65" y="656" on="1"/>
        <pt x="97" y="666" on="0"/>
        <pt x="162" y="675" on="0"/>
        <pt x="196" y="675" on="1"/>
        <pt x="207" y="675" on="0"/>
        <pt x="228" y="674" on="0"/>
        <pt x="238" y="672" on="1"/>
        <pt x="231" y="615" on="0"/>
        <pt x="223" y="459" on="0"/>
        <pt x="224" y="372" on="1"/>
        <pt x="224" y="254" on="0"/>
        <pt x="234" y="86" on="0"/>
        <pt x="245" y="15" on="1"/>
        <pt x="303" y="29" on="0"/>
        <pt x="434" y="44" on="0"/>
      </contour>
    </TTGlyph>
    <TTGlyph name="Lacute" xMin="64" yMin="-102" xMax="510" yMax="916">
      <component glyphName="L" x="0" y="0" flags="0x204"/>
      <component glyphName="acute" x="50" y="164" flags="0x4"/>
    </TTGlyph>
    <TTGlyph name="Lcaron" xMin="64" yMin="-102" xMax="510" yMax="683">
      <component glyphName="L" x="0" y="0" flags="0x204"/>
      <component glyphName="caron.alt" x="253" y="-35" flags="0x4"/>
    </TTGlyph>
    <TTGlyph name="Lslash" xMin="-52" yMin="-102" xMax="507" yMax="675">
      <contour>
        <pt x="507" y="-72" on="1"/>
        <pt x="407" y="-73" on="0"/>
        <pt x="235" y="-86" on="0"/>
        <pt x="118" y="-102" on="1"/>
        <pt x="110" y="-45" on="0"/>
        <pt x="95" y="72" on="0"/>
        <pt x="90" y="129" on="1"/>
        <pt x="75" y="120" on="0"/>
        <pt x="38" y="97" on="0"/>
        <pt x="1" y="75" on="1"/>
        <pt x="-19" y="94" on="0"/>
        <pt x="-42" y="131" on="0"/>
        <pt x="-52" y="159" on="1"/>
        <pt x="-18" y="179" on="0"/>
        <pt x="48" y="221" on="0"/>
        <pt x="80" y="243" on="1"/>
        <pt x="70" y="359" on="0"/>
        <pt x="62" y="571" on="0"/>
        <pt x="63" y="656" on="1"/>
        <pt x="94" y="666" on="0"/>
        <pt x="159" y="675" on="0"/>
        <pt x="194" y="675" on="1"/>
        <pt x="204" y="675" on="0"/>
        <pt x="226" y="673" on="0"/>
        <pt x="235" y="672" on="1"/>
        <pt x="228" y="619" on="0"/>
        <pt x="221" y="467" on="0"/>
        <pt x="221" y="372" on="1"/>
        <pt x="221" y="364" on="0"/>
        <pt x="221" y="349" on="0"/>
        <pt x="221" y="341" on="1"/>
        <pt x="260" y="369" on="0"/>
        <pt x="338" y="428" on="0"/>
        <pt x="380" y="460" on="1"/>
        <pt x="397" y="446" on="0"/>
        <pt x="428" y="398" on="0"/>
        <pt x="438" y="369" on="1"/>
        <pt x="391" y="333" on="0"/>
        <pt x="287" y="259" on="0"/>
        <pt x="224" y="216" on="1"/>
        <pt x="227" y="156" on="0"/>
        <pt x="235" y="58" on="0"/>
        <pt x="242" y="15" on="1"/>
        <pt x="300" y="29" on="0"/>
        <pt x="431" y="44" on="0"/>
        <pt x="490" y="44" on="1"/>
        <pt x="496" y="24" on="0"/>
        <pt x="507" y="-47" on="0"/>
      </contour>
    </TTGlyph>
    <TTGlyph name="M" xMin="62" yMin="-53" xMax="746" yMax="762">
      <contour>
        <pt x="744" y="-26" on="1"/>
        <pt x="702" y="-41" on="0"/>
        <pt x="632" y="-53" on="0"/>
        <pt x="589" y="-53" on="1"/>
        <pt x="598" y="71" on="0"/>
        <pt x="609" y="374" on="0"/>
        <pt x="611" y="537" on="1"/>
        <pt x="563" y="456" on="0"/>
        <pt x="485" y="287" on="0"/>
        <pt x="452" y="195" on="1"/>
        <pt x="434" y="189" on="0"/>
        <pt x="383" y="187" on="0"/>
        <pt x="359" y="191" on="1"/>
        <pt x="324" y="282" on="0"/>
        <pt x="244" y="443" on="0"/>
        <pt x="198" y="517" on="1"/>
        <pt x="198" y="507" on="0"/>
        <pt x="198" y="486" on="0"/>
        <pt x="198" y="476" on="1"/>
        <pt x="198" y="356" on="0"/>
        <pt x="224" y="112" on="0"/>
        <pt x="247" y="11" on="1"/>
        <pt x="226" y="5" on="0"/>
        <pt x="145" y="-4" on="0"/>
        <pt x="108" y="-4" on="1"/>
        <pt x="87" y="138" on="0"/>
        <pt x="62" y="540" on="0"/>
        <pt x="64" y="704" on="1"/>
        <pt x="98" y="726" on="0"/>
        <pt x="174" y="756" on="0"/>
        <pt x="209" y="762" on="1"/>
        <pt x="279" y="666" on="0"/>
        <pt x="385" y="476" on="0"/>
        <pt x="420" y="385" on="1"/>
        <pt x="459" y="485" on="0"/>
        <pt x="556" y="673" on="0"/>
        <pt x="614" y="761" on="1"/>
        <pt x="648" y="756" on="0"/>
        <pt x="710" y="738" on="0"/>
        <pt x="736" y="725" on="1"/>
        <pt x="742" y="595" on="0"/>
        <pt x="746" y="221" on="0"/>
      </contour>
    </TTGlyph>
    <TTGlyph name="N" xMin="63" yMin="-43" xMax="613" yMax="760">
      <contour>
        <pt x="216" y="235" on="1"/>
        <pt x="216" y="199" on="0"/>
        <pt x="218" y="115" on="0"/>
        <pt x="223" y="-28" on="1"/>
        <pt x="202" y="-34" on="0"/>
        <pt x="131" y="-42" on="0"/>
        <pt x="100" y="-43" on="1"/>
        <pt x="81" y="186" on="0"/>
        <pt x="63" y="529" on="0"/>
        <pt x="63" y="663" on="1"/>
        <pt x="65" y="665" on="0"/>
        <pt x="75" y="670" on="0"/>
        <pt x="77" y="671" on="1"/>
        <pt x="108" y="687" on="0"/>
        <pt x="183" y="706" on="0"/>
        <pt x="226" y="709" on="1"/>
        <pt x="303" y="603" on="0"/>
        <pt x="420" y="391" on="0"/>
        <pt x="471" y="266" on="1"/>
        <pt x="471" y="287" on="0"/>
        <pt x="471" y="330" on="0"/>
        <pt x="471" y="351" on="1"/>
        <pt x="471" y="483" on="0"/>
        <pt x="462" y="675" on="0"/>
        <pt x="453" y="734" on="1"/>
        <pt x="491" y="746" on="0"/>
        <pt x="568" y="759" on="0"/>
        <pt x="608" y="760" on="1"/>
        <pt x="611" y="702" on="0"/>
        <pt x="613" y="598" on="0"/>
        <pt x="613" y="549" on="1"/>
        <pt x="613" y="416" on="0"/>
        <pt x="603" y="158" on="0"/>
        <pt x="593" y="29" on="1"/>
        <pt x="554" y="22" on="0"/>
        <pt x="490" y="15" on="0"/>
        <pt x="459" y="14" on="1"/>
        <pt x="389" y="181" on="0"/>
        <pt x="278" y="393" on="0"/>
        <pt x="216" y="480" on="1"/>
        <pt x="215" y="422" on="0"/>
        <pt x="215" y="298" on="0"/>
      </contour>
    </TTGlyph>
    <TTGlyph name="Nacute" xMin="63" yMin="-43" xMax="613" yMax="927">
      <component glyphName="N" x="0" y="0" flags="0x204"/>
      <component glyphName="acute" x="235" y="175" flags="0x4"/>
    </TTGlyph>
    <TTGlyph name="Ncaron" xMin="63" yMin="-43" xMax="613" yMax="919">
      <component glyphName="N" x="0" y="0" flags="0x204"/>
      <component glyphName="caron" x="203" y="174" flags="0x4"/>
    </TTGlyph>
    <TTGlyph name="Ntilde" xMin="63" yMin="-43" xMax="613" yMax="904">
      <component glyphName="N" x="0" y="0" flags="0x204"/>
      <component glyphName="tilde" x="200" y="165" flags="0x4"/>
    </TTGlyph>
    <TTGlyph name="O" xMin="33" yMin="-20" xMax="591" yMax="733">
      <contour>
        <pt x="350" y="733" on="1"/>
        <pt x="466" y="733" on="0"/>
        <pt x="591" y="569" on="0"/>
        <pt x="591" y="416" on="1"/>
        <pt x="591" y="340" on="0"/>
        <pt x="554" y="187" on="0"/>
        <pt x="520" y="129" on="1"/>
        <pt x="478" y="55" on="0"/>
        <pt x="355" y="-20" on="0"/>
        <pt x="277" y="-20" on="1"/>
        <pt x="163" y="-20" on="0"/>
        <pt x="33" y="171" on="0"/>
        <pt x="33" y="329" on="1"/>
        <pt x="33" y="507" on="0"/>
        <pt x="209" y="733" on="0"/>
      </contour>
      <contour>
        <pt x="305" y="80" on="1"/>
        <pt x="367" y="80" on="0"/>
        <pt x="434" y="238" on="0"/>
        <pt x="434" y="377" on="1"/>
        <pt x="434" y="510" on="0"/>
        <pt x="380" y="631" on="0"/>
        <pt x="320" y="631" on="1"/>
        <pt x="259" y="631" on="0"/>
        <pt x="187" y="478" on="0"/>
        <pt x="187" y="351" on="1"/>
        <pt x="187" y="228" on="0"/>
        <pt x="249" y="80" on="0"/>
      </contour>
    </TTGlyph>
    <TTGlyph name="OE" xMin="36" yMin="-29" xMax="890" yMax="734">
      <contour>
        <pt x="889" y="1" on="1"/>
        <pt x="832" y="-9" on="0"/>
        <pt x="577" y="-28" on="0"/>
        <pt x="480" y="-29" on="1"/>
        <pt x="479" y="-23" on="0"/>
        <pt x="477" y="-10" on="0"/>
        <pt x="475" y="3" on="1"/>
        <pt x="472" y="28" on="0"/>
        <pt x="468" y="53" on="0"/>
        <pt x="467" y="64" on="1"/>
        <pt x="430" y="23" on="0"/>
        <pt x="336" y="-18" on="0"/>
        <pt x="280" y="-18" on="1"/>
        <pt x="166" y="-18" on="0"/>
        <pt x="36" y="173" on="0"/>
        <pt x="36" y="331" on="1"/>
        <pt x="36" y="511" on="0"/>
        <pt x="204" y="734" on="0"/>
        <pt x="342" y="734" on="1"/>
        <pt x="381" y="734" on="0"/>
        <pt x="447" y="713" on="0"/>
        <pt x="474" y="693" on="1"/>
        <pt x="593" y="714" on="0"/>
        <pt x="773" y="731" on="0"/>
        <pt x="865" y="732" on="1"/>
        <pt x="865" y="703" on="0"/>
        <pt x="858" y="640" on="0"/>
        <pt x="851" y="608" on="1"/>
        <pt x="780" y="608" on="0"/>
        <pt x="647" y="602" on="0"/>
        <pt x="585" y="595" on="1"/>
        <pt x="583" y="555" on="0"/>
        <pt x="581" y="460" on="0"/>
        <pt x="582" y="407" on="1"/>
        <pt x="641" y="421" on="0"/>
        <pt x="751" y="437" on="0"/>
        <pt x="809" y="439" on="1"/>
        <pt x="815" y="414" on="0"/>
        <pt x="821" y="358" on="0"/>
        <pt x="821" y="320" on="1"/>
        <pt x="748" y="317" on="0"/>
        <pt x="638" y="309" on="0"/>
        <pt x="586" y="301" on="1"/>
        <pt x="590" y="232" on="0"/>
        <pt x="599" y="133" on="0"/>
        <pt x="605" y="87" on="1"/>
        <pt x="654" y="89" on="0"/>
        <pt x="821" y="108" on="0"/>
        <pt x="876" y="119" on="1"/>
        <pt x="882" y="101" on="0"/>
        <pt x="890" y="29" on="0"/>
      </contour>
      <contour>
        <pt x="309" y="82" on="1"/>
        <pt x="366" y="82" on="0"/>
        <pt x="423" y="234" on="0"/>
        <pt x="422" y="378" on="1"/>
        <pt x="421" y="510" on="0"/>
        <pt x="368" y="633" on="0"/>
        <pt x="311" y="633" on="1"/>
        <pt x="254" y="633" on="0"/>
        <pt x="190" y="484" on="0"/>
        <pt x="190" y="352" on="1"/>
        <pt x="190" y="231" on="0"/>
        <pt x="253" y="82" on="0"/>
      </contour>
    </TTGlyph>
    <TTGlyph name="Oacute" xMin="33" yMin="-20" xMax="591" yMax="937">
      <component glyphName="O" x="0" y="0" flags="0x204"/>
      <component glyphName="acute" x="195" y="185" flags="0x4"/>
    </TTGlyph>
    <TTGlyph name="Ocircumflex" xMin="33" yMin="-20" xMax="591" yMax="925">
      <component glyphName="O" x="0" y="0" flags="0x204"/>
      <component glyphName="circumflex" x="192" y="180" flags="0x4"/>
    </TTGlyph>
    <TTGlyph name="Odieresis" xMin="33" yMin="-20" xMax="591" yMax="925">
      <component glyphName="O" x="0" y="0" flags="0x204"/>
      <component glyphName="dieresis" x="191" y="173" flags="0x4"/>
    </TTGlyph>
    <TTGlyph name="Ograve" xMin="33" yMin="-20" xMax="591" yMax="940">
      <component glyphName="O" x="0" y="0" flags="0x204"/>
      <component glyphName="grave" x="181" y="187" flags="0x4"/>
    </TTGlyph>
    <TTGlyph name="Ohungarumlaut" xMin="33" yMin="-20" xMax="591" yMax="937">
      <component glyphName="O" x="0" y="0" flags="0x204"/>
      <component glyphName="hungarumlaut" x="219" y="185" flags="0x4"/>
    </TTGlyph>
    <TTGlyph name="Omacron" xMin="33" yMin="-20" xMax="591" yMax="891">
      <component glyphName="O" x="0" y="0" flags="0x204"/>
      <component glyphName="macron" x="191" y="179" flags="0x4"/>
    </TTGlyph>
    <TTGlyph name="Oslash" xMin="33" yMin="-84" xMax="588" yMax="792">
      <contour>
        <pt x="317" y="631" on="1"/>
        <pt x="258" y="631" on="0"/>
        <pt x="188" y="479" on="0"/>
        <pt x="188" y="351" on="1"/>
        <pt x="188" y="322" on="0"/>
        <pt x="193" y="263" on="0"/>
        <pt x="197" y="235" on="1"/>
        <pt x="241" y="314" on="0"/>
        <pt x="334" y="492" on="0"/>
        <pt x="388" y="600" on="1"/>
        <pt x="375" y="615" on="0"/>
        <pt x="339" y="631" on="0"/>
      </contour>
      <contour>
        <pt x="244" y="109" on="1"/>
        <pt x="257" y="94" on="0"/>
        <pt x="286" y="80" on="0"/>
        <pt x="303" y="80" on="1"/>
        <pt x="365" y="80" on="0"/>
        <pt x="432" y="238" on="0"/>
        <pt x="432" y="377" on="1"/>
        <pt x="432" y="391" on="0"/>
        <pt x="431" y="422" on="0"/>
        <pt x="430" y="446" on="1"/>
        <pt x="388" y="365" on="0"/>
        <pt x="296" y="199" on="0"/>
      </contour>
      <contour>
        <pt x="517" y="129" on="1"/>
        <pt x="475" y="55" on="0"/>
        <pt x="352" y="-20" on="0"/>
        <pt x="274" y="-20" on="1"/>
        <pt x="248" y="-20" on="0"/>
        <pt x="202" y="-10" on="0"/>
        <pt x="181" y="0" on="1"/>
        <pt x="176" y="-8" on="0"/>
        <pt x="165" y="-28" on="0"/>
        <pt x="153" y="-48" on="1"/>
        <pt x="144" y="-63" on="0"/>
        <pt x="136" y="-78" on="0"/>
        <pt x="132" y="-84" on="1"/>
        <pt x="99" y="-73" on="0"/>
        <pt x="59" y="-50" on="0"/>
        <pt x="40" y="-31" on="1"/>
        <pt x="57" y="-4" on="0"/>
        <pt x="87" y="46" on="0"/>
        <pt x="101" y="70" on="1"/>
        <pt x="68" y="117" on="0"/>
        <pt x="33" y="250" on="0"/>
        <pt x="33" y="329" on="1"/>
        <pt x="33" y="507" on="0"/>
        <pt x="208" y="733" on="0"/>
        <pt x="348" y="733" on="1"/>
        <pt x="375" y="733" on="0"/>
        <pt x="422" y="724" on="0"/>
        <pt x="444" y="715" on="1"/>
        <pt x="450" y="728" on="0"/>
        <pt x="465" y="760" on="0"/>
        <pt x="480" y="792" on="1"/>
        <pt x="504" y="785" on="0"/>
        <pt x="555" y="754" on="0"/>
        <pt x="574" y="734" on="1"/>
        <pt x="570" y="726" on="0"/>
        <pt x="561" y="708" on="0"/>
        <pt x="553" y="689" on="1"/>
        <pt x="544" y="670" on="0"/>
        <pt x="535" y="652" on="0"/>
        <pt x="531" y="644" on="1"/>
        <pt x="559" y="604" on="0"/>
        <pt x="588" y="488" on="0"/>
        <pt x="588" y="416" on="1"/>
        <pt x="588" y="340" on="0"/>
        <pt x="551" y="187" on="0"/>
      </contour>
    </TTGlyph>
    <TTGlyph name="Otilde" xMin="33" yMin="-20" xMax="591" yMax="906">
      <component glyphName="O" x="0" y="0" flags="0x204"/>
      <component glyphName="tilde" x="192" y="167" flags="0x4"/>
    </TTGlyph>
    <TTGlyph name="P" xMin="63" yMin="-69" xMax="561" yMax="742">
      <contour>
        <pt x="212" y="219" on="1"/>
        <pt x="213" y="147" on="0"/>
        <pt x="220" y="10" on="0"/>
        <pt x="225" y="-68" on="1"/>
        <pt x="193" y="-69" on="0"/>
        <pt x="121" y="-64" on="0"/>
        <pt x="95" y="-59" on="1"/>
        <pt x="78" y="112" on="0"/>
        <pt x="63" y="389" on="0"/>
        <pt x="63" y="538" on="1"/>
        <pt x="63" y="572" on="0"/>
        <pt x="67" y="657" on="0"/>
        <pt x="70" y="696" on="1"/>
        <pt x="122" y="718" on="0"/>
        <pt x="247" y="742" on="0"/>
        <pt x="306" y="742" on="1"/>
        <pt x="428" y="742" on="0"/>
        <pt x="561" y="639" on="0"/>
        <pt x="561" y="547" on="1"/>
        <pt x="561" y="438" on="0"/>
        <pt x="380" y="268" on="0"/>
      </contour>
      <contour>
        <pt x="406" y="521" on="1"/>
        <pt x="406" y="584" on="0"/>
        <pt x="342" y="653" on="0"/>
        <pt x="281" y="653" on="1"/>
        <pt x="268" y="653" on="0"/>
        <pt x="242" y="650" on="0"/>
        <pt x="229" y="647" on="1"/>
        <pt x="222" y="568" on="0"/>
        <pt x="214" y="407" on="0"/>
        <pt x="212" y="320" on="1"/>
        <pt x="309" y="344" on="0"/>
        <pt x="406" y="445" on="0"/>
      </contour>
    </TTGlyph>
    <TTGlyph name="Q" xMin="34" yMin="-119" xMax="618" yMax="673">
      <contour>
        <pt x="618" y="-28" on="1"/>
        <pt x="609" y="-52" on="0"/>
        <pt x="567" y="-97" on="0"/>
        <pt x="533" y="-119" on="1"/>
        <pt x="506" y="-79" on="0"/>
        <pt x="459" y="-16" on="0"/>
        <pt x="437" y="11" on="1"/>
        <pt x="402" y="-14" on="0"/>
        <pt x="319" y="-40" on="0"/>
        <pt x="272" y="-40" on="1"/>
        <pt x="161" y="-40" on="0"/>
        <pt x="34" y="130" on="0"/>
        <pt x="34" y="274" on="1"/>
        <pt x="34" y="448" on="0"/>
        <pt x="213" y="673" on="0"/>
        <pt x="349" y="673" on="1"/>
        <pt x="468" y="673" on="0"/>
        <pt x="594" y="519" on="0"/>
        <pt x="594" y="373" on="1"/>
        <pt x="594" y="295" on="0"/>
        <pt x="550" y="142" on="0"/>
        <pt x="511" y="86" on="1"/>
        <pt x="537" y="63" on="0"/>
        <pt x="590" y="6" on="0"/>
      </contour>
      <contour>
        <pt x="189" y="296" on="1"/>
        <pt x="189" y="190" on="0"/>
        <pt x="248" y="60" on="0"/>
        <pt x="300" y="60" on="1"/>
        <pt x="320" y="60" on="0"/>
        <pt x="353" y="74" on="0"/>
        <pt x="367" y="88" on="1"/>
        <pt x="351" y="104" on="0"/>
        <pt x="316" y="137" on="0"/>
        <pt x="296" y="154" on="1"/>
        <pt x="306" y="173" on="0"/>
        <pt x="331" y="199" on="0"/>
        <pt x="346" y="207" on="1"/>
        <pt x="363" y="197" on="0"/>
        <pt x="396" y="176" on="0"/>
        <pt x="412" y="165" on="1"/>
        <pt x="424" y="200" on="0"/>
        <pt x="437" y="286" on="0"/>
        <pt x="437" y="333" on="1"/>
        <pt x="437" y="456" on="0"/>
        <pt x="385" y="571" on="0"/>
        <pt x="329" y="571" on="1"/>
        <pt x="265" y="571" on="0"/>
        <pt x="189" y="421" on="0"/>
      </contour>
    </TTGlyph>
    <TTGlyph name="R" xMin="59" yMin="-44" xMax="601" yMax="770">
      <contour>
        <pt x="601" y="28" on="1"/>
        <pt x="577" y="5" on="0"/>
        <pt x="507" y="-33" on="0"/>
        <pt x="466" y="-44" on="1"/>
        <pt x="407" y="93" on="0"/>
        <pt x="334" y="233" on="0"/>
        <pt x="292" y="293" on="1"/>
        <pt x="267" y="284" on="0"/>
        <pt x="242" y="276" on="0"/>
        <pt x="231" y="273" on="1"/>
        <pt x="228" y="194" on="0"/>
        <pt x="220" y="56" on="0"/>
        <pt x="214" y="-6" on="1"/>
        <pt x="184" y="-7" on="0"/>
        <pt x="112" y="-2" on="0"/>
        <pt x="85" y="2" on="1"/>
        <pt x="88" y="56" on="0"/>
        <pt x="90" y="128" on="0"/>
        <pt x="90" y="164" on="1"/>
        <pt x="90" y="298" on="0"/>
        <pt x="76" y="540" on="0"/>
        <pt x="59" y="692" on="1"/>
        <pt x="105" y="728" on="0"/>
        <pt x="231" y="770" on="0"/>
        <pt x="292" y="770" on="1"/>
        <pt x="410" y="770" on="0"/>
        <pt x="541" y="661" on="0"/>
        <pt x="541" y="566" on="1"/>
        <pt x="541" y="500" on="0"/>
        <pt x="472" y="390" on="0"/>
        <pt x="405" y="347" on="1"/>
        <pt x="456" y="289" on="0"/>
        <pt x="551" y="134" on="0"/>
      </contour>
      <contour>
        <pt x="223" y="672" on="1"/>
        <pt x="228" y="569" on="0"/>
        <pt x="232" y="448" on="0"/>
        <pt x="232" y="394" on="1"/>
        <pt x="232" y="387" on="0"/>
        <pt x="232" y="374" on="0"/>
        <pt x="232" y="367" on="1"/>
        <pt x="311" y="389" on="0"/>
        <pt x="387" y="478" on="0"/>
        <pt x="387" y="549" on="1"/>
        <pt x="387" y="611" on="0"/>
        <pt x="328" y="680" on="0"/>
        <pt x="273" y="680" on="1"/>
        <pt x="261" y="680" on="0"/>
        <pt x="236" y="676" on="0"/>
      </contour>
    </TTGlyph>
    <TTGlyph name="Racute" xMin="59" yMin="-44" xMax="601" yMax="982">
      <component glyphName="R" x="0" y="0" flags="0x204"/>
      <component glyphName="acute" x="169" y="230" flags="0x4"/>
    </TTGlyph>
    <TTGlyph name="Rcaron" xMin="59" yMin="-44" xMax="601" yMax="979">
      <component glyphName="R" x="0" y="0" flags="0x204"/>
      <component glyphName="caron" x="160" y="234" flags="0x4"/>
    </TTGlyph>
    <TTGlyph name="S" xMin="10" yMin="-40" xMax="513" yMax="767">
      <contour>
        <pt x="447" y="319" on="1"/>
        <pt x="468" y="288" on="0"/>
        <pt x="489" y="218" on="0"/>
        <pt x="489" y="177" on="1"/>
        <pt x="489" y="83" on="0"/>
        <pt x="358" y="-40" on="0"/>
        <pt x="261" y="-40" on="1"/>
        <pt x="150" y="-40" on="0"/>
        <pt x="10" y="108" on="0"/>
        <pt x="10" y="215" on="1"/>
        <pt x="34" y="227" on="0"/>
        <pt x="103" y="245" on="0"/>
        <pt x="129" y="246" on="1"/>
        <pt x="129" y="157" on="0"/>
        <pt x="192" y="53" on="0"/>
        <pt x="248" y="53" on="1"/>
        <pt x="290" y="53" on="0"/>
        <pt x="337" y="103" on="0"/>
        <pt x="337" y="146" on="1"/>
        <pt x="337" y="185" on="0"/>
        <pt x="294" y="252" on="0"/>
        <pt x="221" y="307" on="1"/>
        <pt x="172" y="344" on="0"/>
        <pt x="126" y="389" on="0"/>
        <pt x="110" y="411" on="1"/>
        <pt x="88" y="443" on="0"/>
        <pt x="66" y="515" on="0"/>
        <pt x="66" y="556" on="1"/>
        <pt x="66" y="651" on="0"/>
        <pt x="190" y="767" on="0"/>
        <pt x="293" y="767" on="1"/>
        <pt x="385" y="767" on="0"/>
        <pt x="494" y="672" on="0"/>
        <pt x="513" y="573" on="1"/>
        <pt x="491" y="558" on="0"/>
        <pt x="432" y="543" on="0"/>
        <pt x="388" y="540" on="1"/>
        <pt x="378" y="609" on="0"/>
        <pt x="333" y="669" on="0"/>
        <pt x="290" y="669" on="1"/>
        <pt x="257" y="669" on="0"/>
        <pt x="220" y="626" on="0"/>
        <pt x="220" y="588" on="1"/>
        <pt x="220" y="546" on="0"/>
        <pt x="264" y="476" on="0"/>
        <pt x="338" y="421" on="1"/>
        <pt x="387" y="384" on="0"/>
        <pt x="431" y="341" on="0"/>
      </contour>
    </TTGlyph>
    <TTGlyph name="Sacute" xMin="10" yMin="-40" xMax="513" yMax="975">
      <component glyphName="S" x="0" y="0" flags="0x204"/>
      <component glyphName="acute" x="191" y="223" flags="0x4"/>
    </TTGlyph>
    <TTGlyph name="Scaron" xMin="10" yMin="-40" xMax="513" yMax="965">
      <component glyphName="S" x="0" y="0" flags="0x204"/>
      <component glyphName="caron" x="176" y="220" flags="0x4"/>
    </TTGlyph>
    <TTGlyph name="T" xMin="15" yMin="23" xMax="563" yMax="792">
      <contour>
        <pt x="384" y="40" on="1"/>
        <pt x="354" y="32" on="0"/>
        <pt x="288" y="24" on="0"/>
        <pt x="246" y="23" on="1"/>
        <pt x="248" y="164" on="0"/>
        <pt x="232" y="513" on="0"/>
        <pt x="215" y="647" on="1"/>
        <pt x="185" y="644" on="0"/>
        <pt x="111" y="636" on="0"/>
        <pt x="35" y="627" on="1"/>
        <pt x="25" y="656" on="0"/>
        <pt x="15" y="713" on="0"/>
        <pt x="16" y="738" on="1"/>
        <pt x="160" y="767" on="0"/>
        <pt x="402" y="791" on="0"/>
        <pt x="554" y="792" on="1"/>
        <pt x="558" y="779" on="0"/>
        <pt x="563" y="746" on="0"/>
        <pt x="563" y="727" on="1"/>
        <pt x="563" y="714" on="0"/>
        <pt x="560" y="686" on="0"/>
        <pt x="556" y="663" on="1"/>
        <pt x="522" y="663" on="0"/>
        <pt x="447" y="661" on="0"/>
        <pt x="381" y="659" on="1"/>
        <pt x="389" y="576" on="0"/>
        <pt x="396" y="399" on="0"/>
        <pt x="396" y="302" on="1"/>
        <pt x="396" y="251" on="0"/>
        <pt x="391" y="130" on="0"/>
      </contour>
    </TTGlyph>
    <TTGlyph name="Tcaron" xMin="15" yMin="23" xMax="563" yMax="986">
      <component glyphName="T" x="0" y="0" flags="0x204"/>
      <component glyphName="caron" x="157" y="241" flags="0x4"/>
    </TTGlyph>
    <TTGlyph name="Thorn" xMin="61" yMin="-69" xMax="560" yMax="709">
      <contour>
        <pt x="214" y="72" on="1"/>
        <pt x="215" y="55" on="0"/>
        <pt x="217" y="15" on="0"/>
        <pt x="222" y="-68" on="1"/>
        <pt x="190" y="-69" on="0"/>
        <pt x="119" y="-64" on="0"/>
        <pt x="93" y="-59" on="1"/>
        <pt x="76" y="112" on="0"/>
        <pt x="61" y="389" on="0"/>
        <pt x="61" y="538" on="1"/>
        <pt x="61" y="573" on="0"/>
        <pt x="65" y="665" on="0"/>
        <pt x="68" y="703" on="1"/>
        <pt x="109" y="709" on="0"/>
        <pt x="194" y="703" on="0"/>
        <pt x="230" y="693" on="1"/>
        <pt x="227" y="667" on="0"/>
        <pt x="223" y="614" on="0"/>
        <pt x="221" y="588" on="1"/>
        <pt x="242" y="591" on="0"/>
        <pt x="284" y="594" on="0"/>
        <pt x="305" y="594" on="1"/>
        <pt x="427" y="594" on="0"/>
        <pt x="560" y="491" on="0"/>
        <pt x="560" y="399" on="1"/>
        <pt x="560" y="290" on="0"/>
        <pt x="380" y="121" on="0"/>
      </contour>
      <contour>
        <pt x="215" y="496" on="1"/>
        <pt x="212" y="438" on="0"/>
        <pt x="209" y="324" on="0"/>
        <pt x="209" y="268" on="1"/>
        <pt x="209" y="228" on="0"/>
        <pt x="209" y="188" on="0"/>
        <pt x="210" y="171" on="1"/>
        <pt x="307" y="195" on="0"/>
        <pt x="405" y="297" on="0"/>
        <pt x="405" y="373" on="1"/>
        <pt x="405" y="436" on="0"/>
        <pt x="341" y="505" on="0"/>
        <pt x="280" y="505" on="1"/>
        <pt x="266" y="505" on="0"/>
        <pt x="235" y="501" on="0"/>
      </contour>
    </TTGlyph>
    <TTGlyph name="U" xMin="43" yMin="-80" xMax="539" yMax="709">
      <contour>
        <pt x="497" y="709" on="1"/>
        <pt x="520" y="611" on="0"/>
        <pt x="539" y="462" on="0"/>
        <pt x="539" y="394" on="1"/>
        <pt x="539" y="159" on="0"/>
        <pt x="398" y="-80" on="0"/>
        <pt x="258" y="-80" on="1"/>
        <pt x="151" y="-80" on="0"/>
        <pt x="43" y="95" on="0"/>
        <pt x="43" y="268" on="1"/>
        <pt x="43" y="366" on="0"/>
        <pt x="76" y="578" on="0"/>
        <pt x="96" y="624" on="1"/>
        <pt x="112" y="628" on="0"/>
        <pt x="154" y="634" on="0"/>
        <pt x="173" y="634" on="1"/>
        <pt x="194" y="634" on="0"/>
        <pt x="227" y="628" on="0"/>
        <pt x="238" y="623" on="1"/>
        <pt x="221" y="541" on="0"/>
        <pt x="204" y="375" on="0"/>
        <pt x="204" y="300" on="1"/>
        <pt x="204" y="160" on="0"/>
        <pt x="243" y="21" on="0"/>
        <pt x="282" y="21" on="1"/>
        <pt x="329" y="21" on="0"/>
        <pt x="382" y="191" on="0"/>
        <pt x="382" y="338" on="1"/>
        <pt x="382" y="420" on="0"/>
        <pt x="360" y="592" on="0"/>
        <pt x="338" y="681" on="1"/>
        <pt x="368" y="693" on="0"/>
        <pt x="456" y="708" on="0"/>
      </contour>
    </TTGlyph>
    <TTGlyph name="Uacute" xMin="43" yMin="-80" xMax="539" yMax="880">
      <component glyphName="U" x="0" y="0" flags="0x204"/>
      <component glyphName="acute" x="154" y="128" flags="0x4"/>
    </TTGlyph>
    <TTGlyph name="Ucircumflex" xMin="43" yMin="-80" xMax="539" yMax="894">
      <component glyphName="U" x="0" y="0" flags="0x204"/>
      <component glyphName="circumflex" x="149" y="149" flags="0x4"/>
    </TTGlyph>
    <TTGlyph name="Udieresis" xMin="43" yMin="-80" xMax="539" yMax="889">
      <component glyphName="U" x="0" y="0" flags="0x204"/>
      <component glyphName="dieresis" x="159" y="137" flags="0x4"/>
    </TTGlyph>
    <TTGlyph name="Ugrave" xMin="43" yMin="-80" xMax="539" yMax="882">
      <component glyphName="U" x="0" y="0" flags="0x204"/>
      <component glyphName="grave" x="101" y="129" flags="0x4"/>
    </TTGlyph>
    <TTGlyph name="Uhungarumlaut" xMin="43" yMin="-80" xMax="539" yMax="902">
      <component glyphName="U" x="0" y="0" flags="0x204"/>
      <component glyphName="hungarumlaut" x="152" y="150" flags="0x4"/>
    </TTGlyph>
    <TTGlyph name="Umacron" xMin="43" yMin="-80" xMax="539" yMax="808">
      <component glyphName="U" x="0" y="0" flags="0x204"/>
      <component glyphName="macron" x="130" y="96" flags="0x4"/>
    </TTGlyph>
    <TTGlyph name="Uogonek" xMin="43" yMin="-284" xMax="539" yMax="709">
      <contour>
        <pt x="388" y="-226" on="1"/>
        <pt x="368" y="-255" on="0"/>
        <pt x="311" y="-284" on="0"/>
        <pt x="275" y="-284" on="1"/>
        <pt x="230" y="-284" on="0"/>
        <pt x="178" y="-239" on="0"/>
        <pt x="178" y="-200" on="1"/>
        <pt x="178" y="-170" on="0"/>
        <pt x="215" y="-108" on="0"/>
        <pt x="251" y="-80" on="1"/>
        <pt x="148" y="-77" on="0"/>
        <pt x="43" y="98" on="0"/>
        <pt x="43" y="268" on="1"/>
        <pt x="43" y="366" on="0"/>
        <pt x="76" y="578" on="0"/>
        <pt x="96" y="624" on="1"/>
        <pt x="112" y="628" on="0"/>
        <pt x="154" y="634" on="0"/>
        <pt x="173" y="634" on="1"/>
        <pt x="194" y="634" on="0"/>
        <pt x="227" y="628" on="0"/>
        <pt x="238" y="623" on="1"/>
        <pt x="221" y="541" on="0"/>
        <pt x="204" y="375" on="0"/>
        <pt x="204" y="300" on="1"/>
        <pt x="204" y="160" on="0"/>
        <pt x="243" y="21" on="0"/>
        <pt x="282" y="21" on="1"/>
        <pt x="329" y="21" on="0"/>
        <pt x="382" y="191" on="0"/>
        <pt x="382" y="338" on="1"/>
        <pt x="382" y="420" on="0"/>
        <pt x="360" y="592" on="0"/>
        <pt x="338" y="681" on="1"/>
        <pt x="368" y="693" on="0"/>
        <pt x="456" y="708" on="0"/>
        <pt x="497" y="709" on="1"/>
        <pt x="520" y="611" on="0"/>
        <pt x="539" y="462" on="0"/>
        <pt x="539" y="394" on="1"/>
        <pt x="539" y="205" on="0"/>
        <pt x="452" y="-18" on="0"/>
        <pt x="361" y="-63" on="1"/>
        <pt x="319" y="-84" on="0"/>
        <pt x="268" y="-149" on="0"/>
        <pt x="268" y="-179" on="1"/>
        <pt x="268" y="-197" on="0"/>
        <pt x="285" y="-218" on="0"/>
        <pt x="299" y="-218" on="1"/>
        <pt x="315" y="-218" on="0"/>
        <pt x="343" y="-198" on="0"/>
        <pt x="356" y="-176" on="1"/>
        <pt x="365" y="-183" on="0"/>
        <pt x="380" y="-208" on="0"/>
      </contour>
    </TTGlyph>
    <TTGlyph name="Uring" xMin="43" yMin="-80" xMax="539" yMax="894">
      <component glyphName="U" x="0" y="0" flags="0x204"/>
      <component glyphName="ring" x="139" y="126" flags="0x4"/>
    </TTGlyph>
    <TTGlyph name="V" xMin="9" yMin="-96" xMax="583" yMax="765">
      <contour>
        <pt x="583" y="737" on="1"/>
        <pt x="556" y="524" on="0"/>
        <pt x="436" y="123" on="0"/>
        <pt x="338" y="-80" on="1"/>
        <pt x="317" y="-88" on="0"/>
        <pt x="253" y="-96" on="0"/>
        <pt x="212" y="-96" on="1"/>
        <pt x="141" y="74" on="0"/>
        <pt x="40" y="425" on="0"/>
        <pt x="9" y="603" on="1"/>
        <pt x="43" y="618" on="0"/>
        <pt x="123" y="635" on="0"/>
        <pt x="169" y="637" on="1"/>
        <pt x="189" y="473" on="0"/>
        <pt x="253" y="181" on="0"/>
        <pt x="293" y="69" on="1"/>
        <pt x="348" y="214" on="0"/>
        <pt x="423" y="554" on="0"/>
        <pt x="446" y="765" on="1"/>
        <pt x="483" y="763" on="0"/>
        <pt x="552" y="749" on="0"/>
      </contour>
    </TTGlyph>
    <TTGlyph name="W" xMin="3" yMin="-74" xMax="858" yMax="710">
      <contour>
        <pt x="428" y="354" on="1"/>
        <pt x="403" y="237" on="0"/>
        <pt x="343" y="40" on="0"/>
        <pt x="305" y="-55" on="1"/>
        <pt x="279" y="-63" on="0"/>
        <pt x="215" y="-73" on="0"/>
        <pt x="184" y="-74" on="1"/>
        <pt x="114" y="128" on="0"/>
        <pt x="31" y="460" on="0"/>
        <pt x="3" y="644" on="1"/>
        <pt x="46" y="657" on="0"/>
        <pt x="127" y="671" on="0"/>
        <pt x="169" y="672" on="1"/>
        <pt x="179" y="547" on="0"/>
        <pt x="226" y="283" on="0"/>
        <pt x="267" y="124" on="1"/>
        <pt x="302" y="236" on="0"/>
        <pt x="349" y="438" on="0"/>
        <pt x="367" y="555" on="1"/>
        <pt x="405" y="564" on="0"/>
        <pt x="492" y="574" on="0"/>
        <pt x="526" y="574" on="1"/>
        <pt x="540" y="445" on="0"/>
        <pt x="570" y="253" on="0"/>
        <pt x="591" y="158" on="1"/>
        <pt x="643" y="301" on="0"/>
        <pt x="706" y="569" on="0"/>
        <pt x="721" y="710" on="1"/>
        <pt x="761" y="707" on="0"/>
        <pt x="830" y="683" on="0"/>
        <pt x="858" y="661" on="1"/>
        <pt x="826" y="481" on="0"/>
        <pt x="705" y="135" on="0"/>
        <pt x="618" y="-24" on="1"/>
        <pt x="596" y="-28" on="0"/>
        <pt x="542" y="-35" on="0"/>
        <pt x="509" y="-37" on="1"/>
        <pt x="457" y="175" on="0"/>
        <pt x="434" y="300" on="0"/>
      </contour>
    </TTGlyph>
    <TTGlyph name="X" xMin="4" yMin="-44" xMax="620" yMax="782">
      <contour>
        <pt x="602" y="28" on="1"/>
        <pt x="586" y="11" on="0"/>
        <pt x="532" y="-26" on="0"/>
        <pt x="495" y="-44" on="1"/>
        <pt x="452" y="51" on="0"/>
        <pt x="371" y="213" on="0"/>
        <pt x="331" y="285" on="1"/>
        <pt x="255" y="193" on="0"/>
        <pt x="142" y="66" on="0"/>
        <pt x="83" y="6" on="1"/>
        <pt x="63" y="19" on="0"/>
        <pt x="17" y="63" on="0"/>
        <pt x="4" y="82" on="1"/>
        <pt x="134" y="232" on="0"/>
        <pt x="225" y="344" on="0"/>
        <pt x="264" y="397" on="1"/>
        <pt x="214" y="477" on="0"/>
        <pt x="103" y="623" on="0"/>
        <pt x="38" y="694" on="1"/>
        <pt x="72" y="724" on="0"/>
        <pt x="147" y="770" on="0"/>
        <pt x="181" y="782" on="1"/>
        <pt x="235" y="711" on="0"/>
        <pt x="325" y="580" on="0"/>
        <pt x="365" y="516" on="1"/>
        <pt x="412" y="584" on="0"/>
        <pt x="484" y="701" on="0"/>
        <pt x="515" y="759" on="1"/>
        <pt x="543" y="745" on="0"/>
        <pt x="601" y="696" on="0"/>
        <pt x="620" y="669" on="1"/>
        <pt x="579" y="604" on="0"/>
        <pt x="484" y="474" on="0"/>
        <pt x="429" y="404" on="1"/>
        <pt x="474" y="323" on="0"/>
        <pt x="559" y="139" on="0"/>
      </contour>
    </TTGlyph>
    <TTGlyph name="Y" xMin="3" yMin="-94" xMax="526" yMax="733">
      <contour>
        <pt x="526" y="670" on="1"/>
        <pt x="457" y="404" on="0"/>
        <pt x="310" y="54" on="0"/>
        <pt x="210" y="-94" on="1"/>
        <pt x="179" y="-87" on="0"/>
        <pt x="113" y="-57" on="0"/>
        <pt x="93" y="-42" on="1"/>
        <pt x="131" y="17" on="0"/>
        <pt x="195" y="132" on="0"/>
        <pt x="221" y="190" on="1"/>
        <pt x="145" y="287" on="0"/>
        <pt x="39" y="527" on="0"/>
        <pt x="3" y="685" on="1"/>
        <pt x="35" y="707" on="0"/>
        <pt x="109" y="731" on="0"/>
        <pt x="154" y="733" on="1"/>
        <pt x="173" y="615" on="0"/>
        <pt x="233" y="428" on="0"/>
        <pt x="280" y="336" on="1"/>
        <pt x="309" y="419" on="0"/>
        <pt x="356" y="607" on="0"/>
        <pt x="375" y="723" on="1"/>
        <pt x="421" y="716" on="0"/>
        <pt x="494" y="690" on="0"/>
      </contour>
    </TTGlyph>
    <TTGlyph name="Yacute" xMin="3" yMin="-94" xMax="526" yMax="920">
      <component glyphName="Y" x="0" y="0" flags="0x204"/>
      <component glyphName="acute" x="161" y="168" flags="0x4"/>
    </TTGlyph>
    <TTGlyph name="Ydieresis" xMin="3" yMin="-94" xMax="526" yMax="919">
      <component glyphName="Y" x="0" y="0" flags="0x204"/>
      <component glyphName="dieresis" x="158" y="167" flags="0x4"/>
    </TTGlyph>
    <TTGlyph name="Z" xMin="15" yMin="-35" xMax="571" yMax="741">
      <contour>
        <pt x="540" y="109" on="1"/>
        <pt x="540" y="67" on="0"/>
        <pt x="527" y="-6" on="0"/>
        <pt x="514" y="-35" on="1"/>
        <pt x="399" y="-34" on="0"/>
        <pt x="123" y="-11" on="0"/>
        <pt x="15" y="6" on="1"/>
        <pt x="15" y="42" on="0"/>
        <pt x="22" y="104" on="0"/>
        <pt x="28" y="125" on="1"/>
        <pt x="148" y="248" on="0"/>
        <pt x="322" y="463" on="0"/>
        <pt x="390" y="573" on="1"/>
        <pt x="316" y="577" on="0"/>
        <pt x="162" y="594" on="0"/>
        <pt x="65" y="608" on="1"/>
        <pt x="65" y="649" on="0"/>
        <pt x="80" y="711" on="0"/>
        <pt x="97" y="741" on="1"/>
        <pt x="218" y="718" on="0"/>
        <pt x="457" y="678" on="0"/>
        <pt x="571" y="661" on="1"/>
        <pt x="563" y="601" on="0"/>
        <pt x="555" y="564" on="0"/>
        <pt x="550" y="553" on="1"/>
        <pt x="483" y="455" on="0"/>
        <pt x="293" y="232" on="0"/>
        <pt x="163" y="98" on="1"/>
        <pt x="263" y="95" on="0"/>
        <pt x="446" y="100" on="0"/>
      </contour>
    </TTGlyph>
    <TTGlyph name="Zacute" xMin="15" yMin="-35" xMax="571" yMax="929">
      <component glyphName="Z" x="0" y="0" flags="0x204"/>
      <component glyphName="acute" x="245" y="177" flags="0x4"/>
    </TTGlyph>
    <TTGlyph name="Zcaron" xMin="15" yMin="-35" xMax="571" yMax="919">
      <component glyphName="Z" x="0" y="0" flags="0x204"/>
      <component glyphName="caron" x="219" y="174" flags="0x4"/>
    </TTGlyph>
    <TTGlyph name="Zdotaccent" xMin="15" yMin="-35" xMax="571" yMax="911">
      <component glyphName="Z" x="0" y="0" flags="0x204"/>
      <component glyphName="dotaccent" x="231" y="159" flags="0x4"/>
    </TTGlyph>
    <TTGlyph name="a" xMin="25" yMin="-35" xMax="466" yMax="552">
      <contour>
        <pt x="466" y="351" on="1"/>
        <pt x="466" y="287" on="0"/>
        <pt x="431" y="68" on="0"/>
        <pt x="405" y="-35" on="1"/>
        <pt x="376" y="-35" on="0"/>
        <pt x="314" y="-28" on="0"/>
        <pt x="288" y="-21" on="1"/>
        <pt x="292" y="0" on="0"/>
        <pt x="295" y="20" on="0"/>
        <pt x="297" y="28" on="1"/>
        <pt x="276" y="16" on="0"/>
        <pt x="224" y="4" on="0"/>
        <pt x="195" y="4" on="1"/>
        <pt x="118" y="4" on="0"/>
        <pt x="25" y="83" on="0"/>
        <pt x="25" y="149" on="1"/>
        <pt x="25" y="218" on="0"/>
        <pt x="138" y="287" on="0"/>
        <pt x="250" y="287" on="1"/>
        <pt x="271" y="287" on="0"/>
        <pt x="304" y="286" on="0"/>
        <pt x="322" y="285" on="1"/>
        <pt x="322" y="289" on="0"/>
        <pt x="322" y="296" on="0"/>
        <pt x="322" y="300" on="1"/>
        <pt x="322" y="391" on="0"/>
        <pt x="292" y="469" on="0"/>
        <pt x="259" y="469" on="1"/>
        <pt x="226" y="469" on="0"/>
        <pt x="180" y="397" on="0"/>
        <pt x="179" y="342" on="1"/>
        <pt x="130" y="343" on="0"/>
        <pt x="66" y="380" on="0"/>
        <pt x="52" y="413" on="1"/>
        <pt x="68" y="471" on="0"/>
        <pt x="192" y="552" on="0"/>
        <pt x="273" y="552" on="1"/>
        <pt x="368" y="552" on="0"/>
        <pt x="466" y="450" on="0"/>
      </contour>
      <contour>
        <pt x="175" y="140" on="1"/>
        <pt x="175" y="111" on="0"/>
        <pt x="208" y="79" on="0"/>
        <pt x="238" y="79" on="1"/>
        <pt x="257" y="79" on="0"/>
        <pt x="291" y="89" on="0"/>
        <pt x="308" y="99" on="1"/>
        <pt x="313" y="135" on="0"/>
        <pt x="319" y="193" on="0"/>
        <pt x="320" y="220" on="1"/>
        <pt x="247" y="221" on="0"/>
        <pt x="175" y="182" on="0"/>
      </contour>
    </TTGlyph>
    <TTGlyph name="aacute" xMin="25" yMin="-35" xMax="466" yMax="765">
      <component glyphName="a" x="0" y="0" flags="0x204"/>
      <component glyphName="acute" x="177" y="13" flags="0x4"/>
    </TTGlyph>
    <TTGlyph name="abreve" xMin="25" yMin="-35" xMax="466" yMax="724">
      <component glyphName="a" x="0" y="0" flags="0x204"/>
      <component glyphName="breve" x="154" y="-16" flags="0x4"/>
    </TTGlyph>
    <TTGlyph name="acircumflex" xMin="25" yMin="-35" xMax="466" yMax="750">
      <component glyphName="a" x="0" y="0" flags="0x204"/>
      <component glyphName="circumflex" x="165" y="5" flags="0x4"/>
    </TTGlyph>
    <TTGlyph name="acute" xMin="49" yMin="571" xMax="206" yMax="752">
      <contour>
        <pt x="206" y="737" on="1"/>
        <pt x="200" y="696" on="0"/>
        <pt x="166" y="615" on="0"/>
        <pt x="137" y="571" on="1"/>
        <pt x="111" y="571" on="0"/>
        <pt x="69" y="576" on="0"/>
        <pt x="49" y="582" on="1"/>
        <pt x="64" y="625" on="0"/>
        <pt x="81" y="708" on="0"/>
        <pt x="83" y="747" on="1"/>
        <pt x="113" y="752" on="0"/>
        <pt x="181" y="747" on="0"/>
      </contour>
    </TTGlyph>
    <TTGlyph name="adieresis" xMin="25" yMin="-35" xMax="485" yMax="738">
      <component glyphName="a" x="0" y="0" flags="0x204"/>
      <component glyphName="dieresis" x="165" y="-14" flags="0x4"/>
    </TTGlyph>
    <TTGlyph name="ae" xMin="25" yMin="-39" xMax="745" yMax="529">
      <contour>
        <pt x="474" y="309" on="1"/>
        <pt x="494" y="303" on="0"/>
        <pt x="536" y="297" on="0"/>
        <pt x="554" y="297" on="1"/>
        <pt x="561" y="297" on="0"/>
        <pt x="585" y="299" on="0"/>
        <pt x="591" y="300" on="1"/>
        <pt x="598" y="328" on="0"/>
        <pt x="605" y="371" on="0"/>
        <pt x="605" y="389" on="1"/>
        <pt x="605" y="420" on="0"/>
        <pt x="587" y="447" on="0"/>
        <pt x="567" y="447" on="1"/>
        <pt x="539" y="447" on="0"/>
        <pt x="489" y="372" on="0"/>
      </contour>
      <contour>
        <pt x="637" y="160" on="1"/>
        <pt x="666" y="155" on="0"/>
        <pt x="726" y="123" on="0"/>
        <pt x="745" y="103" on="1"/>
        <pt x="728" y="48" on="0"/>
        <pt x="597" y="-39" on="0"/>
        <pt x="514" y="-39" on="1"/>
        <pt x="466" y="-39" on="0"/>
        <pt x="385" y="5" on="0"/>
        <pt x="358" y="46" on="1"/>
        <pt x="321" y="13" on="0"/>
        <pt x="240" y="-18" on="0"/>
        <pt x="192" y="-18" on="1"/>
        <pt x="116" y="-18" on="0"/>
        <pt x="25" y="60" on="0"/>
        <pt x="25" y="125" on="1"/>
        <pt x="25" y="194" on="0"/>
        <pt x="139" y="265" on="0"/>
        <pt x="250" y="265" on="1"/>
        <pt x="272" y="265" on="0"/>
        <pt x="306" y="264" on="0"/>
        <pt x="322" y="263" on="1"/>
        <pt x="323" y="276" on="0"/>
        <pt x="322" y="312" on="0"/>
        <pt x="322" y="315" on="1"/>
        <pt x="320" y="384" on="0"/>
        <pt x="291" y="446" on="0"/>
        <pt x="259" y="446" on="1"/>
        <pt x="226" y="446" on="0"/>
        <pt x="180" y="375" on="0"/>
        <pt x="179" y="319" on="1"/>
        <pt x="130" y="320" on="0"/>
        <pt x="66" y="357" on="0"/>
        <pt x="52" y="390" on="1"/>
        <pt x="68" y="448" on="0"/>
        <pt x="195" y="529" on="0"/>
        <pt x="273" y="529" on="1"/>
        <pt x="322" y="529" on="0"/>
        <pt x="393" y="488" on="0"/>
        <pt x="415" y="447" on="1"/>
        <pt x="452" y="487" on="0"/>
        <pt x="538" y="528" on="0"/>
        <pt x="584" y="528" on="1"/>
        <pt x="653" y="528" on="0"/>
        <pt x="738" y="445" on="0"/>
        <pt x="738" y="379" on="1"/>
        <pt x="738" y="346" on="0"/>
        <pt x="725" y="271" on="0"/>
        <pt x="715" y="243" on="1"/>
        <pt x="688" y="231" on="0"/>
        <pt x="612" y="220" on="0"/>
        <pt x="557" y="220" on="1"/>
        <pt x="534" y="220" on="0"/>
        <pt x="486" y="226" on="0"/>
        <pt x="462" y="232" on="1"/>
        <pt x="461" y="216" on="0"/>
        <pt x="460" y="200" on="0"/>
        <pt x="460" y="193" on="1"/>
        <pt x="460" y="126" on="0"/>
        <pt x="501" y="48" on="0"/>
        <pt x="538" y="48" on="1"/>
        <pt x="565" y="48" on="0"/>
        <pt x="624" y="117" on="0"/>
      </contour>
      <contour>
        <pt x="175" y="116" on="1"/>
        <pt x="175" y="87" on="0"/>
        <pt x="206" y="56" on="0"/>
        <pt x="235" y="56" on="1"/>
        <pt x="257" y="56" on="0"/>
        <pt x="309" y="75" on="0"/>
        <pt x="335" y="92" on="1"/>
        <pt x="326" y="115" on="0"/>
        <pt x="317" y="166" on="0"/>
        <pt x="317" y="193" on="1"/>
        <pt x="317" y="194" on="0"/>
        <pt x="317" y="197" on="0"/>
        <pt x="317" y="198" on="1"/>
        <pt x="246" y="199" on="0"/>
        <pt x="175" y="158" on="0"/>
      </contour>
    </TTGlyph>
    <TTGlyph name="agrave" xMin="25" yMin="-35" xMax="466" yMax="764">
      <component glyphName="a" x="0" y="0" flags="0x204"/>
      <component glyphName="grave" x="134" y="11" flags="0x4"/>
    </TTGlyph>
    <TTGlyph name="amacron" xMin="25" yMin="-35" xMax="466" yMax="693">
      <component glyphName="a" x="0" y="0" flags="0x204"/>
      <component glyphName="macron" x="151" y="-19" flags="0x4"/>
    </TTGlyph>
    <TTGlyph name="ampersand" xMin="40" yMin="-69" xMax="790" yMax="722">
      <contour>
        <pt x="790" y="39" on="1"/>
        <pt x="778" y="5" on="0"/>
        <pt x="735" y="-49" on="0"/>
        <pt x="706" y="-69" on="1"/>
        <pt x="672" y="-56" on="0"/>
        <pt x="603" y="-25" on="0"/>
        <pt x="568" y="-7" on="1"/>
        <pt x="524" y="-37" on="0"/>
        <pt x="413" y="-67" on="0"/>
        <pt x="349" y="-67" on="1"/>
        <pt x="210" y="-67" on="0"/>
        <pt x="40" y="72" on="0"/>
        <pt x="40" y="183" on="1"/>
        <pt x="40" y="263" on="0"/>
        <pt x="140" y="381" on="0"/>
        <pt x="229" y="404" on="1"/>
        <pt x="225" y="428" on="0"/>
        <pt x="221" y="474" on="0"/>
        <pt x="221" y="496" on="1"/>
        <pt x="221" y="600" on="0"/>
        <pt x="332" y="722" on="0"/>
        <pt x="430" y="722" on="1"/>
        <pt x="501" y="722" on="0"/>
        <pt x="589" y="646" on="0"/>
        <pt x="589" y="586" on="1"/>
        <pt x="589" y="513" on="0"/>
        <pt x="479" y="414" on="0"/>
        <pt x="377" y="394" on="1"/>
        <pt x="399" y="325" on="0"/>
        <pt x="492" y="207" on="0"/>
        <pt x="563" y="156" on="1"/>
        <pt x="577" y="184" on="0"/>
        <pt x="591" y="246" on="0"/>
        <pt x="591" y="279" on="1"/>
        <pt x="591" y="304" on="0"/>
        <pt x="585" y="351" on="0"/>
        <pt x="578" y="383" on="1"/>
        <pt x="615" y="393" on="0"/>
        <pt x="691" y="386" on="0"/>
        <pt x="725" y="370" on="1"/>
        <pt x="726" y="344" on="0"/>
        <pt x="723" y="294" on="0"/>
        <pt x="720" y="267" on="1"/>
        <pt x="714" y="218" on="0"/>
        <pt x="687" y="132" on="0"/>
        <pt x="665" y="95" on="1"/>
        <pt x="694" y="80" on="0"/>
        <pt x="757" y="51" on="0"/>
      </contour>
      <contour>
        <pt x="411" y="644" on="1"/>
        <pt x="385" y="644" on="0"/>
        <pt x="356" y="583" on="0"/>
        <pt x="356" y="528" on="1"/>
        <pt x="356" y="506" on="0"/>
        <pt x="359" y="466" on="0"/>
        <pt x="363" y="448" on="1"/>
        <pt x="408" y="465" on="0"/>
        <pt x="456" y="531" on="0"/>
        <pt x="456" y="575" on="1"/>
        <pt x="456" y="608" on="0"/>
        <pt x="433" y="644" on="0"/>
      </contour>
      <contour>
        <pt x="188" y="220" on="1"/>
        <pt x="188" y="138" on="0"/>
        <pt x="295" y="36" on="0"/>
        <pt x="381" y="36" on="1"/>
        <pt x="404" y="36" on="0"/>
        <pt x="447" y="46" on="0"/>
        <pt x="467" y="56" on="1"/>
        <pt x="385" y="115" on="0"/>
        <pt x="273" y="259" on="0"/>
        <pt x="246" y="340" on="1"/>
        <pt x="217" y="319" on="0"/>
        <pt x="188" y="259" on="0"/>
      </contour>
    </TTGlyph>
    <TTGlyph name="aogonek" xMin="25" yMin="-235" xMax="466" yMax="552">
      <contour>
        <pt x="175" y="140" on="1"/>
        <pt x="175" y="111" on="0"/>
        <pt x="208" y="79" on="0"/>
        <pt x="238" y="79" on="1"/>
        <pt x="257" y="79" on="0"/>
        <pt x="291" y="89" on="0"/>
        <pt x="308" y="99" on="1"/>
        <pt x="313" y="135" on="0"/>
        <pt x="319" y="193" on="0"/>
        <pt x="320" y="220" on="1"/>
        <pt x="247" y="221" on="0"/>
        <pt x="175" y="182" on="0"/>
      </contour>
      <contour>
        <pt x="360" y="-125" on="1"/>
        <pt x="369" y="-133" on="0"/>
        <pt x="386" y="-158" on="0"/>
        <pt x="393" y="-175" on="1"/>
        <pt x="372" y="-205" on="0"/>
        <pt x="315" y="-235" on="0"/>
        <pt x="279" y="-235" on="1"/>
        <pt x="235" y="-235" on="0"/>
        <pt x="183" y="-193" on="0"/>
        <pt x="183" y="-157" on="1"/>
        <pt x="183" y="-118" on="0"/>
        <pt x="233" y="-51" on="0"/>
        <pt x="289" y="-17" on="1"/>
        <pt x="290" y="-13" on="0"/>
        <pt x="291" y="-5" on="0"/>
        <pt x="292" y="3" on="1"/>
        <pt x="294" y="13" on="0"/>
        <pt x="296" y="24" on="0"/>
        <pt x="297" y="28" on="1"/>
        <pt x="276" y="16" on="0"/>
        <pt x="224" y="4" on="0"/>
        <pt x="195" y="4" on="1"/>
        <pt x="118" y="4" on="0"/>
        <pt x="25" y="83" on="0"/>
        <pt x="25" y="149" on="1"/>
        <pt x="25" y="218" on="0"/>
        <pt x="138" y="287" on="0"/>
        <pt x="250" y="287" on="1"/>
        <pt x="271" y="287" on="0"/>
        <pt x="304" y="286" on="0"/>
        <pt x="322" y="285" on="1"/>
        <pt x="322" y="289" on="0"/>
        <pt x="322" y="296" on="0"/>
        <pt x="322" y="300" on="1"/>
        <pt x="322" y="391" on="0"/>
        <pt x="292" y="469" on="0"/>
        <pt x="259" y="469" on="1"/>
        <pt x="226" y="469" on="0"/>
        <pt x="180" y="397" on="0"/>
        <pt x="179" y="342" on="1"/>
        <pt x="130" y="343" on="0"/>
        <pt x="66" y="380" on="0"/>
        <pt x="52" y="413" on="1"/>
        <pt x="68" y="471" on="0"/>
        <pt x="192" y="552" on="0"/>
        <pt x="273" y="552" on="1"/>
        <pt x="368" y="552" on="0"/>
        <pt x="466" y="450" on="0"/>
        <pt x="466" y="351" on="1"/>
        <pt x="466" y="287" on="0"/>
        <pt x="431" y="68" on="0"/>
        <pt x="405" y="-35" on="1"/>
        <pt x="389" y="-35" on="0"/>
        <pt x="353" y="-33" on="0"/>
        <pt x="332" y="-30" on="1"/>
        <pt x="304" y="-52" on="0"/>
        <pt x="273" y="-105" on="0"/>
        <pt x="273" y="-131" on="1"/>
        <pt x="273" y="-148" on="0"/>
        <pt x="289" y="-167" on="0"/>
        <pt x="303" y="-167" on="1"/>
        <pt x="319" y="-167" on="0"/>
        <pt x="347" y="-147" on="0"/>
      </contour>
    </TTGlyph>
    <TTGlyph name="approxequal" xMin="25" yMin="162" xMax="415" yMax="491">
      <component glyphName="asciitilde" x="1" y="-93" flags="0x4"/>
      <component glyphName="asciitilde" x="0" y="86" flags="0x4"/>
    </TTGlyph>
    <TTGlyph name="aring" xMin="25" yMin="-35" xMax="466" yMax="776">
      <component glyphName="a" x="0" y="0" flags="0x204"/>
      <component glyphName="ring" x="155" y="8" flags="0x4"/>
    </TTGlyph>
    <TTGlyph name="asa_ba" xMin="-8" yMin="-42" xMax="509" yMax="649">
      <contour>
        <pt x="423" y="298" on="1"/>
        <pt x="423" y="198" on="0"/>
        <pt x="437" y="46" on="0"/>
        <pt x="451" y="-4" on="1"/>
        <pt x="429" y="-16" on="0"/>
        <pt x="360" y="-29" on="0"/>
        <pt x="324" y="-29" on="1"/>
        <pt x="278" y="53" on="0"/>
        <pt x="155" y="150" on="0"/>
        <pt x="76" y="167" on="1"/>
        <pt x="52" y="200" on="0"/>
        <pt x="27" y="266" on="0"/>
        <pt x="24" y="304" on="1"/>
        <pt x="80" y="365" on="0"/>
        <pt x="245" y="471" on="0"/>
        <pt x="343" y="510" on="1"/>
        <pt x="345" y="517" on="0"/>
        <pt x="348" y="530" on="0"/>
        <pt x="349" y="537" on="1"/>
        <pt x="313" y="539" on="0"/>
        <pt x="278" y="541" on="0"/>
        <pt x="264" y="541" on="1"/>
        <pt x="202" y="541" on="0"/>
        <pt x="65" y="527" on="0"/>
        <pt x="0" y="514" on="1"/>
        <pt x="-4" y="529" on="0"/>
        <pt x="-8" y="558" on="0"/>
        <pt x="-8" y="572" on="1"/>
        <pt x="-8" y="587" on="0"/>
        <pt x="-4" y="610" on="0"/>
        <pt x="0" y="618" on="1"/>
        <pt x="59" y="632" on="0"/>
        <pt x="202" y="649" on="0"/>
        <pt x="268" y="649" on="1"/>
        <pt x="325" y="649" on="0"/>
        <pt x="457" y="631" on="0"/>
        <pt x="501" y="618" on="1"/>
        <pt x="505" y="610" on="0"/>
        <pt x="509" y="585" on="0"/>
        <pt x="509" y="571" on="1"/>
        <pt x="509" y="557" on="0"/>
        <pt x="505" y="527" on="0"/>
        <pt x="501" y="514" on="1"/>
        <pt x="486" y="517" on="0"/>
        <pt x="454" y="523" on="0"/>
        <pt x="437" y="526" on="1"/>
        <pt x="430" y="463" on="0"/>
        <pt x="423" y="355" on="0"/>
      </contour>
      <contour>
        <pt x="313" y="92" on="1"/>
        <pt x="312" y="99" on="0"/>
        <pt x="312" y="118" on="0"/>
        <pt x="312" y="139" on="1"/>
        <pt x="312" y="202" on="0"/>
        <pt x="317" y="309" on="0"/>
        <pt x="322" y="359" on="1"/>
        <pt x="277" y="337" on="0"/>
        <pt x="186" y="277" on="0"/>
        <pt x="149" y="244" on="1"/>
        <pt x="201" y="214" on="0"/>
        <pt x="284" y="137" on="0"/>
      </contour>
      <contour>
        <pt x="202" y="-42" on="1"/>
        <pt x="174" y="-7" on="0"/>
        <pt x="72" y="49" on="0"/>
        <pt x="25" y="57" on="1"/>
        <pt x="32" y="80" on="0"/>
        <pt x="52" y="117" on="0"/>
        <pt x="65" y="131" on="1"/>
        <pt x="117" y="115" on="0"/>
        <pt x="222" y="39" on="0"/>
        <pt x="241" y="0" on="1"/>
        <pt x="237" y="-12" on="0"/>
        <pt x="216" y="-34" on="0"/>
      </contour>
    </TTGlyph>
    <TTGlyph name="asa_ba.half" xMin="-8" yMin="59" xMax="509" yMax="649">
      <contour>
        <pt x="423" y="372" on="1"/>
        <pt x="423" y="301" on="0"/>
        <pt x="437" y="193" on="0"/>
        <pt x="451" y="158" on="1"/>
        <pt x="430" y="149" on="0"/>
        <pt x="363" y="140" on="0"/>
        <pt x="324" y="140" on="1"/>
        <pt x="278" y="199" on="0"/>
        <pt x="154" y="269" on="0"/>
        <pt x="76" y="280" on="1"/>
        <pt x="51" y="305" on="0"/>
        <pt x="24" y="356" on="0"/>
        <pt x="22" y="385" on="1"/>
        <pt x="77" y="428" on="0"/>
        <pt x="245" y="506" on="0"/>
        <pt x="346" y="534" on="1"/>
        <pt x="347" y="535" on="0"/>
        <pt x="347" y="536" on="0"/>
        <pt x="347" y="537" on="1"/>
        <pt x="328" y="539" on="0"/>
        <pt x="287" y="541" on="0"/>
        <pt x="264" y="541" on="1"/>
        <pt x="202" y="541" on="0"/>
        <pt x="65" y="527" on="0"/>
        <pt x="0" y="514" on="1"/>
        <pt x="-4" y="529" on="0"/>
        <pt x="-8" y="558" on="0"/>
        <pt x="-8" y="572" on="1"/>
        <pt x="-8" y="587" on="0"/>
        <pt x="-4" y="610" on="0"/>
        <pt x="0" y="618" on="1"/>
        <pt x="59" y="632" on="0"/>
        <pt x="202" y="649" on="0"/>
        <pt x="268" y="649" on="1"/>
        <pt x="325" y="649" on="0"/>
        <pt x="457" y="631" on="0"/>
        <pt x="501" y="618" on="1"/>
        <pt x="505" y="610" on="0"/>
        <pt x="509" y="585" on="0"/>
        <pt x="509" y="571" on="1"/>
        <pt x="509" y="557" on="0"/>
        <pt x="505" y="527" on="0"/>
        <pt x="501" y="514" on="1"/>
        <pt x="488" y="517" on="0"/>
        <pt x="455" y="523" on="0"/>
        <pt x="436" y="526" on="1"/>
        <pt x="429" y="483" on="0"/>
        <pt x="423" y="410" on="0"/>
      </contour>
      <contour>
        <pt x="312" y="230" on="1"/>
        <pt x="312" y="238" on="0"/>
        <pt x="312" y="253" on="0"/>
        <pt x="312" y="261" on="1"/>
        <pt x="312" y="306" on="0"/>
        <pt x="317" y="382" on="0"/>
        <pt x="322" y="417" on="1"/>
        <pt x="284" y="404" on="0"/>
        <pt x="201" y="365" on="0"/>
        <pt x="164" y="344" on="1"/>
        <pt x="209" y="324" on="0"/>
        <pt x="285" y="266" on="0"/>
      </contour>
      <contour>
        <pt x="278" y="87" on="1"/>
        <pt x="260" y="59" on="1"/>
        <pt x="225" y="112" on="0"/>
        <pt x="118" y="176" on="0"/>
        <pt x="48" y="187" on="1"/>
        <pt x="91" y="238" on="1"/>
        <pt x="160" y="214" on="0"/>
        <pt x="258" y="136" on="0"/>
      </contour>
    </TTGlyph>
    <TTGlyph name="asa_ba_ukaar" xMin="-8" yMin="-107" xMax="690" yMax="654">
      <contour>
        <pt x="313" y="92" on="1"/>
        <pt x="312" y="99" on="0"/>
        <pt x="312" y="118" on="0"/>
        <pt x="312" y="139" on="1"/>
        <pt x="312" y="202" on="0"/>
        <pt x="317" y="309" on="0"/>
        <pt x="322" y="359" on="1"/>
        <pt x="277" y="337" on="0"/>
        <pt x="186" y="277" on="0"/>
        <pt x="149" y="244" on="1"/>
        <pt x="201" y="214" on="0"/>
        <pt x="284" y="137" on="0"/>
      </contour>
      <contour>
        <pt x="424" y="212" on="1"/>
        <pt x="427" y="143" on="0"/>
        <pt x="440" y="34" on="0"/>
        <pt x="451" y="-4" on="1"/>
        <pt x="429" y="-16" on="0"/>
        <pt x="360" y="-29" on="0"/>
        <pt x="324" y="-29" on="1"/>
        <pt x="278" y="53" on="0"/>
        <pt x="155" y="150" on="0"/>
        <pt x="76" y="167" on="1"/>
        <pt x="52" y="200" on="0"/>
        <pt x="27" y="266" on="0"/>
        <pt x="24" y="304" on="1"/>
        <pt x="80" y="365" on="0"/>
        <pt x="245" y="471" on="0"/>
        <pt x="344" y="510" on="1"/>
        <pt x="346" y="525" on="0"/>
        <pt x="349" y="540" on="0"/>
        <pt x="351" y="546" on="1"/>
        <pt x="346" y="546" on="0"/>
        <pt x="335" y="546" on="0"/>
        <pt x="329" y="546" on="1"/>
        <pt x="248" y="546" on="0"/>
        <pt x="69" y="528" on="0"/>
        <pt x="0" y="514" on="1"/>
        <pt x="-4" y="526" on="0"/>
        <pt x="-8" y="558" on="0"/>
        <pt x="-8" y="571" on="1"/>
        <pt x="-8" y="586" on="0"/>
        <pt x="-4" y="611" on="0"/>
        <pt x="0" y="618" on="1"/>
        <pt x="61" y="633" on="0"/>
        <pt x="246" y="654" on="0"/>
        <pt x="332" y="654" on="1"/>
        <pt x="426" y="654" on="0"/>
        <pt x="626" y="633" on="0"/>
        <pt x="682" y="618" on="1"/>
        <pt x="686" y="610" on="0"/>
        <pt x="690" y="584" on="0"/>
        <pt x="690" y="570" on="1"/>
        <pt x="690" y="557" on="0"/>
        <pt x="685" y="525" on="0"/>
        <pt x="682" y="514" on="1"/>
        <pt x="641" y="523" on="0"/>
        <pt x="511" y="539" on="0"/>
        <pt x="439" y="543" on="1"/>
        <pt x="432" y="488" on="0"/>
        <pt x="424" y="386" on="0"/>
        <pt x="423" y="331" on="1"/>
        <pt x="434" y="288" on="0"/>
        <pt x="492" y="234" on="0"/>
        <pt x="524" y="234" on="1"/>
        <pt x="552" y="234" on="0"/>
        <pt x="587" y="278" on="0"/>
        <pt x="587" y="312" on="1"/>
        <pt x="587" y="336" on="0"/>
        <pt x="570" y="362" on="0"/>
        <pt x="554" y="362" on="1"/>
        <pt x="540" y="362" on="0"/>
        <pt x="510" y="330" on="0"/>
        <pt x="499" y="304" on="1"/>
        <pt x="486" y="328" on="0"/>
        <pt x="470" y="398" on="0"/>
        <pt x="469" y="432" on="1"/>
        <pt x="479" y="450" on="0"/>
        <pt x="517" y="471" on="0"/>
        <pt x="541" y="471" on="1"/>
        <pt x="595" y="471" on="0"/>
        <pt x="663" y="373" on="0"/>
        <pt x="663" y="292" on="1"/>
        <pt x="663" y="210" on="0"/>
        <pt x="598" y="109" on="0"/>
        <pt x="546" y="109" on="1"/>
        <pt x="506" y="109" on="0"/>
        <pt x="445" y="161" on="0"/>
      </contour>
      <contour>
        <pt x="252" y="-107" on="1"/>
        <pt x="220" y="-49" on="0"/>
        <pt x="86" y="47" on="0"/>
        <pt x="25" y="57" on="1"/>
        <pt x="32" y="80" on="0"/>
        <pt x="52" y="117" on="0"/>
        <pt x="65" y="131" on="1"/>
        <pt x="127" y="113" on="0"/>
        <pt x="264" y="-4" on="0"/>
        <pt x="292" y="-64" on="1"/>
        <pt x="287" y="-77" on="0"/>
        <pt x="266" y="-100" on="0"/>
      </contour>
    </TTGlyph>
    <TTGlyph name="asa_ba_uukaar" xMin="-8" yMin="-107" xMax="690" yMax="654">
      <contour>
        <pt x="313" y="92" on="1"/>
        <pt x="312" y="99" on="0"/>
        <pt x="312" y="118" on="0"/>
        <pt x="312" y="139" on="1"/>
        <pt x="312" y="202" on="0"/>
        <pt x="317" y="309" on="0"/>
        <pt x="322" y="359" on="1"/>
        <pt x="277" y="337" on="0"/>
        <pt x="186" y="277" on="0"/>
        <pt x="149" y="244" on="1"/>
        <pt x="201" y="214" on="0"/>
        <pt x="284" y="137" on="0"/>
      </contour>
      <contour>
        <pt x="423" y="293" on="1"/>
        <pt x="423" y="194" on="0"/>
        <pt x="437" y="45" on="0"/>
        <pt x="451" y="-4" on="1"/>
        <pt x="429" y="-16" on="0"/>
        <pt x="360" y="-29" on="0"/>
        <pt x="324" y="-29" on="1"/>
        <pt x="278" y="53" on="0"/>
        <pt x="155" y="150" on="0"/>
        <pt x="76" y="167" on="1"/>
        <pt x="52" y="200" on="0"/>
        <pt x="27" y="266" on="0"/>
        <pt x="24" y="304" on="1"/>
        <pt x="80" y="365" on="0"/>
        <pt x="245" y="471" on="0"/>
        <pt x="344" y="510" on="1"/>
        <pt x="346" y="525" on="0"/>
        <pt x="349" y="540" on="0"/>
        <pt x="351" y="546" on="1"/>
        <pt x="346" y="546" on="0"/>
        <pt x="335" y="546" on="0"/>
        <pt x="329" y="546" on="1"/>
        <pt x="248" y="546" on="0"/>
        <pt x="69" y="528" on="0"/>
        <pt x="0" y="514" on="1"/>
        <pt x="-4" y="526" on="0"/>
        <pt x="-8" y="558" on="0"/>
        <pt x="-8" y="571" on="1"/>
        <pt x="-8" y="586" on="0"/>
        <pt x="-4" y="611" on="0"/>
        <pt x="0" y="618" on="1"/>
        <pt x="61" y="633" on="0"/>
        <pt x="246" y="654" on="0"/>
        <pt x="332" y="654" on="1"/>
        <pt x="426" y="654" on="0"/>
        <pt x="626" y="633" on="0"/>
        <pt x="682" y="618" on="1"/>
        <pt x="686" y="610" on="0"/>
        <pt x="690" y="584" on="0"/>
        <pt x="690" y="570" on="1"/>
        <pt x="690" y="557" on="0"/>
        <pt x="685" y="525" on="0"/>
        <pt x="682" y="514" on="1"/>
        <pt x="641" y="523" on="0"/>
        <pt x="511" y="539" on="0"/>
        <pt x="439" y="543" on="1"/>
        <pt x="435" y="510" on="0"/>
        <pt x="428" y="445" on="0"/>
        <pt x="426" y="409" on="1"/>
        <pt x="426" y="409" on="0"/>
        <pt x="524" y="453" on="0"/>
        <pt x="556" y="462" on="1"/>
        <pt x="618" y="376" on="1"/>
        <pt x="612" y="335" on="0"/>
        <pt x="608" y="298" on="0"/>
        <pt x="608" y="283" on="1"/>
        <pt x="608" y="227" on="0"/>
        <pt x="625" y="138" on="0"/>
        <pt x="643" y="95" on="1"/>
        <pt x="624" y="87" on="0"/>
        <pt x="567" y="78" on="0"/>
        <pt x="536" y="78" on="1"/>
        <pt x="526" y="117" on="0"/>
        <pt x="517" y="202" on="0"/>
        <pt x="517" y="253" on="1"/>
        <pt x="517" y="267" on="0"/>
        <pt x="519" y="300" on="0"/>
        <pt x="523" y="335" on="1"/>
        <pt x="490" y="322" on="0"/>
        <pt x="443" y="302" on="0"/>
      </contour>
      <contour>
        <pt x="252" y="-107" on="1"/>
        <pt x="220" y="-49" on="0"/>
        <pt x="86" y="47" on="0"/>
        <pt x="25" y="57" on="1"/>
        <pt x="32" y="80" on="0"/>
        <pt x="52" y="117" on="0"/>
        <pt x="65" y="131" on="1"/>
        <pt x="127" y="113" on="0"/>
        <pt x="264" y="-4" on="0"/>
        <pt x="292" y="-64" on="1"/>
        <pt x="287" y="-77" on="0"/>
        <pt x="266" y="-100" on="0"/>
      </contour>
    </TTGlyph>
    <TTGlyph name="asa_ra" xMin="-9" yMin="-29" xMax="509" yMax="649">
      <contour>
        <pt x="424" y="298" on="1"/>
        <pt x="424" y="201" on="0"/>
        <pt x="439" y="49" on="0"/>
        <pt x="454" y="-1" on="1"/>
        <pt x="430" y="-14" on="0"/>
        <pt x="361" y="-29" on="0"/>
        <pt x="324" y="-29" on="1"/>
        <pt x="279" y="52" on="0"/>
        <pt x="156" y="150" on="0"/>
        <pt x="77" y="167" on="1"/>
        <pt x="53" y="202" on="0"/>
        <pt x="28" y="271" on="0"/>
        <pt x="25" y="311" on="1"/>
        <pt x="80" y="370" on="0"/>
        <pt x="247" y="474" on="0"/>
        <pt x="344" y="510" on="1"/>
        <pt x="345" y="515" on="0"/>
        <pt x="348" y="533" on="0"/>
        <pt x="349" y="537" on="1"/>
        <pt x="313" y="539" on="0"/>
        <pt x="278" y="541" on="0"/>
        <pt x="264" y="541" on="1"/>
        <pt x="202" y="541" on="0"/>
        <pt x="64" y="527" on="0"/>
        <pt x="0" y="514" on="1"/>
        <pt x="-4" y="527" on="0"/>
        <pt x="-9" y="557" on="0"/>
        <pt x="-9" y="572" on="1"/>
        <pt x="-9" y="586" on="0"/>
        <pt x="-4" y="609" on="0"/>
        <pt x="0" y="618" on="1"/>
        <pt x="58" y="632" on="0"/>
        <pt x="201" y="649" on="0"/>
        <pt x="268" y="649" on="1"/>
        <pt x="325" y="649" on="0"/>
        <pt x="457" y="631" on="0"/>
        <pt x="500" y="618" on="1"/>
        <pt x="504" y="610" on="0"/>
        <pt x="509" y="585" on="0"/>
        <pt x="509" y="571" on="1"/>
        <pt x="509" y="556" on="0"/>
        <pt x="504" y="526" on="0"/>
        <pt x="500" y="514" on="1"/>
        <pt x="488" y="517" on="0"/>
        <pt x="456" y="523" on="0"/>
        <pt x="436" y="526" on="1"/>
        <pt x="430" y="466" on="0"/>
        <pt x="424" y="357" on="0"/>
      </contour>
      <contour>
        <pt x="230" y="321" on="1"/>
        <pt x="259" y="298" on="0"/>
        <pt x="301" y="251" on="0"/>
        <pt x="316" y="226" on="1"/>
        <pt x="317" y="264" on="0"/>
        <pt x="322" y="337" on="0"/>
        <pt x="325" y="374" on="1"/>
        <pt x="301" y="363" on="0"/>
        <pt x="252" y="336" on="0"/>
      </contour>
      <contour>
        <pt x="316" y="103" on="1"/>
        <pt x="315" y="117" on="0"/>
        <pt x="315" y="132" on="0"/>
        <pt x="315" y="139" on="1"/>
        <pt x="315" y="142" on="0"/>
        <pt x="315" y="148" on="0"/>
        <pt x="315" y="151" on="1"/>
        <pt x="288" y="197" on="0"/>
        <pt x="216" y="263" on="0"/>
        <pt x="173" y="281" on="1"/>
        <pt x="156" y="267" on="0"/>
        <pt x="139" y="253" on="0"/>
        <pt x="133" y="247" on="1"/>
        <pt x="193" y="215" on="0"/>
        <pt x="286" y="127" on="0"/>
        <pt x="316" y="74" on="1"/>
        <pt x="316" y="79" on="0"/>
        <pt x="316" y="90" on="0"/>
      </contour>
    </TTGlyph>
    <TTGlyph name="asa_ra.half" xMin="-8" yMin="140" xMax="509" yMax="649">
      <contour>
        <pt x="423" y="372" on="1"/>
        <pt x="423" y="301" on="0"/>
        <pt x="437" y="193" on="0"/>
        <pt x="451" y="158" on="1"/>
        <pt x="430" y="149" on="0"/>
        <pt x="363" y="140" on="0"/>
        <pt x="324" y="140" on="1"/>
        <pt x="278" y="199" on="0"/>
        <pt x="154" y="269" on="0"/>
        <pt x="76" y="280" on="1"/>
        <pt x="51" y="305" on="0"/>
        <pt x="24" y="356" on="0"/>
        <pt x="22" y="385" on="1"/>
        <pt x="77" y="428" on="0"/>
        <pt x="245" y="506" on="0"/>
        <pt x="346" y="534" on="1"/>
        <pt x="347" y="535" on="0"/>
        <pt x="347" y="536" on="0"/>
        <pt x="347" y="537" on="1"/>
        <pt x="328" y="539" on="0"/>
        <pt x="287" y="541" on="0"/>
        <pt x="264" y="541" on="1"/>
        <pt x="202" y="541" on="0"/>
        <pt x="65" y="527" on="0"/>
        <pt x="0" y="514" on="1"/>
        <pt x="-4" y="529" on="0"/>
        <pt x="-8" y="558" on="0"/>
        <pt x="-8" y="572" on="1"/>
        <pt x="-8" y="587" on="0"/>
        <pt x="-4" y="610" on="0"/>
        <pt x="0" y="618" on="1"/>
        <pt x="59" y="632" on="0"/>
        <pt x="202" y="649" on="0"/>
        <pt x="268" y="649" on="1"/>
        <pt x="325" y="649" on="0"/>
        <pt x="457" y="631" on="0"/>
        <pt x="501" y="618" on="1"/>
        <pt x="505" y="610" on="0"/>
        <pt x="509" y="585" on="0"/>
        <pt x="509" y="571" on="1"/>
        <pt x="509" y="557" on="0"/>
        <pt x="505" y="527" on="0"/>
        <pt x="501" y="514" on="1"/>
        <pt x="488" y="517" on="0"/>
        <pt x="455" y="523" on="0"/>
        <pt x="436" y="526" on="1"/>
        <pt x="429" y="483" on="0"/>
        <pt x="423" y="410" on="0"/>
      </contour>
      <contour>
        <pt x="255" y="390" on="1"/>
        <pt x="271" y="379" on="0"/>
        <pt x="301" y="353" on="0"/>
        <pt x="314" y="338" on="1"/>
        <pt x="316" y="369" on="0"/>
        <pt x="320" y="403" on="0"/>
        <pt x="322" y="417" on="1"/>
        <pt x="303" y="410" on="0"/>
        <pt x="270" y="397" on="0"/>
      </contour>
      <contour>
        <pt x="312" y="230" on="1"/>
        <pt x="312" y="238" on="0"/>
        <pt x="312" y="253" on="0"/>
        <pt x="312" y="261" on="1"/>
        <pt x="312" y="266" on="0"/>
        <pt x="312" y="275" on="0"/>
        <pt x="312" y="279" on="1"/>
        <pt x="290" y="307" on="0"/>
        <pt x="234" y="349" on="0"/>
        <pt x="200" y="364" on="1"/>
        <pt x="196" y="362" on="0"/>
        <pt x="187" y="357" on="0"/>
        <pt x="179" y="352" on="1"/>
        <pt x="173" y="349" on="0"/>
        <pt x="167" y="345" on="0"/>
        <pt x="164" y="344" on="1"/>
        <pt x="209" y="324" on="0"/>
        <pt x="285" y="266" on="0"/>
      </contour>
    </TTGlyph>
    <TTGlyph name="asa_ra_ukaar" xMin="-8" yMin="-29" xMax="690" yMax="654">
      <contour>
        <pt x="240" y="313" on="1"/>
        <pt x="263" y="294" on="0"/>
        <pt x="300" y="252" on="0"/>
        <pt x="313" y="230" on="1"/>
        <pt x="315" y="280" on="0"/>
        <pt x="319" y="335" on="0"/>
        <pt x="322" y="359" on="1"/>
        <pt x="306" y="351" on="0"/>
        <pt x="269" y="331" on="0"/>
      </contour>
      <contour>
        <pt x="313" y="92" on="1"/>
        <pt x="312" y="99" on="0"/>
        <pt x="312" y="118" on="0"/>
        <pt x="312" y="139" on="1"/>
        <pt x="312" y="143" on="0"/>
        <pt x="312" y="152" on="0"/>
        <pt x="312" y="156" on="1"/>
        <pt x="288" y="196" on="0"/>
        <pt x="225" y="256" on="0"/>
        <pt x="187" y="275" on="1"/>
        <pt x="182" y="271" on="0"/>
        <pt x="170" y="261" on="0"/>
        <pt x="149" y="244" on="1"/>
        <pt x="201" y="214" on="0"/>
        <pt x="284" y="137" on="0"/>
      </contour>
      <contour>
        <pt x="424" y="212" on="1"/>
        <pt x="427" y="143" on="0"/>
        <pt x="440" y="34" on="0"/>
        <pt x="451" y="-4" on="1"/>
        <pt x="429" y="-16" on="0"/>
        <pt x="360" y="-29" on="0"/>
        <pt x="324" y="-29" on="1"/>
        <pt x="278" y="53" on="0"/>
        <pt x="155" y="150" on="0"/>
        <pt x="76" y="167" on="1"/>
        <pt x="52" y="200" on="0"/>
        <pt x="27" y="266" on="0"/>
        <pt x="24" y="304" on="1"/>
        <pt x="80" y="365" on="0"/>
        <pt x="245" y="471" on="0"/>
        <pt x="344" y="510" on="1"/>
        <pt x="346" y="525" on="0"/>
        <pt x="349" y="540" on="0"/>
        <pt x="351" y="546" on="1"/>
        <pt x="346" y="546" on="0"/>
        <pt x="335" y="546" on="0"/>
        <pt x="329" y="546" on="1"/>
        <pt x="248" y="546" on="0"/>
        <pt x="69" y="528" on="0"/>
        <pt x="0" y="514" on="1"/>
        <pt x="-4" y="526" on="0"/>
        <pt x="-8" y="558" on="0"/>
        <pt x="-8" y="571" on="1"/>
        <pt x="-8" y="586" on="0"/>
        <pt x="-4" y="611" on="0"/>
        <pt x="0" y="618" on="1"/>
        <pt x="61" y="633" on="0"/>
        <pt x="246" y="654" on="0"/>
        <pt x="332" y="654" on="1"/>
        <pt x="426" y="654" on="0"/>
        <pt x="626" y="633" on="0"/>
        <pt x="682" y="618" on="1"/>
        <pt x="686" y="610" on="0"/>
        <pt x="690" y="584" on="0"/>
        <pt x="690" y="570" on="1"/>
        <pt x="690" y="557" on="0"/>
        <pt x="685" y="525" on="0"/>
        <pt x="682" y="514" on="1"/>
        <pt x="641" y="523" on="0"/>
        <pt x="511" y="539" on="0"/>
        <pt x="439" y="543" on="1"/>
        <pt x="432" y="488" on="0"/>
        <pt x="424" y="386" on="0"/>
        <pt x="423" y="331" on="1"/>
        <pt x="434" y="288" on="0"/>
        <pt x="492" y="234" on="0"/>
        <pt x="524" y="234" on="1"/>
        <pt x="552" y="234" on="0"/>
        <pt x="587" y="278" on="0"/>
        <pt x="587" y="312" on="1"/>
        <pt x="587" y="336" on="0"/>
        <pt x="570" y="362" on="0"/>
        <pt x="554" y="362" on="1"/>
        <pt x="540" y="362" on="0"/>
        <pt x="510" y="330" on="0"/>
        <pt x="499" y="304" on="1"/>
        <pt x="486" y="328" on="0"/>
        <pt x="470" y="398" on="0"/>
        <pt x="469" y="432" on="1"/>
        <pt x="479" y="450" on="0"/>
        <pt x="517" y="471" on="0"/>
        <pt x="541" y="471" on="1"/>
        <pt x="595" y="471" on="0"/>
        <pt x="663" y="373" on="0"/>
        <pt x="663" y="292" on="1"/>
        <pt x="663" y="210" on="0"/>
        <pt x="598" y="109" on="0"/>
        <pt x="546" y="109" on="1"/>
        <pt x="506" y="109" on="0"/>
        <pt x="445" y="161" on="0"/>
      </contour>
    </TTGlyph>
    <TTGlyph name="asa_ra_uukaar" xMin="-8" yMin="-29" xMax="690" yMax="654">
      <contour>
        <pt x="240" y="313" on="1"/>
        <pt x="263" y="294" on="0"/>
        <pt x="300" y="252" on="0"/>
        <pt x="313" y="230" on="1"/>
        <pt x="315" y="280" on="0"/>
        <pt x="319" y="335" on="0"/>
        <pt x="322" y="359" on="1"/>
        <pt x="306" y="351" on="0"/>
        <pt x="269" y="331" on="0"/>
      </contour>
      <contour>
        <pt x="423" y="293" on="1"/>
        <pt x="423" y="194" on="0"/>
        <pt x="437" y="45" on="0"/>
        <pt x="451" y="-4" on="1"/>
        <pt x="429" y="-16" on="0"/>
        <pt x="360" y="-29" on="0"/>
        <pt x="324" y="-29" on="1"/>
        <pt x="278" y="53" on="0"/>
        <pt x="155" y="150" on="0"/>
        <pt x="76" y="167" on="1"/>
        <pt x="52" y="200" on="0"/>
        <pt x="27" y="266" on="0"/>
        <pt x="24" y="304" on="1"/>
        <pt x="80" y="365" on="0"/>
        <pt x="245" y="471" on="0"/>
        <pt x="344" y="510" on="1"/>
        <pt x="346" y="525" on="0"/>
        <pt x="349" y="540" on="0"/>
        <pt x="351" y="546" on="1"/>
        <pt x="346" y="546" on="0"/>
        <pt x="335" y="546" on="0"/>
        <pt x="329" y="546" on="1"/>
        <pt x="248" y="546" on="0"/>
        <pt x="69" y="528" on="0"/>
        <pt x="0" y="514" on="1"/>
        <pt x="-4" y="526" on="0"/>
        <pt x="-8" y="558" on="0"/>
        <pt x="-8" y="571" on="1"/>
        <pt x="-8" y="586" on="0"/>
        <pt x="-4" y="611" on="0"/>
        <pt x="0" y="618" on="1"/>
        <pt x="61" y="633" on="0"/>
        <pt x="246" y="654" on="0"/>
        <pt x="332" y="654" on="1"/>
        <pt x="426" y="654" on="0"/>
        <pt x="626" y="633" on="0"/>
        <pt x="682" y="618" on="1"/>
        <pt x="686" y="610" on="0"/>
        <pt x="690" y="584" on="0"/>
        <pt x="690" y="570" on="1"/>
        <pt x="690" y="557" on="0"/>
        <pt x="685" y="525" on="0"/>
        <pt x="682" y="514" on="1"/>
        <pt x="641" y="523" on="0"/>
        <pt x="511" y="539" on="0"/>
        <pt x="439" y="543" on="1"/>
        <pt x="435" y="510" on="0"/>
        <pt x="428" y="445" on="0"/>
        <pt x="426" y="409" on="1"/>
        <pt x="426" y="409" on="0"/>
        <pt x="524" y="453" on="0"/>
        <pt x="556" y="462" on="1"/>
        <pt x="618" y="376" on="1"/>
        <pt x="612" y="335" on="0"/>
        <pt x="608" y="298" on="0"/>
        <pt x="608" y="283" on="1"/>
        <pt x="608" y="227" on="0"/>
        <pt x="625" y="138" on="0"/>
        <pt x="643" y="95" on="1"/>
        <pt x="624" y="87" on="0"/>
        <pt x="567" y="78" on="0"/>
        <pt x="536" y="78" on="1"/>
        <pt x="526" y="117" on="0"/>
        <pt x="517" y="202" on="0"/>
        <pt x="517" y="253" on="1"/>
        <pt x="517" y="267" on="0"/>
        <pt x="519" y="300" on="0"/>
        <pt x="523" y="335" on="1"/>
        <pt x="490" y="322" on="0"/>
        <pt x="443" y="302" on="0"/>
      </contour>
      <contour>
        <pt x="313" y="92" on="1"/>
        <pt x="312" y="99" on="0"/>
        <pt x="312" y="118" on="0"/>
        <pt x="312" y="139" on="1"/>
        <pt x="312" y="143" on="0"/>
        <pt x="312" y="152" on="0"/>
        <pt x="312" y="156" on="1"/>
        <pt x="288" y="196" on="0"/>
        <pt x="225" y="256" on="0"/>
        <pt x="187" y="275" on="1"/>
        <pt x="182" y="271" on="0"/>
        <pt x="170" y="261" on="0"/>
        <pt x="149" y="244" on="1"/>
        <pt x="201" y="214" on="0"/>
        <pt x="284" y="137" on="0"/>
      </contour>
    </TTGlyph>
    <TTGlyph name="asciicircum" xMin="7" yMin="154" xMax="449" yMax="540">
      <contour>
        <pt x="449" y="183" on="1"/>
        <pt x="428" y="172" on="0"/>
        <pt x="391" y="160" on="0"/>
        <pt x="364" y="154" on="1"/>
        <pt x="333" y="227" on="0"/>
        <pt x="265" y="357" on="0"/>
        <pt x="227" y="415" on="1"/>
        <pt x="192" y="361" on="0"/>
        <pt x="125" y="232" on="0"/>
        <pt x="92" y="155" on="1"/>
        <pt x="68" y="159" on="0"/>
        <pt x="29" y="173" on="0"/>
        <pt x="7" y="184" on="1"/>
        <pt x="42" y="274" on="0"/>
        <pt x="152" y="477" on="0"/>
        <pt x="201" y="540" on="1"/>
        <pt x="255" y="539" on="1"/>
        <pt x="305" y="473" on="0"/>
        <pt x="415" y="272" on="0"/>
      </contour>
    </TTGlyph>
    <TTGlyph name="asciitilde" xMin="25" yMin="255" xMax="414" yMax="405">
      <contour>
        <pt x="216" y="374" on="1"/>
        <pt x="247" y="361" on="0"/>
        <pt x="278" y="353" on="0"/>
        <pt x="292" y="353" on="1"/>
        <pt x="320" y="353" on="0"/>
        <pt x="345" y="377" on="0"/>
        <pt x="344" y="404" on="1"/>
        <pt x="361" y="405" on="0"/>
        <pt x="398" y="399" on="0"/>
        <pt x="409" y="394" on="1"/>
        <pt x="414" y="333" on="0"/>
        <pt x="360" y="264" on="0"/>
        <pt x="306" y="264" on="1"/>
        <pt x="286" y="264" on="0"/>
        <pt x="245" y="274" on="0"/>
        <pt x="209" y="289" on="1"/>
        <pt x="181" y="300" on="0"/>
        <pt x="155" y="307" on="0"/>
        <pt x="144" y="307" on="1"/>
        <pt x="116" y="307" on="0"/>
        <pt x="92" y="283" on="0"/>
        <pt x="94" y="256" on="1"/>
        <pt x="80" y="255" on="0"/>
        <pt x="46" y="261" on="0"/>
        <pt x="30" y="266" on="1"/>
        <pt x="25" y="327" on="0"/>
        <pt x="79" y="396" on="0"/>
        <pt x="132" y="396" on="1"/>
        <pt x="148" y="396" on="0"/>
        <pt x="183" y="387" on="0"/>
      </contour>
    </TTGlyph>
    <TTGlyph name="asterisk" xMin="37" yMin="295" xMax="445" yMax="725">
      <contour>
        <pt x="273" y="450" on="1"/>
        <pt x="275" y="421" on="0"/>
        <pt x="284" y="360" on="0"/>
        <pt x="293" y="308" on="1"/>
        <pt x="282" y="302" on="0"/>
        <pt x="251" y="295" on="0"/>
        <pt x="237" y="295" on="1"/>
        <pt x="227" y="295" on="0"/>
        <pt x="209" y="298" on="0"/>
        <pt x="196" y="301" on="1"/>
        <pt x="195" y="330" on="0"/>
        <pt x="200" y="404" on="0"/>
        <pt x="205" y="446" on="1"/>
        <pt x="195" y="439" on="0"/>
        <pt x="171" y="422" on="0"/>
        <pt x="149" y="405" on="1"/>
        <pt x="126" y="388" on="0"/>
        <pt x="102" y="371" on="0"/>
        <pt x="92" y="364" on="1"/>
        <pt x="81" y="372" on="0"/>
        <pt x="60" y="395" on="0"/>
        <pt x="53" y="407" on="1"/>
        <pt x="49" y="414" on="0"/>
        <pt x="42" y="430" on="0"/>
        <pt x="37" y="445" on="1"/>
        <pt x="64" y="460" on="0"/>
        <pt x="130" y="492" on="0"/>
        <pt x="173" y="512" on="1"/>
        <pt x="141" y="528" on="0"/>
        <pt x="80" y="553" on="0"/>
        <pt x="41" y="566" on="1"/>
        <pt x="41" y="577" on="0"/>
        <pt x="50" y="608" on="0"/>
        <pt x="58" y="621" on="1"/>
        <pt x="63" y="630" on="0"/>
        <pt x="73" y="645" on="0"/>
        <pt x="82" y="654" on="1"/>
        <pt x="104" y="642" on="0"/>
        <pt x="162" y="605" on="0"/>
        <pt x="205" y="574" on="1"/>
        <pt x="200" y="611" on="0"/>
        <pt x="193" y="677" on="0"/>
        <pt x="189" y="712" on="1"/>
        <pt x="200" y="718" on="0"/>
        <pt x="231" y="725" on="0"/>
        <pt x="246" y="725" on="1"/>
        <pt x="255" y="725" on="0"/>
        <pt x="272" y="723" on="0"/>
        <pt x="286" y="720" on="1"/>
        <pt x="286" y="688" on="0"/>
        <pt x="282" y="615" on="0"/>
        <pt x="277" y="567" on="1"/>
        <pt x="308" y="588" on="0"/>
        <pt x="362" y="630" on="0"/>
        <pt x="391" y="656" on="1"/>
        <pt x="401" y="650" on="0"/>
        <pt x="422" y="626" on="0"/>
        <pt x="429" y="613" on="1"/>
        <pt x="434" y="605" on="0"/>
        <pt x="441" y="588" on="0"/>
        <pt x="445" y="575" on="1"/>
        <pt x="422" y="561" on="0"/>
        <pt x="357" y="529" on="0"/>
        <pt x="315" y="510" on="1"/>
        <pt x="322" y="507" on="0"/>
        <pt x="413" y="467" on="0"/>
        <pt x="442" y="454" on="1"/>
        <pt x="441" y="441" on="0"/>
        <pt x="432" y="411" on="0"/>
        <pt x="425" y="399" on="1"/>
        <pt x="419" y="390" on="0"/>
        <pt x="408" y="375" on="0"/>
        <pt x="400" y="366" on="1"/>
        <pt x="376" y="381" on="0"/>
        <pt x="316" y="420" on="0"/>
      </contour>
    </TTGlyph>
    <TTGlyph name="at" xMin="32" yMin="-112" xMax="860" yMax="727">
      <contour>
        <pt x="663" y="-49" on="1"/>
        <pt x="607" y="-81" on="0"/>
        <pt x="489" y="-112" on="0"/>
        <pt x="421" y="-112" on="1"/>
        <pt x="242" y="-112" on="0"/>
        <pt x="32" y="102" on="0"/>
        <pt x="32" y="282" on="1"/>
        <pt x="32" y="482" on="0"/>
        <pt x="281" y="727" on="0"/>
        <pt x="487" y="727" on="1"/>
        <pt x="662" y="727" on="0"/>
        <pt x="860" y="526" on="0"/>
        <pt x="860" y="361" on="1"/>
        <pt x="860" y="241" on="0"/>
        <pt x="736" y="85" on="0"/>
        <pt x="648" y="85" on="1"/>
        <pt x="592" y="85" on="0"/>
        <pt x="519" y="137" on="0"/>
        <pt x="504" y="188" on="1"/>
        <pt x="486" y="142" on="0"/>
        <pt x="428" y="96" on="0"/>
        <pt x="388" y="96" on="1"/>
        <pt x="328" y="96" on="0"/>
        <pt x="257" y="201" on="0"/>
        <pt x="257" y="287" on="1"/>
        <pt x="257" y="397" on="0"/>
        <pt x="364" y="529" on="0"/>
        <pt x="453" y="529" on="1"/>
        <pt x="460" y="529" on="0"/>
        <pt x="475" y="527" on="0"/>
        <pt x="482" y="526" on="1"/>
        <pt x="481" y="548" on="1"/>
        <pt x="516" y="556" on="0"/>
        <pt x="576" y="558" on="0"/>
        <pt x="604" y="551" on="1"/>
        <pt x="599" y="472" on="0"/>
        <pt x="595" y="361" on="0"/>
        <pt x="595" y="307" on="1"/>
        <pt x="595" y="227" on="0"/>
        <pt x="625" y="152" on="0"/>
        <pt x="658" y="152" on="1"/>
        <pt x="703" y="152" on="0"/>
        <pt x="766" y="272" on="0"/>
        <pt x="766" y="363" on="1"/>
        <pt x="766" y="496" on="0"/>
        <pt x="612" y="646" on="0"/>
        <pt x="475" y="646" on="1"/>
        <pt x="319" y="646" on="0"/>
        <pt x="136" y="461" on="0"/>
        <pt x="136" y="305" on="1"/>
        <pt x="136" y="148" on="0"/>
        <pt x="290" y="-28" on="0"/>
        <pt x="429" y="-28" on="1"/>
        <pt x="484" y="-28" on="0"/>
        <pt x="566" y="-3" on="0"/>
        <pt x="604" y="26" on="1"/>
        <pt x="624" y="7" on="0"/>
        <pt x="652" y="-28" on="0"/>
      </contour>
      <contour>
        <pt x="373" y="302" on="1"/>
        <pt x="373" y="244" on="0"/>
        <pt x="401" y="180" on="0"/>
        <pt x="427" y="180" on="1"/>
        <pt x="449" y="180" on="0"/>
        <pt x="484" y="234" on="0"/>
        <pt x="492" y="284" on="1"/>
        <pt x="492" y="293" on="0"/>
        <pt x="491" y="313" on="0"/>
        <pt x="490" y="335" on="1"/>
        <pt x="488" y="383" on="0"/>
        <pt x="486" y="435" on="0"/>
        <pt x="485" y="458" on="1"/>
        <pt x="480" y="460" on="0"/>
        <pt x="468" y="461" on="0"/>
        <pt x="461" y="461" on="1"/>
        <pt x="421" y="461" on="0"/>
        <pt x="373" y="375" on="0"/>
      </contour>
    </TTGlyph>
    <TTGlyph name="atilde" xMin="25" yMin="-35" xMax="466" yMax="717">
      <component glyphName="a" x="0" y="0" flags="0x204"/>
      <component glyphName="tilde" x="152" y="-22" flags="0x4"/>
    </TTGlyph>
    <TTGlyph name="b" xMin="55" yMin="-49" xMax="485" yMax="706">
      <contour>
        <pt x="485" y="281" on="1"/>
        <pt x="485" y="137" on="0"/>
        <pt x="340" y="-49" on="0"/>
        <pt x="230" y="-49" on="1"/>
        <pt x="184" y="-49" on="0"/>
        <pt x="107" y="-26" on="0"/>
        <pt x="66" y="1" on="1"/>
        <pt x="61" y="74" on="0"/>
        <pt x="55" y="278" on="0"/>
        <pt x="55" y="376" on="1"/>
        <pt x="55" y="466" on="0"/>
        <pt x="61" y="630" on="0"/>
        <pt x="67" y="687" on="1"/>
        <pt x="84" y="696" on="0"/>
        <pt x="145" y="706" on="0"/>
        <pt x="181" y="706" on="1"/>
        <pt x="202" y="706" on="0"/>
        <pt x="228" y="703" on="0"/>
        <pt x="241" y="699" on="1"/>
        <pt x="232" y="652" on="0"/>
        <pt x="216" y="530" on="0"/>
        <pt x="209" y="451" on="1"/>
        <pt x="232" y="479" on="0"/>
        <pt x="290" y="506" on="0"/>
        <pt x="326" y="506" on="1"/>
        <pt x="404" y="506" on="0"/>
        <pt x="485" y="392" on="0"/>
      </contour>
      <contour>
        <pt x="197" y="65" on="1"/>
        <pt x="206" y="58" on="0"/>
        <pt x="228" y="50" on="0"/>
        <pt x="238" y="50" on="1"/>
        <pt x="285" y="50" on="0"/>
        <pt x="335" y="181" on="0"/>
        <pt x="335" y="302" on="1"/>
        <pt x="335" y="356" on="0"/>
        <pt x="305" y="410" on="0"/>
        <pt x="276" y="410" on="1"/>
        <pt x="254" y="410" on="0"/>
        <pt x="215" y="367" on="0"/>
        <pt x="201" y="326" on="1"/>
        <pt x="199" y="253" on="0"/>
        <pt x="197" y="169" on="0"/>
        <pt x="197" y="133" on="1"/>
        <pt x="197" y="116" on="0"/>
        <pt x="197" y="82" on="0"/>
      </contour>
    </TTGlyph>
    <TTGlyph name="backslash" xMin="-23" yMin="-205" xMax="509" yMax="755">
      <contour>
        <pt x="84" y="755" on="1"/>
        <pt x="59" y="752" on="0"/>
        <pt x="-1" y="719" on="0"/>
        <pt x="-23" y="696" on="1"/>
        <pt x="64" y="492" on="0"/>
        <pt x="308" y="-5" on="0"/>
        <pt x="419" y="-205" on="1"/>
        <pt x="442" y="-198" on="0"/>
        <pt x="493" y="-172" on="0"/>
        <pt x="509" y="-160" on="1"/>
        <pt x="423" y="-5" on="0"/>
        <pt x="155" y="573" on="0"/>
      </contour>
    </TTGlyph>
    <TTGlyph name="bar" xMin="73" yMin="-170" xMax="197" yMax="732">
      <contour>
        <pt x="182" y="-159" on="1"/>
        <pt x="164" y="-165" on="0"/>
        <pt x="113" y="-170" on="0"/>
        <pt x="94" y="-168" on="1"/>
        <pt x="84" y="-1" on="0"/>
        <pt x="73" y="478" on="0"/>
        <pt x="74" y="713" on="1"/>
        <pt x="103" y="725" on="0"/>
        <pt x="171" y="732" on="0"/>
        <pt x="197" y="725" on="1"/>
        <pt x="186" y="580" on="0"/>
        <pt x="177" y="-3" on="0"/>
      </contour>
    </TTGlyph>
    <TTGlyph name="bn_a" xMin="-8" yMin="-31" xMax="707" yMax="654">
      <contour>
        <pt x="625" y="376" on="1"/>
        <pt x="625" y="262" on="0"/>
        <pt x="590" y="33" on="0"/>
        <pt x="562" y="-31" on="1"/>
        <pt x="536" y="-31" on="0"/>
        <pt x="477" y="-20" on="0"/>
        <pt x="460" y="-12" on="1"/>
        <pt x="443" y="16" on="0"/>
        <pt x="402" y="63" on="0"/>
        <pt x="379" y="83" on="1"/>
        <pt x="362" y="71" on="0"/>
        <pt x="323" y="60" on="0"/>
        <pt x="300" y="60" on="1"/>
        <pt x="206" y="60" on="0"/>
        <pt x="59" y="240" on="0"/>
        <pt x="8" y="417" on="1"/>
        <pt x="28" y="430" on="0"/>
        <pt x="62" y="447" on="0"/>
        <pt x="77" y="452" on="1"/>
        <pt x="120" y="331" on="0"/>
        <pt x="232" y="191" on="0"/>
        <pt x="287" y="191" on="1"/>
        <pt x="326" y="191" on="0"/>
        <pt x="367" y="247" on="0"/>
        <pt x="367" y="301" on="1"/>
        <pt x="367" y="350" on="0"/>
        <pt x="336" y="410" on="0"/>
        <pt x="310" y="410" on="1"/>
        <pt x="294" y="410" on="0"/>
        <pt x="277" y="384" on="0"/>
        <pt x="277" y="361" on="1"/>
        <pt x="277" y="346" on="0"/>
        <pt x="285" y="317" on="0"/>
        <pt x="292" y="303" on="1"/>
        <pt x="266" y="303" on="0"/>
        <pt x="208" y="313" on="0"/>
        <pt x="190" y="321" on="1"/>
        <pt x="185" y="336" on="0"/>
        <pt x="180" y="362" on="0"/>
        <pt x="180" y="377" on="1"/>
        <pt x="180" y="429" on="0"/>
        <pt x="239" y="499" on="0"/>
        <pt x="284" y="499" on="1"/>
        <pt x="357" y="499" on="0"/>
        <pt x="454" y="353" on="0"/>
        <pt x="454" y="251" on="1"/>
        <pt x="454" y="222" on="0"/>
        <pt x="443" y="169" on="0"/>
        <pt x="433" y="148" on="1"/>
        <pt x="447" y="129" on="0"/>
        <pt x="473" y="87" on="0"/>
        <pt x="484" y="64" on="1"/>
        <pt x="497" y="114" on="0"/>
        <pt x="509" y="244" on="0"/>
        <pt x="509" y="334" on="1"/>
        <pt x="509" y="398" on="0"/>
        <pt x="503" y="497" on="0"/>
        <pt x="497" y="541" on="1"/>
        <pt x="463" y="544" on="0"/>
        <pt x="397" y="546" on="0"/>
        <pt x="366" y="546" on="1"/>
        <pt x="271" y="546" on="0"/>
        <pt x="85" y="530" on="0"/>
        <pt x="0" y="514" on="1"/>
        <pt x="-4" y="528" on="0"/>
        <pt x="-8" y="559" on="0"/>
        <pt x="-8" y="574" on="1"/>
        <pt x="-8" y="587" on="0"/>
        <pt x="-4" y="611" on="0"/>
        <pt x="0" y="618" on="1"/>
        <pt x="75" y="635" on="0"/>
        <pt x="268" y="654" on="0"/>
        <pt x="370" y="654" on="1"/>
        <pt x="464" y="654" on="0"/>
        <pt x="637" y="635" on="0"/>
        <pt x="700" y="618" on="1"/>
        <pt x="704" y="609" on="0"/>
        <pt x="707" y="585" on="0"/>
        <pt x="707" y="571" on="1"/>
        <pt x="707" y="556" on="0"/>
        <pt x="703" y="526" on="0"/>
        <pt x="700" y="514" on="1"/>
        <pt x="680" y="518" on="0"/>
        <pt x="638" y="525" on="0"/>
        <pt x="618" y="528" on="1"/>
        <pt x="622" y="487" on="0"/>
        <pt x="625" y="412" on="0"/>
      </contour>
    </TTGlyph>
    <TTGlyph name="bn_aa" xMin="-8" yMin="-49" xMax="974" yMax="658">
      <contour>
        <pt x="896" y="473" on="1"/>
        <pt x="881" y="347" on="0"/>
        <pt x="878" y="87" on="0"/>
        <pt x="889" y="-41" on="1"/>
        <pt x="859" y="-46" on="0"/>
        <pt x="778" y="-49" on="0"/>
        <pt x="754" y="-46" on="1"/>
        <pt x="760" y="152" on="0"/>
        <pt x="773" y="341" on="0"/>
        <pt x="783" y="437" on="1"/>
        <pt x="774" y="473" on="0"/>
        <pt x="697" y="521" on="0"/>
        <pt x="629" y="534" on="1"/>
        <pt x="621" y="486" on="0"/>
        <pt x="612" y="366" on="0"/>
        <pt x="612" y="300" on="1"/>
        <pt x="612" y="200" on="0"/>
        <pt x="626" y="46" on="0"/>
        <pt x="639" y="-4" on="1"/>
        <pt x="617" y="-16" on="0"/>
        <pt x="548" y="-29" on="0"/>
        <pt x="512" y="-29" on="1"/>
        <pt x="489" y="8" on="0"/>
        <pt x="432" y="69" on="0"/>
        <pt x="398" y="93" on="1"/>
        <pt x="379" y="74" on="0"/>
        <pt x="329" y="54" on="0"/>
        <pt x="300" y="54" on="1"/>
        <pt x="206" y="54" on="0"/>
        <pt x="60" y="233" on="0"/>
        <pt x="8" y="411" on="1"/>
        <pt x="26" y="424" on="0"/>
        <pt x="61" y="442" on="0"/>
        <pt x="77" y="447" on="1"/>
        <pt x="120" y="326" on="0"/>
        <pt x="231" y="185" on="0"/>
        <pt x="287" y="185" on="1"/>
        <pt x="326" y="185" on="0"/>
        <pt x="367" y="241" on="0"/>
        <pt x="367" y="295" on="1"/>
        <pt x="367" y="344" on="0"/>
        <pt x="335" y="404" on="0"/>
        <pt x="310" y="404" on="1"/>
        <pt x="294" y="404" on="0"/>
        <pt x="277" y="378" on="0"/>
        <pt x="277" y="355" on="1"/>
        <pt x="277" y="341" on="0"/>
        <pt x="285" y="311" on="0"/>
        <pt x="292" y="297" on="1"/>
        <pt x="266" y="297" on="0"/>
        <pt x="208" y="307" on="0"/>
        <pt x="190" y="315" on="1"/>
        <pt x="185" y="329" on="0"/>
        <pt x="180" y="356" on="0"/>
        <pt x="180" y="371" on="1"/>
        <pt x="180" y="423" on="0"/>
        <pt x="239" y="494" on="0"/>
        <pt x="283" y="494" on="1"/>
        <pt x="356" y="494" on="0"/>
        <pt x="454" y="347" on="0"/>
        <pt x="454" y="246" on="1"/>
        <pt x="454" y="222" on="0"/>
        <pt x="446" y="176" on="0"/>
        <pt x="439" y="157" on="1"/>
        <pt x="458" y="139" on="0"/>
        <pt x="490" y="102" on="0"/>
        <pt x="502" y="83" on="1"/>
        <pt x="502" y="98" on="0"/>
        <pt x="502" y="127" on="0"/>
        <pt x="502" y="142" on="1"/>
        <pt x="502" y="274" on="0"/>
        <pt x="521" y="477" on="0"/>
        <pt x="539" y="546" on="1"/>
        <pt x="509" y="549" on="0"/>
        <pt x="440" y="551" on="0"/>
        <pt x="396" y="551" on="1"/>
        <pt x="293" y="551" on="0"/>
        <pt x="86" y="532" on="0"/>
        <pt x="0" y="514" on="1"/>
        <pt x="-7" y="539" on="0"/>
        <pt x="-8" y="603" on="0"/>
        <pt x="0" y="618" on="1"/>
        <pt x="77" y="637" on="0"/>
        <pt x="289" y="658" on="0"/>
        <pt x="400" y="658" on="1"/>
        <pt x="547" y="658" on="0"/>
        <pt x="780" y="604" on="0"/>
        <pt x="833" y="555" on="1"/>
        <pt x="857" y="577" on="0"/>
        <pt x="926" y="610" on="0"/>
        <pt x="966" y="618" on="1"/>
        <pt x="974" y="604" on="0"/>
        <pt x="974" y="539" on="0"/>
        <pt x="966" y="514" on="1"/>
        <pt x="943" y="509" on="0"/>
        <pt x="908" y="489" on="0"/>
      </contour>
    </TTGlyph>
    <TTGlyph name="bn_aakaar" xMin="-8" yMin="-64" xMax="274" yMax="618">
      <contour>
        <pt x="199" y="477" on="1"/>
        <pt x="198" y="347" on="0"/>
        <pt x="188" y="72" on="0"/>
        <pt x="178" y="-64" on="1"/>
        <pt x="143" y="-64" on="0"/>
        <pt x="64" y="-56" on="0"/>
        <pt x="43" y="-50" on="1"/>
        <pt x="63" y="46" on="0"/>
        <pt x="84" y="266" on="0"/>
        <pt x="87" y="405" on="1"/>
        <pt x="85" y="452" on="0"/>
        <pt x="41" y="507" on="0"/>
        <pt x="0" y="514" on="1"/>
        <pt x="-7" y="534" on="0"/>
        <pt x="-8" y="605" on="0"/>
        <pt x="0" y="618" on="1"/>
        <pt x="36" y="610" on="0"/>
        <pt x="107" y="576" on="0"/>
        <pt x="132" y="555" on="1"/>
        <pt x="156" y="577" on="0"/>
        <pt x="225" y="610" on="0"/>
        <pt x="265" y="618" on="1"/>
        <pt x="274" y="605" on="0"/>
        <pt x="273" y="540" on="0"/>
        <pt x="265" y="514" on="1"/>
        <pt x="243" y="509" on="0"/>
        <pt x="210" y="490" on="0"/>
      </contour>
    </TTGlyph>
    <TTGlyph name="bn_aakaar.b" xMin="-7" yMin="-64" xMax="274" yMax="625">
      <contour>
        <pt x="199" y="477" on="1"/>
        <pt x="198" y="347" on="0"/>
        <pt x="188" y="72" on="0"/>
        <pt x="178" y="-64" on="1"/>
        <pt x="143" y="-64" on="0"/>
        <pt x="64" y="-56" on="0"/>
        <pt x="43" y="-50" on="1"/>
        <pt x="63" y="47" on="0"/>
        <pt x="84" y="269" on="0"/>
        <pt x="87" y="409" on="1"/>
        <pt x="86" y="468" on="0"/>
        <pt x="62" y="519" on="0"/>
        <pt x="35" y="519" on="1"/>
        <pt x="27" y="519" on="0"/>
        <pt x="9" y="516" on="0"/>
        <pt x="0" y="514" on="1"/>
        <pt x="-3" y="525" on="0"/>
        <pt x="-7" y="555" on="0"/>
        <pt x="-7" y="570" on="1"/>
        <pt x="-7" y="585" on="0"/>
        <pt x="-3" y="609" on="0"/>
        <pt x="0" y="618" on="1"/>
        <pt x="13" y="621" on="0"/>
        <pt x="38" y="624" on="0"/>
        <pt x="50" y="624" on="1"/>
        <pt x="80" y="625" on="0"/>
        <pt x="130" y="596" on="0"/>
        <pt x="145" y="567" on="1"/>
        <pt x="168" y="585" on="0"/>
        <pt x="230" y="611" on="0"/>
        <pt x="265" y="618" on="1"/>
        <pt x="274" y="605" on="0"/>
        <pt x="273" y="540" on="0"/>
        <pt x="265" y="514" on="1"/>
        <pt x="243" y="509" on="0"/>
        <pt x="210" y="490" on="0"/>
      </contour>
    </TTGlyph>
    <TTGlyph name="bn_ai" xMin="20" yMin="-32" xMax="677" yMax="926">
      <contour>
        <pt x="544" y="-16" on="1"/>
        <pt x="523" y="-24" on="0"/>
        <pt x="467" y="-32" on="0"/>
        <pt x="440" y="-32" on="1"/>
        <pt x="440" y="-31" on="0"/>
        <pt x="416" y="14" on="0"/>
        <pt x="407" y="25" on="1"/>
        <pt x="396" y="38" on="0"/>
        <pt x="367" y="51" on="0"/>
        <pt x="348" y="51" on="1"/>
        <pt x="334" y="51" on="0"/>
        <pt x="297" y="44" on="0"/>
        <pt x="258" y="31" on="1"/>
        <pt x="214" y="18" on="0"/>
        <pt x="170" y="9" on="0"/>
        <pt x="151" y="9" on="1"/>
        <pt x="91" y="9" on="0"/>
        <pt x="20" y="89" on="0"/>
        <pt x="20" y="156" on="1"/>
        <pt x="20" y="190" on="0"/>
        <pt x="39" y="269" on="0"/>
        <pt x="56" y="307" on="1"/>
        <pt x="83" y="306" on="0"/>
        <pt x="126" y="298" on="0"/>
        <pt x="143" y="291" on="1"/>
        <pt x="133" y="272" on="0"/>
        <pt x="120" y="222" on="0"/>
        <pt x="120" y="202" on="1"/>
        <pt x="120" y="175" on="0"/>
        <pt x="148" y="146" on="0"/>
        <pt x="173" y="146" on="1"/>
        <pt x="184" y="146" on="0"/>
        <pt x="214" y="152" on="0"/>
        <pt x="246" y="163" on="1"/>
        <pt x="282" y="174" on="0"/>
        <pt x="317" y="181" on="0"/>
        <pt x="331" y="181" on="1"/>
        <pt x="365" y="181" on="0"/>
        <pt x="411" y="137" on="0"/>
        <pt x="428" y="88" on="1"/>
        <pt x="443" y="175" on="0"/>
        <pt x="459" y="406" on="0"/>
        <pt x="459" y="526" on="1"/>
        <pt x="459" y="551" on="0"/>
        <pt x="439" y="579" on="0"/>
        <pt x="421" y="579" on="1"/>
        <pt x="383" y="579" on="0"/>
        <pt x="298" y="474" on="0"/>
        <pt x="298" y="428" on="1"/>
        <pt x="298" y="408" on="0"/>
        <pt x="320" y="386" on="0"/>
        <pt x="340" y="386" on="1"/>
        <pt x="356" y="386" on="0"/>
        <pt x="386" y="399" on="0"/>
        <pt x="400" y="412" on="1"/>
        <pt x="402" y="409" on="0"/>
        <pt x="404" y="398" on="0"/>
        <pt x="404" y="389" on="1"/>
        <pt x="404" y="364" on="0"/>
        <pt x="388" y="308" on="0"/>
        <pt x="375" y="290" on="1"/>
        <pt x="361" y="281" on="0"/>
        <pt x="325" y="271" on="0"/>
        <pt x="306" y="271" on="1"/>
        <pt x="246" y="271" on="0"/>
        <pt x="167" y="347" on="0"/>
        <pt x="167" y="408" on="1"/>
        <pt x="167" y="499" on="0"/>
        <pt x="321" y="661" on="0"/>
        <pt x="409" y="661" on="1"/>
        <pt x="469" y="661" on="0"/>
        <pt x="558" y="582" on="0"/>
        <pt x="568" y="519" on="1"/>
        <pt x="592" y="541" on="0"/>
        <pt x="617" y="590" on="0"/>
        <pt x="617" y="615" on="1"/>
        <pt x="617" y="651" on="0"/>
        <pt x="556" y="688" on="0"/>
        <pt x="439" y="704" on="1"/>
        <pt x="316" y="720" on="0"/>
        <pt x="228" y="799" on="0"/>
        <pt x="214" y="888" on="1"/>
        <pt x="232" y="900" on="0"/>
        <pt x="276" y="920" on="0"/>
        <pt x="299" y="926" on="1"/>
        <pt x="310" y="865" on="0"/>
        <pt x="360" y="813" on="0"/>
        <pt x="425" y="803" on="1"/>
        <pt x="503" y="791" on="1"/>
        <pt x="589" y="777" on="0"/>
        <pt x="677" y="685" on="0"/>
        <pt x="677" y="607" on="1"/>
        <pt x="677" y="550" on="0"/>
        <pt x="625" y="446" on="0"/>
        <pt x="570" y="391" on="1"/>
        <pt x="569" y="284" on="0"/>
        <pt x="556" y="84" on="0"/>
      </contour>
    </TTGlyph>
    <TTGlyph name="bn_aikaar" xMin="-112" yMin="-79" xMax="379" yMax="849">
      <contour>
        <pt x="379" y="-4" on="1"/>
        <pt x="351" y="-42" on="0"/>
        <pt x="288" y="-79" on="0"/>
        <pt x="250" y="-79" on="1"/>
        <pt x="162" y="-79" on="0"/>
        <pt x="57" y="88" on="0"/>
        <pt x="57" y="229" on="1"/>
        <pt x="57" y="303" on="0"/>
        <pt x="77" y="425" on="0"/>
        <pt x="98" y="474" on="1"/>
        <pt x="83" y="487" on="0"/>
        <pt x="31" y="508" on="0"/>
        <pt x="0" y="514" on="1"/>
        <pt x="-3" y="524" on="0"/>
        <pt x="-7" y="554" on="0"/>
        <pt x="-7" y="569" on="1"/>
        <pt x="-7" y="585" on="0"/>
        <pt x="-4" y="610" on="0"/>
        <pt x="0" y="618" on="1"/>
        <pt x="52" y="608" on="0"/>
        <pt x="133" y="577" on="0"/>
        <pt x="160" y="557" on="1"/>
        <pt x="177" y="571" on="0"/>
        <pt x="222" y="594" on="0"/>
        <pt x="252" y="603" on="1"/>
        <pt x="240" y="660" on="0"/>
        <pt x="200" y="703" on="0"/>
        <pt x="166" y="703" on="1"/>
        <pt x="156" y="703" on="0"/>
        <pt x="132" y="700" on="0"/>
        <pt x="107" y="694" on="1"/>
        <pt x="80" y="688" on="0"/>
        <pt x="52" y="684" on="0"/>
        <pt x="40" y="684" on="1"/>
        <pt x="-5" y="684" on="0"/>
        <pt x="-79" y="735" on="0"/>
        <pt x="-112" y="790" on="1"/>
        <pt x="-100" y="805" on="0"/>
        <pt x="-65" y="835" on="0"/>
        <pt x="-41" y="849" on="1"/>
        <pt x="-19" y="813" on="0"/>
        <pt x="24" y="783" on="0"/>
        <pt x="51" y="783" on="1"/>
        <pt x="59" y="783" on="0"/>
        <pt x="80" y="786" on="0"/>
        <pt x="103" y="792" on="1"/>
        <pt x="130" y="798" on="0"/>
        <pt x="158" y="802" on="0"/>
        <pt x="169" y="802" on="1"/>
        <pt x="225" y="802" on="0"/>
        <pt x="302" y="705" on="0"/>
        <pt x="316" y="618" on="1"/>
        <pt x="320" y="609" on="0"/>
        <pt x="324" y="586" on="0"/>
        <pt x="324" y="572" on="1"/>
        <pt x="324" y="555" on="0"/>
        <pt x="320" y="524" on="0"/>
        <pt x="316" y="514" on="1"/>
        <pt x="238" y="502" on="0"/>
        <pt x="174" y="367" on="0"/>
        <pt x="174" y="214" on="1"/>
        <pt x="174" y="103" on="0"/>
        <pt x="198" y="3" on="0"/>
        <pt x="225" y="3" on="1"/>
        <pt x="243" y="3" on="0"/>
        <pt x="275" y="44" on="0"/>
        <pt x="304" y="105" on="1"/>
        <pt x="331" y="90" on="0"/>
        <pt x="379" y="20" on="0"/>
      </contour>
    </TTGlyph>
    <TTGlyph name="bn_aikaar.init" xMin="-93" yMin="-79" xMax="365" yMax="849">
      <contour>
        <pt x="365" y="-4" on="1"/>
        <pt x="338" y="-42" on="0"/>
        <pt x="274" y="-79" on="0"/>
        <pt x="235" y="-79" on="1"/>
        <pt x="146" y="-79" on="0"/>
        <pt x="35" y="87" on="0"/>
        <pt x="35" y="219" on="1"/>
        <pt x="35" y="376" on="0"/>
        <pt x="150" y="562" on="0"/>
        <pt x="271" y="602" on="1"/>
        <pt x="259" y="659" on="0"/>
        <pt x="219" y="703" on="0"/>
        <pt x="185" y="703" on="1"/>
        <pt x="175" y="703" on="0"/>
        <pt x="151" y="700" on="0"/>
        <pt x="126" y="694" on="1"/>
        <pt x="99" y="688" on="0"/>
        <pt x="71" y="684" on="0"/>
        <pt x="59" y="684" on="1"/>
        <pt x="13" y="684" on="0"/>
        <pt x="-62" y="736" on="0"/>
        <pt x="-93" y="790" on="1"/>
        <pt x="-81" y="805" on="0"/>
        <pt x="-46" y="835" on="0"/>
        <pt x="-22" y="849" on="1"/>
        <pt x="0" y="813" on="0"/>
        <pt x="43" y="783" on="0"/>
        <pt x="69" y="783" on="1"/>
        <pt x="77" y="783" on="0"/>
        <pt x="99" y="786" on="0"/>
        <pt x="122" y="792" on="1"/>
        <pt x="149" y="798" on="0"/>
        <pt x="177" y="802" on="0"/>
        <pt x="188" y="802" on="1"/>
        <pt x="244" y="802" on="0"/>
        <pt x="321" y="704" on="0"/>
        <pt x="334" y="618" on="1"/>
        <pt x="339" y="609" on="0"/>
        <pt x="343" y="586" on="0"/>
        <pt x="343" y="570" on="1"/>
        <pt x="343" y="556" on="0"/>
        <pt x="338" y="525" on="0"/>
        <pt x="334" y="514" on="1"/>
        <pt x="237" y="500" on="0"/>
        <pt x="152" y="349" on="0"/>
        <pt x="152" y="192" on="1"/>
        <pt x="152" y="103" on="0"/>
        <pt x="183" y="3" on="0"/>
        <pt x="210" y="3" on="1"/>
        <pt x="228" y="3" on="0"/>
        <pt x="263" y="48" on="0"/>
        <pt x="290" y="105" on="1"/>
        <pt x="317" y="90" on="0"/>
        <pt x="365" y="20" on="0"/>
      </contour>
    </TTGlyph>
    <TTGlyph name="bn_anusvar" xMin="9" yMin="-56" xMax="436" yMax="630">
      <contour>
        <pt x="234" y="630" on="1"/>
        <pt x="299" y="630" on="0"/>
        <pt x="383" y="548" on="0"/>
        <pt x="382" y="486" on="1"/>
        <pt x="381" y="418" on="0"/>
        <pt x="283" y="323" on="0"/>
        <pt x="213" y="323" on="1"/>
        <pt x="150" y="323" on="0"/>
        <pt x="66" y="405" on="0"/>
        <pt x="67" y="466" on="1"/>
        <pt x="68" y="535" on="0"/>
        <pt x="164" y="630" on="0"/>
      </contour>
      <contour>
        <pt x="209" y="549" on="1"/>
        <pt x="182" y="549" on="0"/>
        <pt x="150" y="519" on="0"/>
        <pt x="150" y="493" on="1"/>
        <pt x="150" y="456" on="0"/>
        <pt x="203" y="405" on="0"/>
        <pt x="240" y="405" on="1"/>
        <pt x="267" y="405" on="0"/>
        <pt x="299" y="436" on="0"/>
        <pt x="299" y="461" on="1"/>
        <pt x="299" y="498" on="0"/>
        <pt x="247" y="549" on="0"/>
      </contour>
      <contour>
        <pt x="67" y="321" on="1"/>
        <pt x="177" y="280" on="0"/>
        <pt x="384" y="107" on="0"/>
        <pt x="436" y="10" on="1"/>
        <pt x="425" y="-10" on="0"/>
        <pt x="385" y="-45" on="0"/>
        <pt x="362" y="-56" on="1"/>
        <pt x="305" y="38" on="0"/>
        <pt x="112" y="182" on="0"/>
        <pt x="9" y="209" on="1"/>
        <pt x="19" y="242" on="0"/>
        <pt x="48" y="298" on="0"/>
      </contour>
    </TTGlyph>
    <TTGlyph name="bn_au" xMin="18" yMin="-33" xMax="752" yMax="927">
      <contour>
        <pt x="673" y="156" on="1"/>
        <pt x="673" y="72" on="0"/>
        <pt x="562" y="-33" on="0"/>
        <pt x="468" y="-33" on="1"/>
        <pt x="317" y="-33" on="0"/>
        <pt x="94" y="252" on="0"/>
        <pt x="18" y="550" on="1"/>
        <pt x="38" y="563" on="0"/>
        <pt x="80" y="582" on="0"/>
        <pt x="102" y="589" on="1"/>
        <pt x="163" y="361" on="0"/>
        <pt x="361" y="96" on="0"/>
        <pt x="475" y="96" on="1"/>
        <pt x="524" y="96" on="0"/>
        <pt x="578" y="144" on="0"/>
        <pt x="578" y="188" on="1"/>
        <pt x="578" y="206" on="0"/>
        <pt x="568" y="239" on="0"/>
        <pt x="558" y="253" on="1"/>
        <pt x="541" y="231" on="0"/>
        <pt x="496" y="208" on="0"/>
        <pt x="471" y="208" on="1"/>
        <pt x="426" y="208" on="0"/>
        <pt x="367" y="269" on="0"/>
        <pt x="367" y="317" on="1"/>
        <pt x="367" y="364" on="0"/>
        <pt x="425" y="427" on="0"/>
        <pt x="467" y="427" on="1"/>
        <pt x="486" y="427" on="0"/>
        <pt x="524" y="411" on="0"/>
        <pt x="538" y="397" on="1"/>
        <pt x="555" y="418" on="0"/>
        <pt x="573" y="464" on="0"/>
        <pt x="573" y="488" on="1"/>
        <pt x="573" y="524" on="0"/>
        <pt x="530" y="564" on="0"/>
        <pt x="491" y="566" on="1"/>
        <pt x="428" y="568" on="0"/>
        <pt x="338" y="484" on="0"/>
        <pt x="338" y="426" on="1"/>
        <pt x="338" y="414" on="0"/>
        <pt x="340" y="392" on="0"/>
        <pt x="341" y="384" on="1"/>
        <pt x="307" y="384" on="0"/>
        <pt x="234" y="411" on="0"/>
        <pt x="214" y="432" on="1"/>
        <pt x="213" y="528" on="0"/>
        <pt x="350" y="660" on="0"/>
        <pt x="451" y="660" on="1"/>
        <pt x="526" y="660" on="0"/>
        <pt x="636" y="585" on="0"/>
        <pt x="655" y="522" on="1"/>
        <pt x="672" y="543" on="0"/>
        <pt x="691" y="590" on="0"/>
        <pt x="691" y="612" on="1"/>
        <pt x="691" y="649" on="0"/>
        <pt x="630" y="687" on="0"/>
        <pt x="514" y="704" on="1"/>
        <pt x="390" y="723" on="0"/>
        <pt x="304" y="801" on="0"/>
        <pt x="290" y="887" on="1"/>
        <pt x="307" y="899" on="0"/>
        <pt x="349" y="919" on="0"/>
        <pt x="375" y="927" on="1"/>
        <pt x="386" y="866" on="0"/>
        <pt x="434" y="815" on="0"/>
        <pt x="501" y="804" on="1"/>
        <pt x="577" y="791" on="1"/>
        <pt x="664" y="777" on="0"/>
        <pt x="752" y="685" on="0"/>
        <pt x="752" y="609" on="1"/>
        <pt x="752" y="552" on="0"/>
        <pt x="701" y="440" on="0"/>
        <pt x="650" y="386" on="1"/>
        <pt x="643" y="366" on="0"/>
        <pt x="623" y="329" on="0"/>
        <pt x="610" y="314" on="1"/>
        <pt x="640" y="281" on="0"/>
        <pt x="673" y="199" on="0"/>
      </contour>
      <contour>
        <pt x="425" y="333" on="1"/>
        <pt x="425" y="319" on="0"/>
        <pt x="443" y="302" on="0"/>
        <pt x="458" y="302" on="1"/>
        <pt x="471" y="302" on="0"/>
        <pt x="497" y="319" on="0"/>
        <pt x="510" y="337" on="1"/>
        <pt x="499" y="353" on="0"/>
        <pt x="474" y="370" on="0"/>
        <pt x="461" y="370" on="1"/>
        <pt x="446" y="370" on="0"/>
        <pt x="425" y="348" on="0"/>
      </contour>
    </TTGlyph>
    <TTGlyph name="bn_aukaar" xMin="-7" yMin="-79" xMax="1281" yMax="974">
      <contour>
        <pt x="1207" y="477" on="1"/>
        <pt x="1207" y="370" on="0"/>
        <pt x="1200" y="127" on="0"/>
        <pt x="1192" y="-58" on="1"/>
        <pt x="1158" y="-58" on="0"/>
        <pt x="1081" y="-53" on="0"/>
        <pt x="1060" y="-49" on="1"/>
        <pt x="1076" y="56" on="0"/>
        <pt x="1093" y="273" on="0"/>
        <pt x="1095" y="398" on="1"/>
        <pt x="1095" y="398" on="1"/>
        <pt x="1095" y="447" on="0"/>
        <pt x="1051" y="506" on="0"/>
        <pt x="1008" y="514" on="1"/>
        <pt x="1005" y="525" on="0"/>
        <pt x="1000" y="558" on="0"/>
        <pt x="1000" y="572" on="1"/>
        <pt x="1000" y="587" on="0"/>
        <pt x="1004" y="611" on="0"/>
        <pt x="1008" y="618" on="1"/>
        <pt x="1043" y="610" on="0"/>
        <pt x="1114" y="577" on="0"/>
        <pt x="1139" y="556" on="1"/>
        <pt x="1151" y="569" on="0"/>
        <pt x="1164" y="602" on="0"/>
        <pt x="1164" y="621" on="1"/>
        <pt x="1164" y="642" on="0"/>
        <pt x="1132" y="681" on="0"/>
        <pt x="1065" y="728" on="1"/>
        <pt x="1018" y="762" on="0"/>
        <pt x="986" y="788" on="0"/>
        <pt x="975" y="800" on="1"/>
        <pt x="955" y="822" on="0"/>
        <pt x="936" y="872" on="0"/>
        <pt x="936" y="904" on="1"/>
        <pt x="936" y="917" on="0"/>
        <pt x="939" y="947" on="0"/>
        <pt x="942" y="963" on="1"/>
        <pt x="961" y="969" on="0"/>
        <pt x="1007" y="974" on="0"/>
        <pt x="1033" y="973" on="1"/>
        <pt x="1030" y="957" on="0"/>
        <pt x="1028" y="935" on="0"/>
        <pt x="1028" y="926" on="1"/>
        <pt x="1028" y="893" on="0"/>
        <pt x="1058" y="847" on="0"/>
        <pt x="1119" y="806" on="1"/>
        <pt x="1175" y="769" on="0"/>
        <pt x="1226" y="695" on="0"/>
        <pt x="1226" y="649" on="1"/>
        <pt x="1226" y="636" on="0"/>
        <pt x="1223" y="614" on="0"/>
        <pt x="1220" y="603" on="1"/>
        <pt x="1232" y="607" on="0"/>
        <pt x="1259" y="615" on="0"/>
        <pt x="1273" y="618" on="1"/>
        <pt x="1277" y="612" on="0"/>
        <pt x="1281" y="591" on="0"/>
        <pt x="1281" y="575" on="1"/>
        <pt x="1281" y="558" on="0"/>
        <pt x="1277" y="526" on="0"/>
        <pt x="1273" y="514" on="1"/>
        <pt x="1251" y="509" on="0"/>
        <pt x="1218" y="490" on="0"/>
      </contour>
      <contour>
        <pt x="379" y="-4" on="1"/>
        <pt x="351" y="-42" on="0"/>
        <pt x="288" y="-79" on="0"/>
        <pt x="250" y="-79" on="1"/>
        <pt x="162" y="-79" on="0"/>
        <pt x="57" y="88" on="0"/>
        <pt x="57" y="229" on="1"/>
        <pt x="57" y="303" on="0"/>
        <pt x="77" y="425" on="0"/>
        <pt x="98" y="474" on="1"/>
        <pt x="83" y="487" on="0"/>
        <pt x="31" y="508" on="0"/>
        <pt x="0" y="514" on="1"/>
        <pt x="-3" y="524" on="0"/>
        <pt x="-7" y="554" on="0"/>
        <pt x="-7" y="569" on="1"/>
        <pt x="-7" y="585" on="0"/>
        <pt x="-4" y="610" on="0"/>
        <pt x="0" y="618" on="1"/>
        <pt x="52" y="608" on="0"/>
        <pt x="133" y="577" on="0"/>
        <pt x="160" y="557" on="1"/>
        <pt x="185" y="578" on="0"/>
        <pt x="262" y="608" on="0"/>
        <pt x="316" y="618" on="1"/>
        <pt x="320" y="609" on="0"/>
        <pt x="324" y="586" on="0"/>
        <pt x="324" y="572" on="1"/>
        <pt x="324" y="555" on="0"/>
        <pt x="320" y="524" on="0"/>
        <pt x="316" y="514" on="1"/>
        <pt x="238" y="502" on="0"/>
        <pt x="174" y="367" on="0"/>
        <pt x="174" y="214" on="1"/>
        <pt x="174" y="103" on="0"/>
        <pt x="198" y="3" on="0"/>
        <pt x="225" y="3" on="1"/>
        <pt x="243" y="3" on="0"/>
        <pt x="275" y="44" on="0"/>
        <pt x="304" y="105" on="1"/>
        <pt x="331" y="90" on="0"/>
        <pt x="379" y="20" on="0"/>
      </contour>
      <contour>
        <pt x="667" y="611" on="1"/>
        <pt x="686" y="611" on="0"/>
        <pt x="709" y="587" on="0"/>
        <pt x="709" y="567" on="1"/>
        <pt x="709" y="547" on="0"/>
        <pt x="687" y="524" on="0"/>
        <pt x="667" y="524" on="1"/>
        <pt x="647" y="524" on="0"/>
        <pt x="625" y="547" on="0"/>
        <pt x="625" y="567" on="1"/>
        <pt x="625" y="588" on="0"/>
        <pt x="647" y="611" on="0"/>
      </contour>
      <contour>
        <pt x="805" y="572" on="1"/>
        <pt x="825" y="572" on="0"/>
        <pt x="849" y="548" on="0"/>
        <pt x="849" y="528" on="1"/>
        <pt x="849" y="510" on="0"/>
        <pt x="825" y="487" on="0"/>
        <pt x="805" y="487" on="1"/>
        <pt x="786" y="487" on="0"/>
        <pt x="764" y="509" on="0"/>
        <pt x="764" y="528" on="1"/>
        <pt x="764" y="548" on="0"/>
        <pt x="787" y="572" on="0"/>
      </contour>
      <contour>
        <pt x="526" y="572" on="1"/>
        <pt x="545" y="572" on="0"/>
        <pt x="569" y="548" on="0"/>
        <pt x="569" y="528" on="1"/>
        <pt x="569" y="509" on="0"/>
        <pt x="546" y="487" on="0"/>
        <pt x="526" y="487" on="1"/>
        <pt x="507" y="487" on="0"/>
        <pt x="485" y="509" on="0"/>
        <pt x="485" y="528" on="1"/>
        <pt x="485" y="548" on="0"/>
        <pt x="508" y="572" on="0"/>
      </contour>
      <contour>
        <pt x="909" y="470" on="1"/>
        <pt x="928" y="470" on="0"/>
        <pt x="949" y="447" on="0"/>
        <pt x="949" y="427" on="1"/>
        <pt x="949" y="407" on="0"/>
        <pt x="927" y="384" on="0"/>
        <pt x="909" y="384" on="1"/>
        <pt x="890" y="384" on="0"/>
        <pt x="865" y="409" on="0"/>
        <pt x="865" y="427" on="1"/>
        <pt x="865" y="446" on="0"/>
        <pt x="890" y="470" on="0"/>
      </contour>
      <contour>
        <pt x="427" y="470" on="1"/>
        <pt x="446" y="470" on="0"/>
        <pt x="467" y="447" on="0"/>
        <pt x="467" y="426" on="1"/>
        <pt x="467" y="408" on="0"/>
        <pt x="445" y="384" on="0"/>
        <pt x="427" y="384" on="1"/>
        <pt x="408" y="384" on="0"/>
        <pt x="383" y="409" on="0"/>
        <pt x="383" y="427" on="1"/>
        <pt x="383" y="446" on="0"/>
        <pt x="407" y="470" on="0"/>
      </contour>
      <contour>
        <pt x="390" y="334" on="1"/>
        <pt x="409" y="334" on="0"/>
        <pt x="431" y="311" on="0"/>
        <pt x="431" y="291" on="1"/>
        <pt x="431" y="270" on="0"/>
        <pt x="409" y="247" on="0"/>
        <pt x="390" y="247" on="1"/>
        <pt x="370" y="247" on="0"/>
        <pt x="346" y="271" on="0"/>
        <pt x="346" y="291" on="1"/>
        <pt x="346" y="310" on="0"/>
        <pt x="370" y="334" on="0"/>
      </contour>
      <contour>
        <pt x="946" y="334" on="1"/>
        <pt x="965" y="334" on="0"/>
        <pt x="987" y="311" on="0"/>
        <pt x="987" y="291" on="1"/>
        <pt x="987" y="270" on="0"/>
        <pt x="965" y="247" on="0"/>
        <pt x="946" y="247" on="1"/>
        <pt x="927" y="247" on="0"/>
        <pt x="903" y="272" on="0"/>
        <pt x="903" y="291" on="1"/>
        <pt x="903" y="310" on="0"/>
        <pt x="927" y="334" on="0"/>
      </contour>
      <contour>
        <pt x="909" y="197" on="1"/>
        <pt x="928" y="197" on="0"/>
        <pt x="949" y="175" on="0"/>
        <pt x="949" y="155" on="1"/>
        <pt x="949" y="134" on="0"/>
        <pt x="928" y="110" on="0"/>
        <pt x="909" y="110" on="1"/>
        <pt x="890" y="110" on="0"/>
        <pt x="865" y="135" on="0"/>
        <pt x="865" y="155" on="1"/>
        <pt x="865" y="173" on="0"/>
        <pt x="890" y="197" on="0"/>
      </contour>
      <contour>
        <pt x="427" y="197" on="1"/>
        <pt x="446" y="197" on="0"/>
        <pt x="467" y="175" on="0"/>
        <pt x="467" y="155" on="1"/>
        <pt x="467" y="134" on="0"/>
        <pt x="446" y="110" on="0"/>
        <pt x="427" y="110" on="1"/>
        <pt x="407" y="110" on="0"/>
        <pt x="383" y="135" on="0"/>
        <pt x="383" y="155" on="1"/>
        <pt x="383" y="174" on="0"/>
        <pt x="407" y="197" on="0"/>
      </contour>
      <contour>
        <pt x="805" y="95" on="1"/>
        <pt x="825" y="95" on="0"/>
        <pt x="849" y="71" on="0"/>
        <pt x="849" y="52" on="1"/>
        <pt x="849" y="33" on="0"/>
        <pt x="825" y="10" on="0"/>
        <pt x="805" y="10" on="1"/>
        <pt x="786" y="10" on="0"/>
        <pt x="764" y="33" on="0"/>
        <pt x="764" y="52" on="1"/>
        <pt x="764" y="72" on="0"/>
        <pt x="786" y="95" on="0"/>
      </contour>
      <contour>
        <pt x="526" y="95" on="1"/>
        <pt x="546" y="95" on="0"/>
        <pt x="569" y="72" on="0"/>
        <pt x="569" y="52" on="1"/>
        <pt x="569" y="33" on="0"/>
        <pt x="545" y="10" on="0"/>
        <pt x="526" y="10" on="1"/>
        <pt x="507" y="10" on="0"/>
        <pt x="485" y="33" on="0"/>
        <pt x="485" y="52" on="1"/>
        <pt x="485" y="72" on="0"/>
        <pt x="507" y="95" on="0"/>
      </contour>
      <contour>
        <pt x="667" y="58" on="1"/>
        <pt x="686" y="58" on="0"/>
        <pt x="709" y="34" on="0"/>
        <pt x="709" y="14" on="1"/>
        <pt x="709" y="-5" on="0"/>
        <pt x="686" y="-28" on="0"/>
        <pt x="667" y="-28" on="1"/>
        <pt x="647" y="-28" on="0"/>
        <pt x="625" y="-6" on="0"/>
        <pt x="625" y="14" on="1"/>
        <pt x="625" y="35" on="0"/>
        <pt x="647" y="58" on="0"/>
      </contour>
    </TTGlyph>
    <TTGlyph name="bn_aumark" xMin="-72" yMin="-58" xMax="273" yMax="974">
      <contour>
        <pt x="199" y="477" on="1"/>
        <pt x="199" y="370" on="0"/>
        <pt x="192" y="127" on="0"/>
        <pt x="184" y="-58" on="1"/>
        <pt x="150" y="-58" on="0"/>
        <pt x="73" y="-53" on="0"/>
        <pt x="52" y="-49" on="1"/>
        <pt x="68" y="56" on="0"/>
        <pt x="85" y="273" on="0"/>
        <pt x="87" y="398" on="1"/>
        <pt x="87" y="398" on="1"/>
        <pt x="87" y="447" on="0"/>
        <pt x="43" y="506" on="0"/>
        <pt x="0" y="514" on="1"/>
        <pt x="-3" y="525" on="0"/>
        <pt x="-8" y="558" on="0"/>
        <pt x="-8" y="572" on="1"/>
        <pt x="-8" y="587" on="0"/>
        <pt x="-4" y="611" on="0"/>
        <pt x="0" y="618" on="1"/>
        <pt x="35" y="610" on="0"/>
        <pt x="106" y="577" on="0"/>
        <pt x="131" y="556" on="1"/>
        <pt x="143" y="569" on="0"/>
        <pt x="156" y="602" on="0"/>
        <pt x="156" y="621" on="1"/>
        <pt x="156" y="642" on="0"/>
        <pt x="124" y="681" on="0"/>
        <pt x="57" y="728" on="1"/>
        <pt x="10" y="762" on="0"/>
        <pt x="-22" y="788" on="0"/>
        <pt x="-33" y="800" on="1"/>
        <pt x="-53" y="822" on="0"/>
        <pt x="-72" y="872" on="0"/>
        <pt x="-72" y="904" on="1"/>
        <pt x="-72" y="917" on="0"/>
        <pt x="-69" y="947" on="0"/>
        <pt x="-66" y="963" on="1"/>
        <pt x="-47" y="969" on="0"/>
        <pt x="-1" y="974" on="0"/>
        <pt x="25" y="973" on="1"/>
        <pt x="22" y="957" on="0"/>
        <pt x="20" y="935" on="0"/>
        <pt x="20" y="926" on="1"/>
        <pt x="20" y="893" on="0"/>
        <pt x="50" y="847" on="0"/>
        <pt x="111" y="806" on="1"/>
        <pt x="167" y="769" on="0"/>
        <pt x="218" y="695" on="0"/>
        <pt x="218" y="649" on="1"/>
        <pt x="218" y="636" on="0"/>
        <pt x="215" y="614" on="0"/>
        <pt x="212" y="603" on="1"/>
        <pt x="224" y="607" on="0"/>
        <pt x="251" y="615" on="0"/>
        <pt x="265" y="618" on="1"/>
        <pt x="269" y="612" on="0"/>
        <pt x="273" y="591" on="0"/>
        <pt x="273" y="575" on="1"/>
        <pt x="273" y="558" on="0"/>
        <pt x="269" y="526" on="0"/>
        <pt x="265" y="514" on="1"/>
        <pt x="243" y="509" on="0"/>
        <pt x="210" y="490" on="0"/>
      </contour>
    </TTGlyph>
    <TTGlyph name="bn_aumark_reph" xMin="-72" yMin="-58" xMax="308" yMax="1055">
      <component glyphName="bn_aumark" x="0" y="0" flags="0x204"/>
      <component glyphName="bn_reph" x="133" y="0" flags="0x4"/>
    </TTGlyph>
    <TTGlyph name="bn_avagraha" xMin="23" yMin="-55" xMax="497" yMax="660">
      <contour>
        <pt x="148" y="469" on="1"/>
        <pt x="148" y="450" on="0"/>
        <pt x="177" y="427" on="0"/>
        <pt x="201" y="427" on="1"/>
        <pt x="226" y="427" on="0"/>
        <pt x="262" y="455" on="0"/>
        <pt x="270" y="479" on="1"/>
        <pt x="254" y="492" on="0"/>
        <pt x="218" y="505" on="0"/>
        <pt x="200" y="505" on="1"/>
        <pt x="175" y="505" on="0"/>
        <pt x="148" y="486" on="0"/>
      </contour>
      <contour>
        <pt x="497" y="16" on="1"/>
        <pt x="483" y="-2" on="0"/>
        <pt x="449" y="-39" on="0"/>
        <pt x="431" y="-55" on="1"/>
        <pt x="339" y="40" on="0"/>
        <pt x="148" y="165" on="0"/>
        <pt x="43" y="199" on="1"/>
        <pt x="23" y="337" on="1"/>
        <pt x="69" y="318" on="0"/>
        <pt x="163" y="297" on="0"/>
        <pt x="205" y="297" on="1"/>
        <pt x="261" y="297" on="0"/>
        <pt x="318" y="338" on="0"/>
        <pt x="318" y="378" on="1"/>
        <pt x="318" y="385" on="0"/>
        <pt x="317" y="398" on="0"/>
        <pt x="315" y="405" on="1"/>
        <pt x="300" y="385" on="0"/>
        <pt x="253" y="364" on="0"/>
        <pt x="222" y="364" on="1"/>
        <pt x="156" y="364" on="0"/>
        <pt x="68" y="431" on="0"/>
        <pt x="68" y="487" on="1"/>
        <pt x="68" y="532" on="0"/>
        <pt x="130" y="582" on="0"/>
        <pt x="182" y="582" on="1"/>
        <pt x="209" y="582" on="0"/>
        <pt x="263" y="567" on="0"/>
        <pt x="289" y="552" on="1"/>
        <pt x="297" y="581" on="0"/>
        <pt x="308" y="637" on="0"/>
        <pt x="310" y="660" on="1"/>
        <pt x="335" y="658" on="0"/>
        <pt x="386" y="642" on="0"/>
        <pt x="403" y="632" on="1"/>
        <pt x="396" y="591" on="0"/>
        <pt x="378" y="518" on="0"/>
        <pt x="367" y="484" on="1"/>
        <pt x="393" y="451" on="0"/>
        <pt x="422" y="374" on="0"/>
        <pt x="422" y="336" on="1"/>
        <pt x="422" y="274" on="0"/>
        <pt x="343" y="197" on="0"/>
        <pt x="272" y="187" on="1"/>
        <pt x="325" y="154" on="0"/>
        <pt x="436" y="69" on="0"/>
      </contour>
    </TTGlyph>
    <TTGlyph name="bn_b_ba" xMin="-8" yMin="-29" xMax="901" yMax="660">
      <contour>
        <pt x="740" y="537" on="1"/>
        <pt x="678" y="544" on="0"/>
        <pt x="545" y="552" on="0"/>
        <pt x="478" y="552" on="1"/>
        <pt x="468" y="552" on="0"/>
        <pt x="449" y="552" on="0"/>
        <pt x="439" y="552" on="1"/>
        <pt x="431" y="492" on="0"/>
        <pt x="424" y="376" on="0"/>
        <pt x="423" y="312" on="1"/>
        <pt x="479" y="370" on="0"/>
        <pt x="640" y="473" on="0"/>
        <pt x="734" y="510" on="1"/>
        <pt x="736" y="517" on="0"/>
        <pt x="739" y="530" on="0"/>
      </contour>
      <contour>
        <pt x="815" y="298" on="1"/>
        <pt x="815" y="194" on="0"/>
        <pt x="828" y="45" on="0"/>
        <pt x="842" y="-4" on="1"/>
        <pt x="820" y="-16" on="0"/>
        <pt x="752" y="-29" on="0"/>
        <pt x="715" y="-29" on="1"/>
        <pt x="669" y="53" on="0"/>
        <pt x="547" y="150" on="0"/>
        <pt x="468" y="167" on="1"/>
        <pt x="451" y="191" on="0"/>
        <pt x="429" y="236" on="0"/>
        <pt x="423" y="258" on="1"/>
        <pt x="425" y="168" on="0"/>
        <pt x="439" y="39" on="0"/>
        <pt x="451" y="-4" on="1"/>
        <pt x="429" y="-16" on="0"/>
        <pt x="360" y="-29" on="0"/>
        <pt x="324" y="-29" on="1"/>
        <pt x="278" y="53" on="0"/>
        <pt x="155" y="150" on="0"/>
        <pt x="76" y="167" on="1"/>
        <pt x="52" y="200" on="0"/>
        <pt x="27" y="266" on="0"/>
        <pt x="24" y="304" on="1"/>
        <pt x="80" y="365" on="0"/>
        <pt x="245" y="471" on="0"/>
        <pt x="342" y="509" on="1"/>
        <pt x="343" y="512" on="0"/>
        <pt x="344" y="520" on="0"/>
        <pt x="346" y="527" on="1"/>
        <pt x="347" y="536" on="0"/>
        <pt x="349" y="545" on="0"/>
        <pt x="350" y="549" on="1"/>
        <pt x="252" y="546" on="0"/>
        <pt x="67" y="527" on="0"/>
        <pt x="0" y="514" on="1"/>
        <pt x="-4" y="527" on="0"/>
        <pt x="-8" y="558" on="0"/>
        <pt x="-8" y="572" on="1"/>
        <pt x="-8" y="587" on="0"/>
        <pt x="-4" y="612" on="0"/>
        <pt x="0" y="618" on="1"/>
        <pt x="84" y="637" on="0"/>
        <pt x="341" y="660" on="0"/>
        <pt x="477" y="660" on="1"/>
        <pt x="586" y="660" on="0"/>
        <pt x="806" y="637" on="0"/>
        <pt x="892" y="618" on="1"/>
        <pt x="896" y="612" on="0"/>
        <pt x="901" y="587" on="0"/>
        <pt x="901" y="572" on="1"/>
        <pt x="901" y="556" on="0"/>
        <pt x="896" y="525" on="0"/>
        <pt x="892" y="514" on="1"/>
        <pt x="879" y="517" on="0"/>
        <pt x="831" y="524" on="0"/>
        <pt x="828" y="525" on="1"/>
        <pt x="821" y="468" on="0"/>
        <pt x="815" y="359" on="0"/>
      </contour>
      <contour>
        <pt x="704" y="92" on="1"/>
        <pt x="703" y="100" on="0"/>
        <pt x="703" y="119" on="0"/>
        <pt x="703" y="139" on="1"/>
        <pt x="703" y="202" on="0"/>
        <pt x="708" y="309" on="0"/>
        <pt x="713" y="359" on="1"/>
        <pt x="668" y="337" on="0"/>
        <pt x="577" y="277" on="0"/>
        <pt x="540" y="244" on="1"/>
        <pt x="591" y="216" on="0"/>
        <pt x="675" y="138" on="0"/>
      </contour>
      <contour>
        <pt x="313" y="92" on="1"/>
        <pt x="312" y="99" on="0"/>
        <pt x="312" y="118" on="0"/>
        <pt x="312" y="139" on="1"/>
        <pt x="312" y="199" on="0"/>
        <pt x="316" y="307" on="0"/>
        <pt x="321" y="358" on="1"/>
        <pt x="277" y="337" on="0"/>
        <pt x="187" y="277" on="0"/>
        <pt x="149" y="244" on="1"/>
        <pt x="201" y="214" on="0"/>
        <pt x="284" y="137" on="0"/>
      </contour>
    </TTGlyph>
    <TTGlyph name="bn_b_bha" xMin="-8" yMin="-260" xMax="639" yMax="649">
      <contour>
        <pt x="426" y="196" on="1"/>
        <pt x="426" y="202" on="0"/>
        <pt x="426" y="215" on="0"/>
        <pt x="426" y="221" on="1"/>
        <pt x="426" y="282" on="0"/>
        <pt x="430" y="376" on="0"/>
        <pt x="434" y="417" on="1"/>
        <pt x="382" y="394" on="0"/>
        <pt x="292" y="345" on="0"/>
        <pt x="256" y="321" on="1"/>
        <pt x="307" y="297" on="0"/>
        <pt x="392" y="234" on="0"/>
      </contour>
      <contour>
        <pt x="596" y="-67" on="1"/>
        <pt x="596" y="-156" on="0"/>
        <pt x="480" y="-260" on="0"/>
        <pt x="380" y="-260" on="1"/>
        <pt x="247" y="-260" on="0"/>
        <pt x="54" y="-35" on="0"/>
        <pt x="25" y="135" on="1"/>
        <pt x="48" y="146" on="0"/>
        <pt x="88" y="161" on="0"/>
        <pt x="106" y="166" on="1"/>
        <pt x="141" y="18" on="0"/>
        <pt x="291" y="-155" on="0"/>
        <pt x="384" y="-155" on="1"/>
        <pt x="447" y="-155" on="0"/>
        <pt x="512" y="-94" on="0"/>
        <pt x="512" y="-36" on="1"/>
        <pt x="512" y="-28" on="0"/>
        <pt x="510" y="-10" on="0"/>
        <pt x="509" y="-2" on="1"/>
        <pt x="474" y="-32" on="0"/>
        <pt x="404" y="-62" on="0"/>
        <pt x="368" y="-62" on="1"/>
        <pt x="303" y="-62" on="0"/>
        <pt x="209" y="13" on="0"/>
        <pt x="209" y="65" on="1"/>
        <pt x="209" y="100" on="0"/>
        <pt x="258" y="155" on="0"/>
        <pt x="297" y="167" on="1"/>
        <pt x="319" y="164" on="0"/>
        <pt x="363" y="133" on="0"/>
        <pt x="374" y="113" on="1"/>
        <pt x="340" y="107" on="0"/>
        <pt x="293" y="68" on="0"/>
        <pt x="293" y="47" on="1"/>
        <pt x="293" y="35" on="0"/>
        <pt x="313" y="22" on="0"/>
        <pt x="330" y="22" on="1"/>
        <pt x="349" y="22" on="0"/>
        <pt x="399" y="44" on="0"/>
        <pt x="431" y="67" on="1"/>
        <pt x="430" y="71" on="0"/>
        <pt x="429" y="87" on="0"/>
        <pt x="429" y="91" on="1"/>
        <pt x="385" y="162" on="0"/>
        <pt x="249" y="246" on="0"/>
        <pt x="167" y="254" on="1"/>
        <pt x="147" y="281" on="0"/>
        <pt x="128" y="330" on="0"/>
        <pt x="126" y="359" on="1"/>
        <pt x="176" y="402" on="0"/>
        <pt x="340" y="495" on="0"/>
        <pt x="441" y="537" on="1"/>
        <pt x="393" y="539" on="0"/>
        <pt x="337" y="541" on="0"/>
        <pt x="313" y="541" on="1"/>
        <pt x="233" y="541" on="0"/>
        <pt x="68" y="527" on="0"/>
        <pt x="0" y="514" on="1"/>
        <pt x="-4" y="525" on="0"/>
        <pt x="-8" y="557" on="0"/>
        <pt x="-8" y="572" on="1"/>
        <pt x="-8" y="586" on="0"/>
        <pt x="-4" y="610" on="0"/>
        <pt x="0" y="618" on="1"/>
        <pt x="62" y="632" on="0"/>
        <pt x="229" y="649" on="0"/>
        <pt x="313" y="649" on="1"/>
        <pt x="397" y="649" on="0"/>
        <pt x="566" y="632" on="0"/>
        <pt x="630" y="618" on="1"/>
        <pt x="634" y="612" on="0"/>
        <pt x="639" y="589" on="0"/>
        <pt x="639" y="572" on="1"/>
        <pt x="639" y="555" on="0"/>
        <pt x="634" y="524" on="0"/>
        <pt x="630" y="514" on="1"/>
        <pt x="614" y="517" on="0"/>
        <pt x="573" y="523" on="0"/>
        <pt x="543" y="527" on="1"/>
        <pt x="537" y="476" on="0"/>
        <pt x="532" y="389" on="0"/>
        <pt x="532" y="340" on="1"/>
        <pt x="532" y="193" on="0"/>
        <pt x="536" y="111" on="0"/>
        <pt x="541" y="80" on="1"/>
        <pt x="548" y="75" on="0"/>
        <pt x="560" y="65" on="0"/>
        <pt x="565" y="61" on="1"/>
        <pt x="580" y="29" on="0"/>
        <pt x="596" y="-36" on="0"/>
      </contour>
    </TTGlyph>
    <TTGlyph name="bn_b_da" xMin="-8" yMin="-57" xMax="712" yMax="653">
      <contour>
        <pt x="626" y="141" on="1"/>
        <pt x="626" y="102" on="0"/>
        <pt x="635" y="17" on="0"/>
        <pt x="645" y="-31" on="1"/>
        <pt x="630" y="-40" on="0"/>
        <pt x="568" y="-55" on="0"/>
        <pt x="544" y="-57" on="1"/>
        <pt x="536" y="-19" on="0"/>
        <pt x="527" y="60" on="0"/>
        <pt x="527" y="99" on="1"/>
        <pt x="527" y="153" on="0"/>
        <pt x="541" y="261" on="0"/>
        <pt x="554" y="311" on="1"/>
        <pt x="500" y="268" on="0"/>
        <pt x="402" y="157" on="0"/>
        <pt x="369" y="103" on="1"/>
        <pt x="349" y="105" on="0"/>
        <pt x="297" y="132" on="0"/>
        <pt x="271" y="153" on="1"/>
        <pt x="258" y="211" on="0"/>
        <pt x="171" y="279" on="0"/>
        <pt x="99" y="289" on="1"/>
        <pt x="79" y="315" on="0"/>
        <pt x="60" y="365" on="0"/>
        <pt x="59" y="393" on="1"/>
        <pt x="103" y="428" on="0"/>
        <pt x="250" y="507" on="0"/>
        <pt x="338" y="541" on="1"/>
        <pt x="338" y="542" on="0"/>
        <pt x="338" y="544" on="0"/>
        <pt x="338" y="545" on="1"/>
        <pt x="245" y="544" on="0"/>
        <pt x="72" y="528" on="0"/>
        <pt x="0" y="514" on="1"/>
        <pt x="-4" y="526" on="0"/>
        <pt x="-8" y="557" on="0"/>
        <pt x="-8" y="571" on="1"/>
        <pt x="-8" y="586" on="0"/>
        <pt x="-4" y="612" on="0"/>
        <pt x="0" y="618" on="1"/>
        <pt x="67" y="635" on="0"/>
        <pt x="249" y="653" on="0"/>
        <pt x="350" y="653" on="1"/>
        <pt x="453" y="653" on="0"/>
        <pt x="643" y="634" on="0"/>
        <pt x="704" y="618" on="1"/>
        <pt x="708" y="608" on="0"/>
        <pt x="712" y="582" on="0"/>
        <pt x="712" y="570" on="1"/>
        <pt x="712" y="556" on="0"/>
        <pt x="708" y="528" on="0"/>
        <pt x="704" y="514" on="1"/>
        <pt x="648" y="525" on="0"/>
        <pt x="502" y="541" on="0"/>
        <pt x="427" y="544" on="1"/>
        <pt x="428" y="537" on="0"/>
        <pt x="428" y="521" on="0"/>
        <pt x="428" y="506" on="1"/>
        <pt x="428" y="464" on="0"/>
        <pt x="422" y="372" on="0"/>
        <pt x="417" y="324" on="1"/>
        <pt x="453" y="364" on="0"/>
        <pt x="528" y="427" on="0"/>
        <pt x="568" y="451" on="1"/>
        <pt x="592" y="441" on="0"/>
        <pt x="633" y="404" on="0"/>
        <pt x="660" y="365" on="1"/>
        <pt x="643" y="309" on="0"/>
        <pt x="626" y="197" on="0"/>
      </contour>
      <contour>
        <pt x="187" y="351" on="1"/>
        <pt x="223" y="328" on="0"/>
        <pt x="277" y="267" on="0"/>
        <pt x="293" y="231" on="1"/>
        <pt x="305" y="283" on="0"/>
        <pt x="323" y="380" on="0"/>
        <pt x="329" y="423" on="1"/>
        <pt x="288" y="405" on="0"/>
        <pt x="216" y="369" on="0"/>
      </contour>
    </TTGlyph>
    <TTGlyph name="bn_b_da_ukaar" xMin="-8" yMin="-29" xMax="690" yMax="654">
      <contour>
        <pt x="313" y="92" on="1"/>
        <pt x="312" y="99" on="0"/>
        <pt x="312" y="118" on="0"/>
        <pt x="312" y="139" on="1"/>
        <pt x="312" y="202" on="0"/>
        <pt x="317" y="309" on="0"/>
        <pt x="322" y="359" on="1"/>
        <pt x="277" y="337" on="0"/>
        <pt x="186" y="277" on="0"/>
        <pt x="149" y="244" on="1"/>
        <pt x="201" y="214" on="0"/>
        <pt x="284" y="137" on="0"/>
      </contour>
      <contour>
        <pt x="424" y="212" on="1"/>
        <pt x="427" y="143" on="0"/>
        <pt x="440" y="34" on="0"/>
        <pt x="451" y="-4" on="1"/>
        <pt x="429" y="-16" on="0"/>
        <pt x="360" y="-29" on="0"/>
        <pt x="324" y="-29" on="1"/>
        <pt x="278" y="53" on="0"/>
        <pt x="155" y="150" on="0"/>
        <pt x="76" y="167" on="1"/>
        <pt x="52" y="200" on="0"/>
        <pt x="27" y="266" on="0"/>
        <pt x="24" y="304" on="1"/>
        <pt x="80" y="365" on="0"/>
        <pt x="245" y="471" on="0"/>
        <pt x="344" y="510" on="1"/>
        <pt x="346" y="525" on="0"/>
        <pt x="349" y="540" on="0"/>
        <pt x="351" y="546" on="1"/>
        <pt x="346" y="546" on="0"/>
        <pt x="335" y="546" on="0"/>
        <pt x="329" y="546" on="1"/>
        <pt x="248" y="546" on="0"/>
        <pt x="69" y="528" on="0"/>
        <pt x="0" y="514" on="1"/>
        <pt x="-4" y="526" on="0"/>
        <pt x="-8" y="558" on="0"/>
        <pt x="-8" y="571" on="1"/>
        <pt x="-8" y="586" on="0"/>
        <pt x="-4" y="611" on="0"/>
        <pt x="0" y="618" on="1"/>
        <pt x="61" y="633" on="0"/>
        <pt x="246" y="654" on="0"/>
        <pt x="332" y="654" on="1"/>
        <pt x="426" y="654" on="0"/>
        <pt x="626" y="633" on="0"/>
        <pt x="682" y="618" on="1"/>
        <pt x="686" y="610" on="0"/>
        <pt x="690" y="584" on="0"/>
        <pt x="690" y="570" on="1"/>
        <pt x="690" y="557" on="0"/>
        <pt x="685" y="525" on="0"/>
        <pt x="682" y="514" on="1"/>
        <pt x="641" y="523" on="0"/>
        <pt x="511" y="539" on="0"/>
        <pt x="439" y="543" on="1"/>
        <pt x="432" y="488" on="0"/>
        <pt x="424" y="386" on="0"/>
        <pt x="423" y="331" on="1"/>
        <pt x="434" y="288" on="0"/>
        <pt x="492" y="234" on="0"/>
        <pt x="524" y="234" on="1"/>
        <pt x="552" y="234" on="0"/>
        <pt x="587" y="278" on="0"/>
        <pt x="587" y="312" on="1"/>
        <pt x="587" y="336" on="0"/>
        <pt x="570" y="362" on="0"/>
        <pt x="554" y="362" on="1"/>
        <pt x="540" y="362" on="0"/>
        <pt x="510" y="330" on="0"/>
        <pt x="499" y="304" on="1"/>
        <pt x="486" y="328" on="0"/>
        <pt x="470" y="398" on="0"/>
        <pt x="469" y="432" on="1"/>
        <pt x="479" y="450" on="0"/>
        <pt x="517" y="471" on="0"/>
        <pt x="541" y="471" on="1"/>
        <pt x="595" y="471" on="0"/>
        <pt x="663" y="373" on="0"/>
        <pt x="663" y="292" on="1"/>
        <pt x="663" y="210" on="0"/>
        <pt x="598" y="109" on="0"/>
        <pt x="546" y="109" on="1"/>
        <pt x="506" y="109" on="0"/>
        <pt x="445" y="161" on="0"/>
      </contour>
    </TTGlyph>
    <TTGlyph name="bn_b_da_uukaar" xMin="-8" yMin="-29" xMax="690" yMax="654">
      <contour>
        <pt x="313" y="92" on="1"/>
        <pt x="312" y="99" on="0"/>
        <pt x="312" y="118" on="0"/>
        <pt x="312" y="139" on="1"/>
        <pt x="312" y="202" on="0"/>
        <pt x="317" y="309" on="0"/>
        <pt x="322" y="359" on="1"/>
        <pt x="277" y="337" on="0"/>
        <pt x="186" y="277" on="0"/>
        <pt x="149" y="244" on="1"/>
        <pt x="201" y="214" on="0"/>
        <pt x="284" y="137" on="0"/>
      </contour>
      <contour>
        <pt x="423" y="292" on="1"/>
        <pt x="423" y="194" on="0"/>
        <pt x="437" y="45" on="0"/>
        <pt x="451" y="-4" on="1"/>
        <pt x="429" y="-16" on="0"/>
        <pt x="360" y="-29" on="0"/>
        <pt x="324" y="-29" on="1"/>
        <pt x="278" y="53" on="0"/>
        <pt x="155" y="150" on="0"/>
        <pt x="76" y="167" on="1"/>
        <pt x="52" y="200" on="0"/>
        <pt x="27" y="266" on="0"/>
        <pt x="24" y="304" on="1"/>
        <pt x="80" y="365" on="0"/>
        <pt x="245" y="471" on="0"/>
        <pt x="344" y="510" on="1"/>
        <pt x="346" y="525" on="0"/>
        <pt x="349" y="540" on="0"/>
        <pt x="351" y="546" on="1"/>
        <pt x="346" y="546" on="0"/>
        <pt x="335" y="546" on="0"/>
        <pt x="329" y="546" on="1"/>
        <pt x="248" y="546" on="0"/>
        <pt x="69" y="528" on="0"/>
        <pt x="0" y="514" on="1"/>
        <pt x="-4" y="526" on="0"/>
        <pt x="-8" y="558" on="0"/>
        <pt x="-8" y="571" on="1"/>
        <pt x="-8" y="586" on="0"/>
        <pt x="-4" y="611" on="0"/>
        <pt x="0" y="618" on="1"/>
        <pt x="61" y="633" on="0"/>
        <pt x="246" y="654" on="0"/>
        <pt x="332" y="654" on="1"/>
        <pt x="426" y="654" on="0"/>
        <pt x="626" y="633" on="0"/>
        <pt x="682" y="618" on="1"/>
        <pt x="686" y="610" on="0"/>
        <pt x="690" y="584" on="0"/>
        <pt x="690" y="570" on="1"/>
        <pt x="690" y="557" on="0"/>
        <pt x="685" y="525" on="0"/>
        <pt x="682" y="514" on="1"/>
        <pt x="641" y="523" on="0"/>
        <pt x="511" y="539" on="0"/>
        <pt x="439" y="543" on="1"/>
        <pt x="435" y="510" on="0"/>
        <pt x="428" y="445" on="0"/>
        <pt x="426" y="409" on="1"/>
        <pt x="478" y="431" on="0"/>
        <pt x="543" y="458" on="0"/>
        <pt x="556" y="462" on="1"/>
        <pt x="618" y="376" on="1"/>
        <pt x="612" y="335" on="0"/>
        <pt x="608" y="298" on="0"/>
        <pt x="608" y="283" on="1"/>
        <pt x="608" y="227" on="0"/>
        <pt x="625" y="138" on="0"/>
        <pt x="643" y="95" on="1"/>
        <pt x="624" y="87" on="0"/>
        <pt x="567" y="78" on="0"/>
        <pt x="536" y="78" on="1"/>
        <pt x="526" y="117" on="0"/>
        <pt x="517" y="202" on="0"/>
        <pt x="517" y="253" on="1"/>
        <pt x="517" y="267" on="0"/>
        <pt x="519" y="302" on="0"/>
        <pt x="523" y="334" on="1"/>
        <pt x="506" y="328" on="0"/>
        <pt x="465" y="311" on="0"/>
      </contour>
    </TTGlyph>
    <TTGlyph name="bn_b_dha" xMin="-8" yMin="-135" xMax="647" yMax="653">
      <contour>
        <pt x="354" y="298" on="1"/>
        <pt x="354" y="302" on="1"/>
        <pt x="354" y="344" on="0"/>
        <pt x="353" y="384" on="0"/>
        <pt x="352" y="400" on="1"/>
        <pt x="316" y="388" on="0"/>
        <pt x="215" y="333" on="0"/>
        <pt x="176" y="304" on="1"/>
        <pt x="219" y="285" on="0"/>
        <pt x="253" y="266" on="0"/>
        <pt x="267" y="257" on="1"/>
        <pt x="279" y="263" on="0"/>
        <pt x="307" y="277" on="0"/>
      </contour>
      <contour>
        <pt x="516" y="-124" on="1"/>
        <pt x="506" y="-67" on="0"/>
        <pt x="495" y="55" on="0"/>
        <pt x="495" y="117" on="1"/>
        <pt x="495" y="147" on="0"/>
        <pt x="497" y="208" on="0"/>
        <pt x="500" y="246" on="1"/>
        <pt x="486" y="241" on="0"/>
        <pt x="456" y="229" on="0"/>
        <pt x="439" y="222" on="1"/>
        <pt x="434" y="113" on="0"/>
        <pt x="407" y="-82" on="0"/>
        <pt x="390" y="-135" on="1"/>
        <pt x="363" y="-135" on="0"/>
        <pt x="298" y="-123" on="0"/>
        <pt x="276" y="-114" on="1"/>
        <pt x="250" y="-54" on="0"/>
        <pt x="171" y="23" on="0"/>
        <pt x="121" y="37" on="1"/>
        <pt x="101" y="64" on="0"/>
        <pt x="81" y="113" on="0"/>
        <pt x="80" y="141" on="1"/>
        <pt x="104" y="160" on="0"/>
        <pt x="163" y="200" on="0"/>
        <pt x="196" y="219" on="1"/>
        <pt x="181" y="225" on="0"/>
        <pt x="143" y="236" on="0"/>
        <pt x="101" y="245" on="1"/>
        <pt x="81" y="273" on="0"/>
        <pt x="62" y="323" on="0"/>
        <pt x="60" y="353" on="1"/>
        <pt x="99" y="389" on="0"/>
        <pt x="264" y="484" on="0"/>
        <pt x="340" y="513" on="1"/>
        <pt x="339" y="520" on="0"/>
        <pt x="335" y="535" on="0"/>
        <pt x="332" y="545" on="1"/>
        <pt x="328" y="545" on="0"/>
        <pt x="319" y="545" on="0"/>
        <pt x="314" y="545" on="1"/>
        <pt x="234" y="545" on="0"/>
        <pt x="76" y="529" on="0"/>
        <pt x="0" y="514" on="1"/>
        <pt x="-4" y="526" on="0"/>
        <pt x="-8" y="557" on="0"/>
        <pt x="-8" y="571" on="1"/>
        <pt x="-8" y="586" on="0"/>
        <pt x="-4" y="612" on="0"/>
        <pt x="0" y="618" on="1"/>
        <pt x="68" y="635" on="0"/>
        <pt x="232" y="653" on="0"/>
        <pt x="317" y="653" on="1"/>
        <pt x="404" y="653" on="0"/>
        <pt x="578" y="634" on="0"/>
        <pt x="639" y="618" on="1"/>
        <pt x="643" y="608" on="0"/>
        <pt x="647" y="582" on="0"/>
        <pt x="647" y="570" on="1"/>
        <pt x="647" y="556" on="0"/>
        <pt x="643" y="528" on="0"/>
        <pt x="639" y="514" on="1"/>
        <pt x="592" y="523" on="0"/>
        <pt x="478" y="538" on="0"/>
        <pt x="420" y="542" on="1"/>
        <pt x="429" y="502" on="0"/>
        <pt x="440" y="395" on="0"/>
        <pt x="441" y="338" on="1"/>
        <pt x="460" y="346" on="0"/>
        <pt x="500" y="361" on="0"/>
        <pt x="521" y="368" on="1"/>
        <pt x="594" y="281" on="1"/>
        <pt x="590" y="247" on="0"/>
        <pt x="586" y="187" on="0"/>
        <pt x="586" y="160" on="1"/>
        <pt x="586" y="88" on="0"/>
        <pt x="604" y="-40" on="0"/>
        <pt x="623" y="-103" on="1"/>
        <pt x="604" y="-113" on="0"/>
        <pt x="548" y="-124" on="0"/>
      </contour>
      <contour>
        <pt x="195" y="92" on="1"/>
        <pt x="230" y="69" on="0"/>
        <pt x="284" y="0" on="0"/>
        <pt x="300" y="-41" on="1"/>
        <pt x="314" y="9" on="0"/>
        <pt x="338" y="125" on="0"/>
        <pt x="345" y="179" on="1"/>
        <pt x="305" y="160" on="0"/>
        <pt x="228" y="115" on="0"/>
      </contour>
    </TTGlyph>
    <TTGlyph name="bn_b_ja" xMin="-8" yMin="-26" xMax="739" yMax="656">
      <contour>
        <pt x="502" y="331" on="1"/>
        <pt x="511" y="301" on="0"/>
        <pt x="520" y="235" on="0"/>
        <pt x="520" y="203" on="1"/>
        <pt x="520" y="96" on="0"/>
        <pt x="422" y="-26" on="0"/>
        <pt x="335" y="-26" on="1"/>
        <pt x="226" y="-26" on="0"/>
        <pt x="73" y="126" on="0"/>
        <pt x="43" y="257" on="1"/>
        <pt x="58" y="265" on="0"/>
        <pt x="97" y="282" on="0"/>
        <pt x="126" y="292" on="1"/>
        <pt x="149" y="199" on="0"/>
        <pt x="264" y="95" on="0"/>
        <pt x="342" y="95" on="1"/>
        <pt x="393" y="95" on="0"/>
        <pt x="445" y="169" on="0"/>
        <pt x="445" y="239" on="1"/>
        <pt x="445" y="248" on="0"/>
        <pt x="445" y="258" on="0"/>
        <pt x="444" y="262" on="1"/>
        <pt x="412" y="238" on="0"/>
        <pt x="361" y="217" on="0"/>
        <pt x="337" y="217" on="1"/>
        <pt x="308" y="217" on="0"/>
        <pt x="253" y="244" on="0"/>
        <pt x="232" y="268" on="1"/>
        <pt x="198" y="299" on="0"/>
        <pt x="99" y="330" on="0"/>
        <pt x="31" y="331" on="1"/>
        <pt x="20" y="351" on="0"/>
        <pt x="8" y="400" on="0"/>
        <pt x="6" y="428" on="1"/>
        <pt x="39" y="454" on="0"/>
        <pt x="147" y="512" on="0"/>
        <pt x="222" y="543" on="1"/>
        <pt x="161" y="539" on="0"/>
        <pt x="46" y="524" on="0"/>
        <pt x="0" y="514" on="1"/>
        <pt x="-4" y="526" on="0"/>
        <pt x="-8" y="559" on="0"/>
        <pt x="-8" y="574" on="1"/>
        <pt x="-8" y="587" on="0"/>
        <pt x="-4" y="611" on="0"/>
        <pt x="0" y="618" on="1"/>
        <pt x="70" y="635" on="0"/>
        <pt x="265" y="656" on="0"/>
        <pt x="365" y="656" on="1"/>
        <pt x="467" y="656" on="0"/>
        <pt x="667" y="635" on="0"/>
        <pt x="731" y="618" on="1"/>
        <pt x="735" y="610" on="0"/>
        <pt x="739" y="585" on="0"/>
        <pt x="739" y="571" on="1"/>
        <pt x="739" y="557" on="0"/>
        <pt x="735" y="527" on="0"/>
        <pt x="731" y="514" on="1"/>
        <pt x="666" y="527" on="0"/>
        <pt x="504" y="544" on="0"/>
        <pt x="423" y="547" on="1"/>
        <pt x="445" y="508" on="0"/>
        <pt x="508" y="470" on="0"/>
        <pt x="549" y="470" on="1"/>
        <pt x="570" y="470" on="0"/>
        <pt x="608" y="480" on="0"/>
        <pt x="628" y="491" on="1"/>
        <pt x="650" y="476" on="0"/>
        <pt x="686" y="426" on="0"/>
        <pt x="697" y="395" on="1"/>
        <pt x="681" y="345" on="0"/>
        <pt x="664" y="237" on="0"/>
        <pt x="664" y="179" on="1"/>
        <pt x="664" y="133" on="0"/>
        <pt x="675" y="40" on="0"/>
        <pt x="685" y="-7" on="1"/>
        <pt x="670" y="-14" on="0"/>
        <pt x="603" y="-24" on="0"/>
        <pt x="579" y="-24" on="1"/>
        <pt x="571" y="10" on="0"/>
        <pt x="563" y="94" on="0"/>
        <pt x="563" y="141" on="1"/>
        <pt x="563" y="198" on="0"/>
        <pt x="583" y="317" on="0"/>
        <pt x="600" y="365" on="1"/>
        <pt x="597" y="365" on="0"/>
        <pt x="590" y="365" on="0"/>
        <pt x="586" y="365" on="1"/>
        <pt x="509" y="365" on="0"/>
        <pt x="381" y="460" on="0"/>
        <pt x="350" y="538" on="1"/>
        <pt x="320" y="493" on="0"/>
        <pt x="276" y="381" on="0"/>
        <pt x="276" y="352" on="1"/>
        <pt x="276" y="336" on="0"/>
        <pt x="291" y="318" on="0"/>
        <pt x="305" y="318" on="1"/>
        <pt x="325" y="318" on="0"/>
        <pt x="384" y="360" on="0"/>
        <pt x="408" y="391" on="1"/>
        <pt x="430" y="380" on="0"/>
        <pt x="481" y="348" on="0"/>
      </contour>
      <contour>
        <pt x="195" y="348" on="1"/>
        <pt x="193" y="356" on="0"/>
        <pt x="192" y="373" on="0"/>
        <pt x="192" y="382" on="1"/>
        <pt x="192" y="394" on="0"/>
        <pt x="195" y="422" on="0"/>
        <pt x="199" y="442" on="1"/>
        <pt x="177" y="432" on="0"/>
        <pt x="133" y="410" on="0"/>
        <pt x="110" y="398" on="1"/>
        <pt x="131" y="389" on="0"/>
        <pt x="174" y="364" on="0"/>
      </contour>
    </TTGlyph>
    <TTGlyph name="bn_b_la" xMin="-35" yMin="-241" xMax="509" yMax="649">
      <contour>
        <pt x="307" y="117" on="1"/>
        <pt x="307" y="123" on="0"/>
        <pt x="307" y="134" on="0"/>
        <pt x="307" y="140" on="1"/>
        <pt x="307" y="201" on="0"/>
        <pt x="310" y="310" on="0"/>
        <pt x="313" y="364" on="1"/>
        <pt x="272" y="345" on="0"/>
        <pt x="187" y="289" on="0"/>
        <pt x="153" y="258" on="1"/>
        <pt x="205" y="229" on="0"/>
        <pt x="281" y="158" on="0"/>
      </contour>
      <contour>
        <pt x="102" y="-155" on="1"/>
        <pt x="111" y="-155" on="0"/>
        <pt x="131" y="-152" on="0"/>
        <pt x="147" y="-149" on="1"/>
        <pt x="147" y="-173" on="0"/>
        <pt x="134" y="-225" on="0"/>
        <pt x="123" y="-241" on="1"/>
        <pt x="52" y="-237" on="0"/>
        <pt x="-35" y="-158" on="0"/>
        <pt x="-35" y="-95" on="1"/>
        <pt x="-35" y="-34" on="0"/>
        <pt x="26" y="44" on="0"/>
        <pt x="74" y="44" on="1"/>
        <pt x="98" y="44" on="0"/>
        <pt x="142" y="13" on="0"/>
        <pt x="161" y="-18" on="1"/>
        <pt x="170" y="12" on="0"/>
        <pt x="204" y="45" on="0"/>
        <pt x="226" y="45" on="1"/>
        <pt x="254" y="45" on="0"/>
        <pt x="296" y="8" on="0"/>
        <pt x="311" y="-30" on="1"/>
        <pt x="311" y="-29" on="1"/>
        <pt x="292" y="51" on="0"/>
        <pt x="174" y="159" on="0"/>
        <pt x="82" y="182" on="1"/>
        <pt x="58" y="215" on="0"/>
        <pt x="32" y="281" on="0"/>
        <pt x="29" y="319" on="1"/>
        <pt x="81" y="374" on="0"/>
        <pt x="234" y="473" on="0"/>
        <pt x="326" y="509" on="1"/>
        <pt x="327" y="514" on="0"/>
        <pt x="329" y="533" on="0"/>
        <pt x="329" y="538" on="1"/>
        <pt x="313" y="539" on="0"/>
        <pt x="280" y="541" on="0"/>
        <pt x="264" y="541" on="1"/>
        <pt x="202" y="541" on="0"/>
        <pt x="65" y="527" on="0"/>
        <pt x="0" y="514" on="1"/>
        <pt x="-4" y="529" on="0"/>
        <pt x="-8" y="558" on="0"/>
        <pt x="-8" y="572" on="1"/>
        <pt x="-8" y="587" on="0"/>
        <pt x="-4" y="610" on="0"/>
        <pt x="0" y="618" on="1"/>
        <pt x="59" y="632" on="0"/>
        <pt x="202" y="649" on="0"/>
        <pt x="268" y="649" on="1"/>
        <pt x="325" y="649" on="0"/>
        <pt x="457" y="631" on="0"/>
        <pt x="501" y="618" on="1"/>
        <pt x="505" y="610" on="0"/>
        <pt x="509" y="585" on="0"/>
        <pt x="509" y="571" on="1"/>
        <pt x="509" y="557" on="0"/>
        <pt x="505" y="527" on="0"/>
        <pt x="501" y="514" on="1"/>
        <pt x="484" y="518" on="0"/>
        <pt x="443" y="525" on="0"/>
        <pt x="422" y="528" on="1"/>
        <pt x="418" y="463" on="0"/>
        <pt x="414" y="351" on="0"/>
        <pt x="414" y="288" on="1"/>
        <pt x="414" y="117" on="0"/>
        <pt x="432" y="-135" on="0"/>
        <pt x="450" y="-216" on="1"/>
        <pt x="428" y="-224" on="0"/>
        <pt x="363" y="-233" on="0"/>
        <pt x="324" y="-233" on="1"/>
        <pt x="317" y="-152" on="0"/>
        <pt x="272" y="-54" on="0"/>
        <pt x="246" y="-54" on="1"/>
        <pt x="235" y="-54" on="0"/>
        <pt x="222" y="-69" on="0"/>
        <pt x="222" y="-81" on="1"/>
        <pt x="222" y="-88" on="0"/>
        <pt x="226" y="-101" on="0"/>
        <pt x="231" y="-110" on="1"/>
        <pt x="244" y="-131" on="1"/>
        <pt x="232" y="-138" on="0"/>
        <pt x="198" y="-150" on="0"/>
        <pt x="177" y="-155" on="1"/>
        <pt x="147" y="-111" on="1"/>
        <pt x="128" y="-86" on="0"/>
        <pt x="95" y="-64" on="0"/>
        <pt x="77" y="-64" on="1"/>
        <pt x="56" y="-64" on="0"/>
        <pt x="32" y="-85" on="0"/>
        <pt x="32" y="-104" on="1"/>
        <pt x="32" y="-126" on="0"/>
        <pt x="72" y="-155" on="0"/>
      </contour>
    </TTGlyph>
    <TTGlyph name="bn_b_ra" xMin="-29" yMin="-207" xMax="509" yMax="649">
      <contour>
        <pt x="307" y="117" on="1"/>
        <pt x="307" y="123" on="0"/>
        <pt x="307" y="134" on="0"/>
        <pt x="307" y="140" on="1"/>
        <pt x="307" y="201" on="0"/>
        <pt x="310" y="310" on="0"/>
        <pt x="313" y="364" on="1"/>
        <pt x="272" y="345" on="0"/>
        <pt x="187" y="289" on="0"/>
        <pt x="153" y="258" on="1"/>
        <pt x="205" y="229" on="0"/>
        <pt x="281" y="158" on="0"/>
      </contour>
      <contour>
        <pt x="446" y="-190" on="1"/>
        <pt x="424" y="-198" on="0"/>
        <pt x="358" y="-207" on="0"/>
        <pt x="319" y="-207" on="1"/>
        <pt x="296" y="-184" on="0"/>
        <pt x="283" y="-174" on="0"/>
        <pt x="277" y="-171" on="1"/>
        <pt x="265" y="-165" on="0"/>
        <pt x="238" y="-159" on="0"/>
        <pt x="222" y="-159" on="1"/>
        <pt x="213" y="-159" on="0"/>
        <pt x="192" y="-160" on="0"/>
        <pt x="171" y="-162" on="1"/>
        <pt x="148" y="-164" on="0"/>
        <pt x="125" y="-165" on="0"/>
        <pt x="115" y="-165" on="1"/>
        <pt x="49" y="-165" on="0"/>
        <pt x="-29" y="-100" on="0"/>
        <pt x="-29" y="-45" on="1"/>
        <pt x="-29" y="-18" on="0"/>
        <pt x="-15" y="36" on="0"/>
        <pt x="0" y="67" on="1"/>
        <pt x="20" y="67" on="0"/>
        <pt x="61" y="59" on="0"/>
        <pt x="78" y="51" on="1"/>
        <pt x="71" y="35" on="0"/>
        <pt x="63" y="3" on="0"/>
        <pt x="63" y="-10" on="1"/>
        <pt x="63" y="-31" on="0"/>
        <pt x="93" y="-56" on="0"/>
        <pt x="117" y="-56" on="1"/>
        <pt x="123" y="-56" on="0"/>
        <pt x="139" y="-55" on="0"/>
        <pt x="156" y="-54" on="1"/>
        <pt x="176" y="-52" on="0"/>
        <pt x="195" y="-51" on="0"/>
        <pt x="203" y="-51" on="1"/>
        <pt x="236" y="-51" on="0"/>
        <pt x="289" y="-83" on="0"/>
        <pt x="314" y="-118" on="1"/>
        <pt x="313" y="-101" on="0"/>
        <pt x="311" y="-58" on="0"/>
        <pt x="310" y="-20" on="1"/>
        <pt x="278" y="59" on="0"/>
        <pt x="161" y="162" on="0"/>
        <pt x="82" y="182" on="1"/>
        <pt x="58" y="215" on="0"/>
        <pt x="32" y="281" on="0"/>
        <pt x="29" y="319" on="1"/>
        <pt x="81" y="374" on="0"/>
        <pt x="234" y="473" on="0"/>
        <pt x="326" y="509" on="1"/>
        <pt x="327" y="514" on="0"/>
        <pt x="329" y="533" on="0"/>
        <pt x="329" y="538" on="1"/>
        <pt x="313" y="539" on="0"/>
        <pt x="280" y="541" on="0"/>
        <pt x="264" y="541" on="1"/>
        <pt x="202" y="541" on="0"/>
        <pt x="65" y="527" on="0"/>
        <pt x="0" y="514" on="1"/>
        <pt x="-4" y="529" on="0"/>
        <pt x="-8" y="558" on="0"/>
        <pt x="-8" y="572" on="1"/>
        <pt x="-8" y="587" on="0"/>
        <pt x="-4" y="610" on="0"/>
        <pt x="0" y="618" on="1"/>
        <pt x="59" y="632" on="0"/>
        <pt x="202" y="649" on="0"/>
        <pt x="268" y="649" on="1"/>
        <pt x="325" y="649" on="0"/>
        <pt x="457" y="631" on="0"/>
        <pt x="501" y="618" on="1"/>
        <pt x="505" y="610" on="0"/>
        <pt x="509" y="585" on="0"/>
        <pt x="509" y="571" on="1"/>
        <pt x="509" y="557" on="0"/>
        <pt x="505" y="527" on="0"/>
        <pt x="501" y="514" on="1"/>
        <pt x="484" y="518" on="0"/>
        <pt x="443" y="525" on="0"/>
        <pt x="422" y="528" on="1"/>
        <pt x="418" y="463" on="0"/>
        <pt x="414" y="351" on="0"/>
        <pt x="414" y="288" on="1"/>
        <pt x="414" y="117" on="0"/>
        <pt x="430" y="-116" on="0"/>
      </contour>
    </TTGlyph>
</ttFont>
